STARTFONT 2.1
FONT -cmvnd-lemon-medium-r-normal--40-290-100-100-m-200-ISO10646-1
SIZE 40 75 75
FONTBOUNDINGBOX 40 48 -8 -12
COMMENT "Generated by fontforge, http://fontforge.sourceforge.net"
COMMENT "This font was automatically resized by bdfresize-1.5"
COMMENT "mag_x = 4/1, mag_y = 4/1, blackness = 4"
STARTPROPERTIES 26
FONTNAME_REGISTRY ""
FOUNDRY "cmvnd"
FAMILY_NAME "lemon"
WEIGHT_NAME "medium"
SLANT "r"
SETWIDTH_NAME "normal"
ADD_STYLE_NAME ""
PIXEL_SIZE 40
POINT_SIZE 290
RESOLUTION_X 100
RESOLUTION_Y 100
SPACING "m"
AVERAGE_WIDTH 200
CHARSET_REGISTRY "ISO10646"
CHARSET_ENCODING "1"
COPYRIGHT "artwiz, fixed by aleczapka, improved by cmvnd"
FACE_NAME "lemon"
WEIGHT 10
X_HEIGHT 6
QUAD_WIDTH 5
_ORIGINAL_FONT_NAME "lime"
_GBDFED_INFO "Edited with gbdfed 1.6."
CHARSET_COLLECTIONS "ISO8859-2 ISO8859-5 ISO8859-9 ISO8859-4 ISO10646-1"
DEFAULT_CHAR 52
FONT_DESCENT 8
FONT_ASCENT 32
ENDPROPERTIES
CHARS 2749
STARTCHAR char32
ENCODING 32
SWIDTH 1920 0
DWIDTH 20 0
BBX 0 0 0 0
BITMAP
ENDCHAR
STARTCHAR uni0021
ENCODING 33
SWIDTH 1920 0
DWIDTH 20 0
BBX 4 24 8 0
BITMAP
F0
F0
F0
F0
F0
F0
F0
F0
F0
F0
F0
F0
F0
F0
F0
F0
00
00
00
00
F0
F0
F0
F0
ENDCHAR
STARTCHAR uni0022
ENCODING 34
SWIDTH 1920 0
DWIDTH 20 0
BBX 12 12 4 16
BITMAP
F0F0
F0F0
F0F0
F0F0
F0F0
F0F0
F0F0
F0F0
F0F0
F0F0
F0F0
F0F0
ENDCHAR
STARTCHAR uni0023
ENCODING 35
SWIDTH 1920 0
DWIDTH 20 0
BBX 20 20 0 0
BITMAP
0F0F00
0F0F00
0F0F00
0F0F00
FF0FF0
FF0FF0
FF0FF0
FF0FF0
0F0F00
0F0F00
0F0F00
0F0F00
FF0FF0
FF0FF0
FF0FF0
FF0FF0
0F0F00
0F0F00
0F0F00
0F0F00
ENDCHAR
STARTCHAR uni0053
ENCODING 36
SWIDTH 1920 0
DWIDTH 20 0
BBX 16 28 4 0
BITMAP
00F0
00F0
00F0
00F0
0FFF
0FFF
0FFF
0FFF
F000
F000
F000
F000
0FF0
0FF0
0FF0
0FF0
000F
000F
000F
000F
FFF0
FFF0
FFF0
FFF0
00F0
00F0
00F0
00F0
ENDCHAR
STARTCHAR uni0025
ENCODING 37
SWIDTH 1920 0
DWIDTH 20 0
BBX 16 24 4 0
BITMAP
FF00
FF00
FF00
FF00
FF0F
FF0F
FF0F
FF0F
00F0
00F0
00F0
00F0
0F00
0F00
0F00
0F00
F0FF
F0FF
F0FF
F0FF
00FF
00FF
00FF
00FF
ENDCHAR
STARTCHAR uni0026
ENCODING 38
SWIDTH 1920 0
DWIDTH 20 0
BBX 20 24 0 0
BITMAP
0F0000
0F0000
0F0000
0F0000
F0F000
F0F000
F0F000
F0F000
0F0000
0F0000
0F0000
0F0000
F0F0F0
F0F0F0
F0F0F0
F0F0F0
F00F00
F00F00
F00F00
F00F00
0FF0F0
0FF0F0
0FF0F0
0FF0F0
ENDCHAR
STARTCHAR uni0027
ENCODING 39
SWIDTH 1920 0
DWIDTH 20 0
BBX 4 12 8 16
BITMAP
F0
F0
F0
F0
F0
F0
F0
F0
F0
F0
F0
F0
ENDCHAR
STARTCHAR uni0028
ENCODING 40
SWIDTH 1920 0
DWIDTH 20 0
BBX 12 32 8 -4
BITMAP
00F0
00F0
00F0
00F0
0F00
0F00
0F00
0F00
F000
F000
F000
F000
F000
F000
F000
F000
F000
F000
F000
F000
F000
F000
F000
F000
0F00
0F00
0F00
0F00
00F0
00F0
00F0
00F0
ENDCHAR
STARTCHAR uni0028
ENCODING 41
SWIDTH 1920 0
DWIDTH 20 0
BBX 12 32 8 -4
BITMAP
F000
F000
F000
F000
0F00
0F00
0F00
0F00
00F0
00F0
00F0
00F0
00F0
00F0
00F0
00F0
00F0
00F0
00F0
00F0
00F0
00F0
00F0
00F0
0F00
0F00
0F00
0F00
F000
F000
F000
F000
ENDCHAR
STARTCHAR uni002A
ENCODING 42
SWIDTH 1920 0
DWIDTH 20 0
BBX 16 20 4 0
BITMAP
F00F
F00F
F00F
F00F
0FF0
0FF0
0FF0
0FF0
FFFF
FFFF
FFFF
FFFF
0FF0
0FF0
0FF0
0FF0
F00F
F00F
F00F
F00F
ENDCHAR
STARTCHAR uni002B
ENCODING 43
SWIDTH 1920 0
DWIDTH 20 0
BBX 20 20 0 4
BITMAP
00F000
00F000
00F000
00F000
00F000
00F000
00F000
00F000
FFFFF0
FFFFF0
FFFFF0
FFFFF0
00F000
00F000
00F000
00F000
00F000
00F000
00F000
00F000
ENDCHAR
STARTCHAR uni002C
ENCODING 44
SWIDTH 1920 0
DWIDTH 20 0
BBX 8 12 4 -4
BITMAP
0F
0F
0F
0F
0F
0F
0F
0F
F0
F0
F0
F0
ENDCHAR
STARTCHAR uni002D
ENCODING 45
SWIDTH 1920 0
DWIDTH 20 0
BBX 16 4 4 12
BITMAP
FFFF
FFFF
FFFF
FFFF
ENDCHAR
STARTCHAR uni002E
ENCODING 46
SWIDTH 1920 0
DWIDTH 20 0
BBX 4 8 8 0
BITMAP
F0
F0
F0
F0
F0
F0
F0
F0
ENDCHAR
STARTCHAR uni002F
ENCODING 47
SWIDTH 1920 0
DWIDTH 20 0
BBX 16 32 4 -4
BITMAP
000F
000F
000F
000F
000F
000F
000F
000F
00F0
00F0
00F0
00F0
00F0
00F0
00F0
00F0
0F00
0F00
0F00
0F00
0F00
0F00
0F00
0F00
F000
F000
F000
F000
F000
F000
F000
F000
ENDCHAR
STARTCHAR uni0030
ENCODING 48
SWIDTH 1920 0
DWIDTH 20 0
BBX 16 24 4 0
BITMAP
0FF0
0FF0
0FF0
0FF0
F00F
F00F
F00F
F00F
FF0F
FF0F
FF0F
FF0F
F0FF
F0FF
F0FF
F0FF
F00F
F00F
F00F
F00F
0FF0
0FF0
0FF0
0FF0
ENDCHAR
STARTCHAR uni0031
ENCODING 49
SWIDTH 1920 0
DWIDTH 20 0
BBX 8 24 4 0
BITMAP
0F
0F
0F
0F
FF
FF
FF
FF
0F
0F
0F
0F
0F
0F
0F
0F
0F
0F
0F
0F
0F
0F
0F
0F
ENDCHAR
STARTCHAR uni0032
ENCODING 50
SWIDTH 1920 0
DWIDTH 20 0
BBX 16 24 4 0
BITMAP
FFF0
FFF0
FFF0
FFF0
000F
000F
000F
000F
000F
000F
000F
000F
0FF0
0FF0
0FF0
0FF0
F000
F000
F000
F000
FFFF
FFFF
FFFF
FFFF
ENDCHAR
STARTCHAR uni0033
ENCODING 51
SWIDTH 1920 0
DWIDTH 20 0
BBX 16 24 4 0
BITMAP
FFF0
FFF0
FFF0
FFF0
000F
000F
000F
000F
0FF0
0FF0
0FF0
0FF0
000F
000F
000F
000F
000F
000F
000F
000F
FFF0
FFF0
FFF0
FFF0
ENDCHAR
STARTCHAR uni0034
ENCODING 52
SWIDTH 1920 0
DWIDTH 20 0
BBX 16 24 4 0
BITMAP
F00F
F00F
F00F
F00F
F00F
F00F
F00F
F00F
F00F
F00F
F00F
F00F
0FFF
0FFF
0FFF
0FFF
000F
000F
000F
000F
000F
000F
000F
000F
ENDCHAR
STARTCHAR uni0035
ENCODING 53
SWIDTH 1920 0
DWIDTH 20 0
BBX 16 24 4 0
BITMAP
FFFF
FFFF
FFFF
FFFF
F000
F000
F000
F000
FFF0
FFF0
FFF0
FFF0
000F
000F
000F
000F
000F
000F
000F
000F
FFF0
FFF0
FFF0
FFF0
ENDCHAR
STARTCHAR uni0036
ENCODING 54
SWIDTH 1920 0
DWIDTH 20 0
BBX 16 24 4 0
BITMAP
0FF0
0FF0
0FF0
0FF0
F000
F000
F000
F000
FFF0
FFF0
FFF0
FFF0
F00F
F00F
F00F
F00F
F00F
F00F
F00F
F00F
0FF0
0FF0
0FF0
0FF0
ENDCHAR
STARTCHAR uni0037
ENCODING 55
SWIDTH 1920 0
DWIDTH 20 0
BBX 16 24 4 0
BITMAP
FFFF
FFFF
FFFF
FFFF
000F
000F
000F
000F
00F0
00F0
00F0
00F0
00F0
00F0
00F0
00F0
0F00
0F00
0F00
0F00
0F00
0F00
0F00
0F00
ENDCHAR
STARTCHAR uni0038
ENCODING 56
SWIDTH 1920 0
DWIDTH 20 0
BBX 16 24 4 0
BITMAP
0FF0
0FF0
0FF0
0FF0
F00F
F00F
F00F
F00F
0FF0
0FF0
0FF0
0FF0
F00F
F00F
F00F
F00F
F00F
F00F
F00F
F00F
0FF0
0FF0
0FF0
0FF0
ENDCHAR
STARTCHAR uni0039
ENCODING 57
SWIDTH 1920 0
DWIDTH 20 0
BBX 16 24 4 0
BITMAP
0FF0
0FF0
0FF0
0FF0
F00F
F00F
F00F
F00F
F00F
F00F
F00F
F00F
0FFF
0FFF
0FFF
0FFF
000F
000F
000F
000F
0FF0
0FF0
0FF0
0FF0
ENDCHAR
STARTCHAR uni003A
ENCODING 58
SWIDTH 1920 0
DWIDTH 20 0
BBX 4 20 8 0
BITMAP
F0
F0
F0
F0
F0
F0
F0
F0
00
00
00
00
F0
F0
F0
F0
F0
F0
F0
F0
ENDCHAR
STARTCHAR uni003B
ENCODING 59
SWIDTH 1920 0
DWIDTH 20 0
BBX 8 24 4 -4
BITMAP
0F
0F
0F
0F
0F
0F
0F
0F
00
00
00
00
0F
0F
0F
0F
0F
0F
0F
0F
F0
F0
F0
F0
ENDCHAR
STARTCHAR uni003C
ENCODING 60
SWIDTH 1920 0
DWIDTH 20 0
BBX 12 20 4 0
BITMAP
00F0
00F0
00F0
00F0
0F00
0F00
0F00
0F00
F000
F000
F000
F000
0F00
0F00
0F00
0F00
00F0
00F0
00F0
00F0
ENDCHAR
STARTCHAR uni003D
ENCODING 61
SWIDTH 1920 0
DWIDTH 20 0
BBX 12 12 4 8
BITMAP
FFF0
FFF0
FFF0
FFF0
0000
0000
0000
0000
FFF0
FFF0
FFF0
FFF0
ENDCHAR
STARTCHAR uni003E
ENCODING 62
SWIDTH 1920 0
DWIDTH 20 0
BBX 12 20 8 0
BITMAP
F000
F000
F000
F000
0F00
0F00
0F00
0F00
00F0
00F0
00F0
00F0
0F00
0F00
0F00
0F00
F000
F000
F000
F000
ENDCHAR
STARTCHAR uni003F
ENCODING 63
SWIDTH 1920 0
DWIDTH 20 0
BBX 12 24 4 0
BITMAP
FFF0
FFF0
FFF0
FFF0
F0F0
F0F0
F0F0
F0F0
00F0
00F0
00F0
00F0
0F00
0F00
0F00
0F00
0000
0000
0000
0000
0F00
0F00
0F00
0F00
ENDCHAR
STARTCHAR uni0040
ENCODING 64
SWIDTH 1920 0
DWIDTH 20 0
BBX 16 24 4 0
BITMAP
0FF0
0FF0
0FF0
0FF0
F00F
F00F
F00F
F00F
F0FF
F0FF
F0FF
F0FF
F0FF
F0FF
F0FF
F0FF
F000
F000
F000
F000
0FFF
0FFF
0FFF
0FFF
ENDCHAR
STARTCHAR uni0041
ENCODING 65
SWIDTH 1920 0
DWIDTH 20 0
BBX 16 24 4 0
BITMAP
0FF0
0FF0
0FF0
0FF0
F00F
F00F
F00F
F00F
F00F
F00F
F00F
F00F
FFFF
FFFF
FFFF
FFFF
F00F
F00F
F00F
F00F
F00F
F00F
F00F
F00F
ENDCHAR
STARTCHAR uni0042
ENCODING 66
SWIDTH 1920 0
DWIDTH 20 0
BBX 16 24 4 0
BITMAP
FFF0
FFF0
FFF0
FFF0
F00F
F00F
F00F
F00F
FFF0
FFF0
FFF0
FFF0
F00F
F00F
F00F
F00F
F00F
F00F
F00F
F00F
FFF0
FFF0
FFF0
FFF0
ENDCHAR
STARTCHAR uni0043
ENCODING 67
SWIDTH 1920 0
DWIDTH 20 0
BBX 16 24 4 0
BITMAP
0FFF
0FFF
0FFF
0FFF
F000
F000
F000
F000
F000
F000
F000
F000
F000
F000
F000
F000
F000
F000
F000
F000
0FFF
0FFF
0FFF
0FFF
ENDCHAR
STARTCHAR uni0044
ENCODING 68
SWIDTH 1920 0
DWIDTH 20 0
BBX 16 24 4 0
BITMAP
FFF0
FFF0
FFF0
FFF0
F00F
F00F
F00F
F00F
F00F
F00F
F00F
F00F
F00F
F00F
F00F
F00F
F00F
F00F
F00F
F00F
FFF0
FFF0
FFF0
FFF0
ENDCHAR
STARTCHAR uni0045
ENCODING 69
SWIDTH 1920 0
DWIDTH 20 0
BBX 16 24 4 0
BITMAP
FFFF
FFFF
FFFF
FFFF
F000
F000
F000
F000
FFF0
FFF0
FFF0
FFF0
F000
F000
F000
F000
F000
F000
F000
F000
FFFF
FFFF
FFFF
FFFF
ENDCHAR
STARTCHAR uni0046
ENCODING 70
SWIDTH 1920 0
DWIDTH 20 0
BBX 16 24 4 0
BITMAP
FFFF
FFFF
FFFF
FFFF
F000
F000
F000
F000
FFF0
FFF0
FFF0
FFF0
F000
F000
F000
F000
F000
F000
F000
F000
F000
F000
F000
F000
ENDCHAR
STARTCHAR uni0047
ENCODING 71
SWIDTH 1920 0
DWIDTH 20 0
BBX 16 24 4 0
BITMAP
0FFF
0FFF
0FFF
0FFF
F000
F000
F000
F000
F000
F000
F000
F000
F0FF
F0FF
F0FF
F0FF
F00F
F00F
F00F
F00F
0FFF
0FFF
0FFF
0FFF
ENDCHAR
STARTCHAR uni0048
ENCODING 72
SWIDTH 1920 0
DWIDTH 20 0
BBX 16 24 4 0
BITMAP
F00F
F00F
F00F
F00F
F00F
F00F
F00F
F00F
FFFF
FFFF
FFFF
FFFF
F00F
F00F
F00F
F00F
F00F
F00F
F00F
F00F
F00F
F00F
F00F
F00F
ENDCHAR
STARTCHAR uni0049
ENCODING 73
SWIDTH 1920 0
DWIDTH 20 0
BBX 12 24 4 0
BITMAP
FFF0
FFF0
FFF0
FFF0
0F00
0F00
0F00
0F00
0F00
0F00
0F00
0F00
0F00
0F00
0F00
0F00
0F00
0F00
0F00
0F00
FFF0
FFF0
FFF0
FFF0
ENDCHAR
STARTCHAR uni004A
ENCODING 74
SWIDTH 1920 0
DWIDTH 20 0
BBX 16 24 4 0
BITMAP
0FFF
0FFF
0FFF
0FFF
000F
000F
000F
000F
000F
000F
000F
000F
000F
000F
000F
000F
F00F
F00F
F00F
F00F
0FF0
0FF0
0FF0
0FF0
ENDCHAR
STARTCHAR uni004B
ENCODING 75
SWIDTH 1920 0
DWIDTH 20 0
BBX 16 24 4 0
BITMAP
F00F
F00F
F00F
F00F
F0F0
F0F0
F0F0
F0F0
FF00
FF00
FF00
FF00
F0F0
F0F0
F0F0
F0F0
F00F
F00F
F00F
F00F
F00F
F00F
F00F
F00F
ENDCHAR
STARTCHAR uni004C
ENCODING 76
SWIDTH 1920 0
DWIDTH 20 0
BBX 16 24 4 0
BITMAP
F000
F000
F000
F000
F000
F000
F000
F000
F000
F000
F000
F000
F000
F000
F000
F000
F000
F000
F000
F000
FFFF
FFFF
FFFF
FFFF
ENDCHAR
STARTCHAR uni004D
ENCODING 77
SWIDTH 1920 0
DWIDTH 20 0
BBX 16 24 4 0
BITMAP
F00F
F00F
F00F
F00F
FFFF
FFFF
FFFF
FFFF
FFFF
FFFF
FFFF
FFFF
F00F
F00F
F00F
F00F
F00F
F00F
F00F
F00F
F00F
F00F
F00F
F00F
ENDCHAR
STARTCHAR uni004E
ENCODING 78
SWIDTH 1920 0
DWIDTH 20 0
BBX 16 24 4 0
BITMAP
F00F
F00F
F00F
F00F
FF0F
FF0F
FF0F
FF0F
FF0F
FF0F
FF0F
FF0F
F0FF
F0FF
F0FF
F0FF
F0FF
F0FF
F0FF
F0FF
F00F
F00F
F00F
F00F
ENDCHAR
STARTCHAR uni004F
ENCODING 79
SWIDTH 1920 0
DWIDTH 20 0
BBX 16 24 4 0
BITMAP
0FF0
0FF0
0FF0
0FF0
F00F
F00F
F00F
F00F
F00F
F00F
F00F
F00F
F00F
F00F
F00F
F00F
F00F
F00F
F00F
F00F
0FF0
0FF0
0FF0
0FF0
ENDCHAR
STARTCHAR uni0050
ENCODING 80
SWIDTH 1920 0
DWIDTH 20 0
BBX 16 24 4 0
BITMAP
FFF0
FFF0
FFF0
FFF0
F00F
F00F
F00F
F00F
F00F
F00F
F00F
F00F
FFF0
FFF0
FFF0
FFF0
F000
F000
F000
F000
F000
F000
F000
F000
ENDCHAR
STARTCHAR uni0051
ENCODING 81
SWIDTH 1920 0
DWIDTH 20 0
BBX 16 28 4 -4
BITMAP
0FF0
0FF0
0FF0
0FF0
F00F
F00F
F00F
F00F
F00F
F00F
F00F
F00F
F00F
F00F
F00F
F00F
F00F
F00F
F00F
F00F
0FF0
0FF0
0FF0
0FF0
00FF
00FF
00FF
00FF
ENDCHAR
STARTCHAR uni0052
ENCODING 82
SWIDTH 1920 0
DWIDTH 20 0
BBX 16 24 4 0
BITMAP
FFF0
FFF0
FFF0
FFF0
F00F
F00F
F00F
F00F
F00F
F00F
F00F
F00F
FFF0
FFF0
FFF0
FFF0
F00F
F00F
F00F
F00F
F00F
F00F
F00F
F00F
ENDCHAR
STARTCHAR uni0053
ENCODING 83
SWIDTH 1920 0
DWIDTH 20 0
BBX 16 24 4 0
BITMAP
0FFF
0FFF
0FFF
0FFF
F000
F000
F000
F000
0FF0
0FF0
0FF0
0FF0
000F
000F
000F
000F
000F
000F
000F
000F
FFF0
FFF0
FFF0
FFF0
ENDCHAR
STARTCHAR uni0054
ENCODING 84
SWIDTH 1920 0
DWIDTH 20 0
BBX 20 24 0 0
BITMAP
FFFFF0
FFFFF0
FFFFF0
FFFFF0
00F000
00F000
00F000
00F000
00F000
00F000
00F000
00F000
00F000
00F000
00F000
00F000
00F000
00F000
00F000
00F000
00F000
00F000
00F000
00F000
ENDCHAR
STARTCHAR uni0055
ENCODING 85
SWIDTH 1920 0
DWIDTH 20 0
BBX 16 24 4 0
BITMAP
F00F
F00F
F00F
F00F
F00F
F00F
F00F
F00F
F00F
F00F
F00F
F00F
F00F
F00F
F00F
F00F
F00F
F00F
F00F
F00F
0FFF
0FFF
0FFF
0FFF
ENDCHAR
STARTCHAR uni0056
ENCODING 86
SWIDTH 1920 0
DWIDTH 20 0
BBX 16 24 4 0
BITMAP
F00F
F00F
F00F
F00F
F00F
F00F
F00F
F00F
F00F
F00F
F00F
F00F
0FF0
0FF0
0FF0
0FF0
0FF0
0FF0
0FF0
0FF0
0FF0
0FF0
0FF0
0FF0
ENDCHAR
STARTCHAR uni0057
ENCODING 87
SWIDTH 1920 0
DWIDTH 20 0
BBX 16 24 4 0
BITMAP
F00F
F00F
F00F
F00F
F00F
F00F
F00F
F00F
F00F
F00F
F00F
F00F
FFFF
FFFF
FFFF
FFFF
FFFF
FFFF
FFFF
FFFF
F00F
F00F
F00F
F00F
ENDCHAR
STARTCHAR uni0058
ENCODING 88
SWIDTH 1920 0
DWIDTH 20 0
BBX 16 24 4 0
BITMAP
F00F
F00F
F00F
F00F
F00F
F00F
F00F
F00F
0FF0
0FF0
0FF0
0FF0
F00F
F00F
F00F
F00F
F00F
F00F
F00F
F00F
F00F
F00F
F00F
F00F
ENDCHAR
STARTCHAR uni0059
ENCODING 89
SWIDTH 1920 0
DWIDTH 20 0
BBX 20 24 0 0
BITMAP
F000F0
F000F0
F000F0
F000F0
0F0F00
0F0F00
0F0F00
0F0F00
00F000
00F000
00F000
00F000
00F000
00F000
00F000
00F000
00F000
00F000
00F000
00F000
00F000
00F000
00F000
00F000
ENDCHAR
STARTCHAR uni005A
ENCODING 90
SWIDTH 1920 0
DWIDTH 20 0
BBX 16 24 4 0
BITMAP
FFFF
FFFF
FFFF
FFFF
000F
000F
000F
000F
00F0
00F0
00F0
00F0
0F00
0F00
0F00
0F00
F000
F000
F000
F000
FFFF
FFFF
FFFF
FFFF
ENDCHAR
STARTCHAR uni005B
ENCODING 91
SWIDTH 1920 0
DWIDTH 20 0
BBX 12 32 4 -4
BITMAP
FFF0
FFF0
FFF0
FFF0
F000
F000
F000
F000
F000
F000
F000
F000
F000
F000
F000
F000
F000
F000
F000
F000
F000
F000
F000
F000
F000
F000
F000
F000
FFF0
FFF0
FFF0
FFF0
ENDCHAR
STARTCHAR uni005C
ENCODING 92
SWIDTH 1920 0
DWIDTH 20 0
BBX 16 32 4 -4
BITMAP
F000
F000
F000
F000
F000
F000
F000
F000
0F00
0F00
0F00
0F00
0F00
0F00
0F00
0F00
00F0
00F0
00F0
00F0
00F0
00F0
00F0
00F0
000F
000F
000F
000F
000F
000F
000F
000F
ENDCHAR
STARTCHAR uni005D
ENCODING 93
SWIDTH 1920 0
DWIDTH 20 0
BBX 12 32 4 -4
BITMAP
FFF0
FFF0
FFF0
FFF0
00F0
00F0
00F0
00F0
00F0
00F0
00F0
00F0
00F0
00F0
00F0
00F0
00F0
00F0
00F0
00F0
00F0
00F0
00F0
00F0
00F0
00F0
00F0
00F0
FFF0
FFF0
FFF0
FFF0
ENDCHAR
STARTCHAR uni005E
ENCODING 94
SWIDTH 1920 0
DWIDTH 20 0
BBX 20 12 0 16
BITMAP
00F000
00F000
00F000
00F000
0F0F00
0F0F00
0F0F00
0F0F00
F000F0
F000F0
F000F0
F000F0
ENDCHAR
STARTCHAR uni005F
ENCODING 95
SWIDTH 1920 0
DWIDTH 20 0
BBX 16 4 4 -4
BITMAP
FFFF
FFFF
FFFF
FFFF
ENDCHAR
STARTCHAR uni0060
ENCODING 96
SWIDTH 1920 0
DWIDTH 20 0
BBX 8 12 8 16
BITMAP
F0
F0
F0
F0
F0
F0
F0
F0
0F
0F
0F
0F
ENDCHAR
STARTCHAR uni0061
ENCODING 97
SWIDTH 1920 0
DWIDTH 20 0
BBX 16 20 4 0
BITMAP
0FFF
0FFF
0FFF
0FFF
F00F
F00F
F00F
F00F
F00F
F00F
F00F
F00F
F0FF
F0FF
F0FF
F0FF
0F0F
0F0F
0F0F
0F0F
ENDCHAR
STARTCHAR uni0062
ENCODING 98
SWIDTH 1920 0
DWIDTH 20 0
BBX 16 28 4 0
BITMAP
F000
F000
F000
F000
F000
F000
F000
F000
FFF0
FFF0
FFF0
FFF0
F00F
F00F
F00F
F00F
F00F
F00F
F00F
F00F
F00F
F00F
F00F
F00F
FFF0
FFF0
FFF0
FFF0
ENDCHAR
STARTCHAR uni0063
ENCODING 99
SWIDTH 1920 0
DWIDTH 20 0
BBX 16 20 4 0
BITMAP
0FFF
0FFF
0FFF
0FFF
F000
F000
F000
F000
F000
F000
F000
F000
F000
F000
F000
F000
0FFF
0FFF
0FFF
0FFF
ENDCHAR
STARTCHAR uni0064
ENCODING 100
SWIDTH 1920 0
DWIDTH 20 0
BBX 16 28 4 0
BITMAP
000F
000F
000F
000F
000F
000F
000F
000F
0FFF
0FFF
0FFF
0FFF
F00F
F00F
F00F
F00F
F00F
F00F
F00F
F00F
F0FF
F0FF
F0FF
F0FF
0F0F
0F0F
0F0F
0F0F
ENDCHAR
STARTCHAR uni0065
ENCODING 101
SWIDTH 1920 0
DWIDTH 20 0
BBX 16 20 4 0
BITMAP
0FF0
0FF0
0FF0
0FF0
F00F
F00F
F00F
F00F
FFFF
FFFF
FFFF
FFFF
F000
F000
F000
F000
0FFF
0FFF
0FFF
0FFF
ENDCHAR
STARTCHAR uni0066
ENCODING 102
SWIDTH 1920 0
DWIDTH 20 0
BBX 12 28 8 0
BITMAP
0FF0
0FF0
0FF0
0FF0
F000
F000
F000
F000
FFF0
FFF0
FFF0
FFF0
F000
F000
F000
F000
F000
F000
F000
F000
F000
F000
F000
F000
F000
F000
F000
F000
ENDCHAR
STARTCHAR uni0067
ENCODING 103
SWIDTH 1920 0
DWIDTH 20 0
BBX 16 28 4 -8
BITMAP
0FFF
0FFF
0FFF
0FFF
F00F
F00F
F00F
F00F
F00F
F00F
F00F
F00F
F0FF
F0FF
F0FF
F0FF
0F0F
0F0F
0F0F
0F0F
000F
000F
000F
000F
0FF0
0FF0
0FF0
0FF0
ENDCHAR
STARTCHAR uni0068
ENCODING 104
SWIDTH 1920 0
DWIDTH 20 0
BBX 16 28 4 0
BITMAP
F000
F000
F000
F000
F000
F000
F000
F000
FFF0
FFF0
FFF0
FFF0
F00F
F00F
F00F
F00F
F00F
F00F
F00F
F00F
F00F
F00F
F00F
F00F
F00F
F00F
F00F
F00F
ENDCHAR
STARTCHAR uni0069
ENCODING 105
SWIDTH 1920 0
DWIDTH 20 0
BBX 8 28 8 0
BITMAP
0F
0F
0F
0F
00
00
00
00
FF
FF
FF
FF
0F
0F
0F
0F
0F
0F
0F
0F
0F
0F
0F
0F
0F
0F
0F
0F
ENDCHAR
STARTCHAR uni006A
ENCODING 106
SWIDTH 1920 0
DWIDTH 20 0
BBX 12 36 4 -8
BITMAP
00F0
00F0
00F0
00F0
0000
0000
0000
0000
0FF0
0FF0
0FF0
0FF0
00F0
00F0
00F0
00F0
00F0
00F0
00F0
00F0
00F0
00F0
00F0
00F0
00F0
00F0
00F0
00F0
00F0
00F0
00F0
00F0
FF00
FF00
FF00
FF00
ENDCHAR
STARTCHAR uni006B
ENCODING 107
SWIDTH 1920 0
DWIDTH 20 0
BBX 16 28 4 0
BITMAP
F000
F000
F000
F000
F000
F000
F000
F000
F00F
F00F
F00F
F00F
F0F0
F0F0
F0F0
F0F0
FFF0
FFF0
FFF0
FFF0
F00F
F00F
F00F
F00F
F00F
F00F
F00F
F00F
ENDCHAR
STARTCHAR uni006C
ENCODING 108
SWIDTH 1920 0
DWIDTH 20 0
BBX 8 28 8 0
BITMAP
FF
FF
FF
FF
0F
0F
0F
0F
0F
0F
0F
0F
0F
0F
0F
0F
0F
0F
0F
0F
0F
0F
0F
0F
0F
0F
0F
0F
ENDCHAR
STARTCHAR uni006D
ENCODING 109
SWIDTH 1920 0
DWIDTH 20 0
BBX 16 20 4 0
BITMAP
F00F
F00F
F00F
F00F
FFFF
FFFF
FFFF
FFFF
F0FF
F0FF
F0FF
F0FF
F00F
F00F
F00F
F00F
F00F
F00F
F00F
F00F
ENDCHAR
STARTCHAR uni006E
ENCODING 110
SWIDTH 1920 0
DWIDTH 20 0
BBX 16 20 4 0
BITMAP
FFF0
FFF0
FFF0
FFF0
F00F
F00F
F00F
F00F
F00F
F00F
F00F
F00F
F00F
F00F
F00F
F00F
F00F
F00F
F00F
F00F
ENDCHAR
STARTCHAR uni006F
ENCODING 111
SWIDTH 1920 0
DWIDTH 20 0
BBX 16 20 4 0
BITMAP
0FF0
0FF0
0FF0
0FF0
F00F
F00F
F00F
F00F
F00F
F00F
F00F
F00F
F00F
F00F
F00F
F00F
0FF0
0FF0
0FF0
0FF0
ENDCHAR
STARTCHAR uni0070
ENCODING 112
SWIDTH 1920 0
DWIDTH 20 0
BBX 16 28 4 -8
BITMAP
FFF0
FFF0
FFF0
FFF0
F00F
F00F
F00F
F00F
F00F
F00F
F00F
F00F
F00F
F00F
F00F
F00F
FFF0
FFF0
FFF0
FFF0
F000
F000
F000
F000
F000
F000
F000
F000
ENDCHAR
STARTCHAR uni0071
ENCODING 113
SWIDTH 1920 0
DWIDTH 20 0
BBX 16 28 4 -8
BITMAP
0FFF
0FFF
0FFF
0FFF
F00F
F00F
F00F
F00F
F00F
F00F
F00F
F00F
F00F
F00F
F00F
F00F
0FFF
0FFF
0FFF
0FFF
000F
000F
000F
000F
000F
000F
000F
000F
ENDCHAR
STARTCHAR uni0072
ENCODING 114
SWIDTH 1920 0
DWIDTH 20 0
BBX 16 20 4 0
BITMAP
F0FF
F0FF
F0FF
F0FF
FF00
FF00
FF00
FF00
F000
F000
F000
F000
F000
F000
F000
F000
F000
F000
F000
F000
ENDCHAR
STARTCHAR uni0073
ENCODING 115
SWIDTH 1920 0
DWIDTH 20 0
BBX 16 20 4 0
BITMAP
0FFF
0FFF
0FFF
0FFF
F000
F000
F000
F000
0FF0
0FF0
0FF0
0FF0
000F
000F
000F
000F
FFF0
FFF0
FFF0
FFF0
ENDCHAR
STARTCHAR uni0074
ENCODING 116
SWIDTH 1920 0
DWIDTH 20 0
BBX 12 24 4 0
BITMAP
0F00
0F00
0F00
0F00
FFF0
FFF0
FFF0
FFF0
0F00
0F00
0F00
0F00
0F00
0F00
0F00
0F00
0F00
0F00
0F00
0F00
00F0
00F0
00F0
00F0
ENDCHAR
STARTCHAR uni0075
ENCODING 117
SWIDTH 1920 0
DWIDTH 20 0
BBX 16 20 4 0
BITMAP
F00F
F00F
F00F
F00F
F00F
F00F
F00F
F00F
F00F
F00F
F00F
F00F
F00F
F00F
F00F
F00F
0FFF
0FFF
0FFF
0FFF
ENDCHAR
STARTCHAR uni0076
ENCODING 118
SWIDTH 1920 0
DWIDTH 20 0
BBX 16 20 4 0
BITMAP
F00F
F00F
F00F
F00F
F00F
F00F
F00F
F00F
F00F
F00F
F00F
F00F
0FF0
0FF0
0FF0
0FF0
0FF0
0FF0
0FF0
0FF0
ENDCHAR
STARTCHAR uni0077
ENCODING 119
SWIDTH 1920 0
DWIDTH 20 0
BBX 16 20 4 0
BITMAP
F00F
F00F
F00F
F00F
F00F
F00F
F00F
F00F
F00F
F00F
F00F
F00F
FFFF
FFFF
FFFF
FFFF
F00F
F00F
F00F
F00F
ENDCHAR
STARTCHAR uni0078
ENCODING 120
SWIDTH 1920 0
DWIDTH 20 0
BBX 16 20 4 0
BITMAP
F00F
F00F
F00F
F00F
F00F
F00F
F00F
F00F
0FF0
0FF0
0FF0
0FF0
F00F
F00F
F00F
F00F
F00F
F00F
F00F
F00F
ENDCHAR
STARTCHAR uni0079
ENCODING 121
SWIDTH 1920 0
DWIDTH 20 0
BBX 16 28 4 -8
BITMAP
F00F
F00F
F00F
F00F
F00F
F00F
F00F
F00F
F00F
F00F
F00F
F00F
F00F
F00F
F00F
F00F
0FFF
0FFF
0FFF
0FFF
000F
000F
000F
000F
0FF0
0FF0
0FF0
0FF0
ENDCHAR
STARTCHAR uni007A
ENCODING 122
SWIDTH 1920 0
DWIDTH 20 0
BBX 16 20 4 0
BITMAP
FFFF
FFFF
FFFF
FFFF
00F0
00F0
00F0
00F0
0F00
0F00
0F00
0F00
F000
F000
F000
F000
FFFF
FFFF
FFFF
FFFF
ENDCHAR
STARTCHAR uni007B
ENCODING 123
SWIDTH 1920 0
DWIDTH 20 0
BBX 12 32 4 -4
BITMAP
00F0
00F0
00F0
00F0
0F00
0F00
0F00
0F00
0F00
0F00
0F00
0F00
FF00
FF00
FF00
FF00
FF00
FF00
FF00
FF00
0F00
0F00
0F00
0F00
0F00
0F00
0F00
0F00
00F0
00F0
00F0
00F0
ENDCHAR
STARTCHAR uni007C
ENCODING 124
SWIDTH 1920 0
DWIDTH 20 0
BBX 4 32 8 -4
BITMAP
F0
F0
F0
F0
F0
F0
F0
F0
F0
F0
F0
F0
F0
F0
F0
F0
F0
F0
F0
F0
F0
F0
F0
F0
F0
F0
F0
F0
F0
F0
F0
F0
ENDCHAR
STARTCHAR uni007D
ENCODING 125
SWIDTH 1920 0
DWIDTH 20 0
BBX 12 32 8 -4
BITMAP
F000
F000
F000
F000
0F00
0F00
0F00
0F00
0F00
0F00
0F00
0F00
0FF0
0FF0
0FF0
0FF0
0FF0
0FF0
0FF0
0FF0
0F00
0F00
0F00
0F00
0F00
0F00
0F00
0F00
F000
F000
F000
F000
ENDCHAR
STARTCHAR uni007E
ENCODING 126
SWIDTH 1920 0
DWIDTH 20 0
BBX 20 16 0 4
BITMAP
0F0000
0F0000
0F0000
0F0000
F0F0F0
F0F0F0
F0F0F0
F0F0F0
F0F0F0
F0F0F0
F0F0F0
F0F0F0
000F00
000F00
000F00
000F00
ENDCHAR
STARTCHAR char149
ENCODING 149
SWIDTH 1920 0
DWIDTH 20 0
BBX 16 16 4 0
BITMAP
0FF0
0FF0
0FF0
0FF0
FFFF
FFFF
FFFF
FFFF
FFFF
FFFF
FFFF
FFFF
0FF0
0FF0
0FF0
0FF0
ENDCHAR
STARTCHAR char161
ENCODING 161
SWIDTH 1920 0
DWIDTH 20 0
BBX 4 24 8 0
BITMAP
F0
F0
F0
F0
00
00
00
00
F0
F0
F0
F0
F0
F0
F0
F0
F0
F0
F0
F0
F0
F0
F0
F0
ENDCHAR
STARTCHAR char162
ENCODING 162
SWIDTH 1920 0
DWIDTH 20 0
BBX 16 28 0 -4
BITMAP
000F
000F
000F
000F
0FFF
0FFF
0FFF
0FFF
F0F0
F0F0
F0F0
F0F0
F0F0
F0F0
F0F0
F0F0
F0F0
F0F0
F0F0
F0F0
0FFF
0FFF
0FFF
0FFF
0F00
0F00
0F00
0F00
ENDCHAR
STARTCHAR char163
ENCODING 163
SWIDTH 1920 0
DWIDTH 20 0
BBX 20 28 0 0
BITMAP
00FF00
00FF00
00FF00
00FF00
0F0000
0F0000
0F0000
0F0000
0F0000
0F0000
0F0000
0F0000
FFF000
FFF000
FFF000
FFF000
0F0000
0F0000
0F0000
0F0000
0F00F0
0F00F0
0F00F0
0F00F0
FFFF00
FFFF00
FFFF00
FFFF00
ENDCHAR
STARTCHAR char164
ENCODING 164
SWIDTH 1920 0
DWIDTH 20 0
BBX 20 24 0 0
BITMAP
F000F0
F000F0
F000F0
F000F0
0FFF00
0FFF00
0FFF00
0FFF00
0F0F00
0F0F00
0F0F00
0F0F00
0F0F00
0F0F00
0F0F00
0F0F00
0FFF00
0FFF00
0FFF00
0FFF00
F000F0
F000F0
F000F0
F000F0
ENDCHAR
STARTCHAR char165
ENCODING 165
SWIDTH 1920 0
DWIDTH 20 0
BBX 20 28 0 0
BITMAP
F000F0
F000F0
F000F0
F000F0
0F0F00
0F0F00
0F0F00
0F0F00
00F000
00F000
00F000
00F000
0FFF00
0FFF00
0FFF00
0FFF00
00F000
00F000
00F000
00F000
0FFF00
0FFF00
0FFF00
0FFF00
00F000
00F000
00F000
00F000
ENDCHAR
STARTCHAR char166
ENCODING 166
SWIDTH 1920 0
DWIDTH 20 0
BBX 4 28 8 -4
BITMAP
F0
F0
F0
F0
F0
F0
F0
F0
F0
F0
F0
F0
00
00
00
00
F0
F0
F0
F0
F0
F0
F0
F0
F0
F0
F0
F0
ENDCHAR
STARTCHAR char167
ENCODING 167
SWIDTH 1920 0
DWIDTH 20 0
BBX 16 32 0 -4
BITMAP
00FF
00FF
00FF
00FF
0F00
0F00
0F00
0F00
0FF0
0FF0
0FF0
0FF0
F00F
F00F
F00F
F00F
F00F
F00F
F00F
F00F
0FF0
0FF0
0FF0
0FF0
00F0
00F0
00F0
00F0
FF00
FF00
FF00
FF00
ENDCHAR
STARTCHAR char168
ENCODING 168
SWIDTH 1920 0
DWIDTH 20 0
BBX 12 4 4 20
BITMAP
FFF0
FFF0
FFF0
FFF0
ENDCHAR
STARTCHAR char169
ENCODING 169
SWIDTH 1920 0
DWIDTH 20 0
BBX 24 28 0 0
BITMAP
0FFFF0
0FFFF0
0FFFF0
0FFFF0
F0000F
F0000F
F0000F
F0000F
F0FF0F
F0FF0F
F0FF0F
F0FF0F
F0F00F
F0F00F
F0F00F
F0F00F
F0FF0F
F0FF0F
F0FF0F
F0FF0F
F0000F
F0000F
F0000F
F0000F
0FFFF0
0FFFF0
0FFFF0
0FFFF0
ENDCHAR
STARTCHAR char170
ENCODING 170
SWIDTH 1920 0
DWIDTH 20 0
BBX 16 16 4 8
BITMAP
0FFF
0FFF
0FFF
0FFF
F00F
F00F
F00F
F00F
F00F
F00F
F00F
F00F
0FFF
0FFF
0FFF
0FFF
ENDCHAR
STARTCHAR char171
ENCODING 171
SWIDTH 1920 0
DWIDTH 20 0
BBX 16 12 4 8
BITMAP
0F0F
0F0F
0F0F
0F0F
F0F0
F0F0
F0F0
F0F0
0F0F
0F0F
0F0F
0F0F
ENDCHAR
STARTCHAR char172
ENCODING 172
SWIDTH 1920 0
DWIDTH 20 0
BBX 20 12 0 4
BITMAP
FFFFF0
FFFFF0
FFFFF0
FFFFF0
0000F0
0000F0
0000F0
0000F0
0000F0
0000F0
0000F0
0000F0
ENDCHAR
STARTCHAR SOFT
ENCODING 173
SWIDTH 1920 0
DWIDTH 20 0
BBX 12 4 4 8
BITMAP
FFF0
FFF0
FFF0
FFF0
ENDCHAR
STARTCHAR char174
ENCODING 174
SWIDTH 1920 0
DWIDTH 20 0
BBX 24 28 0 0
BITMAP
0FFFF0
0FFFF0
0FFFF0
0FFFF0
F0000F
F0000F
F0000F
F0000F
F0FFFF
F0FFFF
F0FFFF
F0FFFF
F0FF0F
F0FF0F
F0FF0F
F0FF0F
F0F0FF
F0F0FF
F0F0FF
F0F0FF
F0000F
F0000F
F0000F
F0000F
0FFFF0
0FFFF0
0FFFF0
0FFFF0
ENDCHAR
STARTCHAR char175
ENCODING 175
SWIDTH 1920 0
DWIDTH 20 0
BBX 12 4 4 24
BITMAP
FFF0
FFF0
FFF0
FFF0
ENDCHAR
STARTCHAR char176
ENCODING 176
SWIDTH 1920 0
DWIDTH 20 0
BBX 12 12 4 12
BITMAP
0F00
0F00
0F00
0F00
F0F0
F0F0
F0F0
F0F0
0F00
0F00
0F00
0F00
ENDCHAR
STARTCHAR char177
ENCODING 177
SWIDTH 1920 0
DWIDTH 20 0
BBX 12 20 4 0
BITMAP
0F00
0F00
0F00
0F00
FFF0
FFF0
FFF0
FFF0
0F00
0F00
0F00
0F00
0000
0000
0000
0000
FFF0
FFF0
FFF0
FFF0
ENDCHAR
STARTCHAR char178
ENCODING 178
SWIDTH 1920 0
DWIDTH 20 0
BBX 12 20 4 8
BITMAP
FF00
FF00
FF00
FF00
00F0
00F0
00F0
00F0
0F00
0F00
0F00
0F00
F000
F000
F000
F000
FFF0
FFF0
FFF0
FFF0
ENDCHAR
STARTCHAR char179
ENCODING 179
SWIDTH 1920 0
DWIDTH 20 0
BBX 12 20 4 8
BITMAP
FF00
FF00
FF00
FF00
00F0
00F0
00F0
00F0
FF00
FF00
FF00
FF00
00F0
00F0
00F0
00F0
FF00
FF00
FF00
FF00
ENDCHAR
STARTCHAR char180
ENCODING 180
SWIDTH 1920 0
DWIDTH 20 0
BBX 8 8 4 24
BITMAP
0F
0F
0F
0F
F0
F0
F0
F0
ENDCHAR
STARTCHAR char181
ENCODING 181
SWIDTH 1920 0
DWIDTH 20 0
BBX 16 24 4 -4
BITMAP
F00F
F00F
F00F
F00F
F00F
F00F
F00F
F00F
F00F
F00F
F00F
F00F
F00F
F00F
F00F
F00F
FFF0
FFF0
FFF0
FFF0
F000
F000
F000
F000
ENDCHAR
STARTCHAR char182
ENCODING 182
SWIDTH 1920 0
DWIDTH 20 0
BBX 20 24 0 0
BITMAP
0FFFF0
0FFFF0
0FFFF0
0FFFF0
F0F0F0
F0F0F0
F0F0F0
F0F0F0
F0F0F0
F0F0F0
F0F0F0
F0F0F0
0FF0F0
0FF0F0
0FF0F0
0FF0F0
00F0F0
00F0F0
00F0F0
00F0F0
00F0F0
00F0F0
00F0F0
00F0F0
ENDCHAR
STARTCHAR char183
ENCODING 183
SWIDTH 1920 0
DWIDTH 20 0
BBX 8 8 8 8
BITMAP
FF
FF
FF
FF
FF
FF
FF
FF
ENDCHAR
STARTCHAR char184
ENCODING 184
SWIDTH 1920 0
DWIDTH 20 0
BBX 12 12 4 4
BITMAP
0F00
0F00
0F00
0F00
00F0
00F0
00F0
00F0
FFF0
FFF0
FFF0
FFF0
ENDCHAR
STARTCHAR char185
ENCODING 185
SWIDTH 1920 0
DWIDTH 20 0
BBX 8 16 4 8
BITMAP
0F
0F
0F
0F
FF
FF
FF
FF
0F
0F
0F
0F
0F
0F
0F
0F
ENDCHAR
STARTCHAR char186
ENCODING 186
SWIDTH 1920 0
DWIDTH 20 0
BBX 16 16 0 16
BITMAP
0FF0
0FF0
0FF0
0FF0
F00F
F00F
F00F
F00F
F00F
F00F
F00F
F00F
0FF0
0FF0
0FF0
0FF0
ENDCHAR
STARTCHAR char187
ENCODING 187
SWIDTH 1920 0
DWIDTH 20 0
BBX 16 12 4 8
BITMAP
F0F0
F0F0
F0F0
F0F0
0F0F
0F0F
0F0F
0F0F
F0F0
F0F0
F0F0
F0F0
ENDCHAR
STARTCHAR char188
ENCODING 188
SWIDTH 1920 0
DWIDTH 20 0
BBX 20 32 4 0
BITMAP
0F0000
0F0000
0F0000
0F0000
FF0000
FF0000
FF0000
FF0000
0F0000
0F0000
0F0000
0F0000
0F0F00
0F0F00
0F0F00
0F0F00
00FF00
00FF00
00FF00
00FF00
0F0F00
0F0F00
0F0F00
0F0F00
0FFFF0
0FFFF0
0FFFF0
0FFFF0
000F00
000F00
000F00
000F00
ENDCHAR
STARTCHAR char189
ENCODING 189
SWIDTH 1920 0
DWIDTH 20 0
BBX 20 28 4 4
BITMAP
0F0000
0F0000
0F0000
0F0000
FF0000
FF0000
FF0000
FF0000
0F0000
0F0000
0F0000
0F0000
0FFF00
0FFF00
0FFF00
0FFF00
0000F0
0000F0
0000F0
0000F0
000F00
000F00
000F00
000F00
00FFF0
00FFF0
00FFF0
00FFF0
ENDCHAR
STARTCHAR char190
ENCODING 190
SWIDTH 1920 0
DWIDTH 20 0
BBX 24 32 0 0
BITMAP
FF0000
FF0000
FF0000
FF0000
00F000
00F000
00F000
00F000
0F0000
0F0000
0F0000
0F0000
00F0F0
00F0F0
00F0F0
00F0F0
FF0FF0
FF0FF0
FF0FF0
FF0FF0
00F0F0
00F0F0
00F0F0
00F0F0
00FFFF
00FFFF
00FFFF
00FFFF
0000F0
0000F0
0000F0
0000F0
ENDCHAR
STARTCHAR char191
ENCODING 191
SWIDTH 1920 0
DWIDTH 20 0
BBX 12 24 8 0
BITMAP
0F00
0F00
0F00
0F00
0000
0000
0000
0000
0F00
0F00
0F00
0F00
F000
F000
F000
F000
F0F0
F0F0
F0F0
F0F0
FFF0
FFF0
FFF0
FFF0
ENDCHAR
STARTCHAR char192
ENCODING 192
SWIDTH 1920 0
DWIDTH 20 0
BBX 16 32 4 0
BITMAP
0F00
0F00
0F00
0F00
00F0
00F0
00F0
00F0
0FF0
0FF0
0FF0
0FF0
F00F
F00F
F00F
F00F
F00F
F00F
F00F
F00F
FFFF
FFFF
FFFF
FFFF
F00F
F00F
F00F
F00F
F00F
F00F
F00F
F00F
ENDCHAR
STARTCHAR char193
ENCODING 193
SWIDTH 1920 0
DWIDTH 20 0
BBX 16 32 4 0
BITMAP
00F0
00F0
00F0
00F0
0F00
0F00
0F00
0F00
0FF0
0FF0
0FF0
0FF0
F00F
F00F
F00F
F00F
F00F
F00F
F00F
F00F
FFFF
FFFF
FFFF
FFFF
F00F
F00F
F00F
F00F
F00F
F00F
F00F
F00F
ENDCHAR
STARTCHAR char194
ENCODING 194
SWIDTH 1920 0
DWIDTH 20 0
BBX 16 36 4 0
BITMAP
00F0
00F0
00F0
00F0
0F0F
0F0F
0F0F
0F0F
0000
0000
0000
0000
0FF0
0FF0
0FF0
0FF0
F00F
F00F
F00F
F00F
F00F
F00F
F00F
F00F
FFFF
FFFF
FFFF
FFFF
F00F
F00F
F00F
F00F
F00F
F00F
F00F
F00F
ENDCHAR
STARTCHAR char195
ENCODING 195
SWIDTH 1920 0
DWIDTH 20 0
BBX 16 32 4 0
BITMAP
0F0F
0F0F
0F0F
0F0F
F0F0
F0F0
F0F0
F0F0
0FF0
0FF0
0FF0
0FF0
F00F
F00F
F00F
F00F
F00F
F00F
F00F
F00F
FFFF
FFFF
FFFF
FFFF
F00F
F00F
F00F
F00F
F00F
F00F
F00F
F00F
ENDCHAR
STARTCHAR char196
ENCODING 196
SWIDTH 1920 0
DWIDTH 20 0
BBX 16 32 4 0
BITMAP
F00F
F00F
F00F
F00F
0000
0000
0000
0000
0FF0
0FF0
0FF0
0FF0
F00F
F00F
F00F
F00F
F00F
F00F
F00F
F00F
FFFF
FFFF
FFFF
FFFF
F00F
F00F
F00F
F00F
F00F
F00F
F00F
F00F
ENDCHAR
STARTCHAR char197
ENCODING 197
SWIDTH 1920 0
DWIDTH 20 0
BBX 16 32 4 0
BITMAP
0FF0
0FF0
0FF0
0FF0
F00F
F00F
F00F
F00F
0FF0
0FF0
0FF0
0FF0
F00F
F00F
F00F
F00F
F00F
F00F
F00F
F00F
FFFF
FFFF
FFFF
FFFF
F00F
F00F
F00F
F00F
F00F
F00F
F00F
F00F
ENDCHAR
STARTCHAR char198
ENCODING 198
SWIDTH 1920 0
DWIDTH 20 0
BBX 24 24 0 0
BITMAP
0FFFFF
0FFFFF
0FFFFF
0FFFFF
F00F00
F00F00
F00F00
F00F00
F00FF0
F00FF0
F00FF0
F00FF0
FFFF00
FFFF00
FFFF00
FFFF00
F00F00
F00F00
F00F00
F00F00
F00FFF
F00FFF
F00FFF
F00FFF
ENDCHAR
STARTCHAR char199
ENCODING 199
SWIDTH 1920 0
DWIDTH 20 0
BBX 16 32 0 -8
BITMAP
0FFF
0FFF
0FFF
0FFF
F000
F000
F000
F000
F000
F000
F000
F000
F000
F000
F000
F000
F000
F000
F000
F000
0FFF
0FFF
0FFF
0FFF
00F0
00F0
00F0
00F0
0F00
0F00
0F00
0F00
ENDCHAR
STARTCHAR char200
ENCODING 200
SWIDTH 1920 0
DWIDTH 20 0
BBX 16 32 4 0
BITMAP
0F00
0F00
0F00
0F00
00F0
00F0
00F0
00F0
FFFF
FFFF
FFFF
FFFF
F000
F000
F000
F000
FFF0
FFF0
FFF0
FFF0
F000
F000
F000
F000
F000
F000
F000
F000
FFFF
FFFF
FFFF
FFFF
ENDCHAR
STARTCHAR char201
ENCODING 201
SWIDTH 1920 0
DWIDTH 20 0
BBX 16 32 4 0
BITMAP
00F0
00F0
00F0
00F0
0F00
0F00
0F00
0F00
FFFF
FFFF
FFFF
FFFF
F000
F000
F000
F000
FFF0
FFF0
FFF0
FFF0
F000
F000
F000
F000
F000
F000
F000
F000
FFFF
FFFF
FFFF
FFFF
ENDCHAR
STARTCHAR char202
ENCODING 202
SWIDTH 1920 0
DWIDTH 20 0
BBX 16 32 4 0
BITMAP
0F00
0F00
0F00
0F00
F0F0
F0F0
F0F0
F0F0
FFFF
FFFF
FFFF
FFFF
F000
F000
F000
F000
FFF0
FFF0
FFF0
FFF0
F000
F000
F000
F000
F000
F000
F000
F000
FFFF
FFFF
FFFF
FFFF
ENDCHAR
STARTCHAR char203
ENCODING 203
SWIDTH 1920 0
DWIDTH 20 0
BBX 16 32 4 0
BITMAP
F0F0
F0F0
F0F0
F0F0
0000
0000
0000
0000
FFFF
FFFF
FFFF
FFFF
F000
F000
F000
F000
FFF0
FFF0
FFF0
FFF0
F000
F000
F000
F000
F000
F000
F000
F000
FFFF
FFFF
FFFF
FFFF
ENDCHAR
STARTCHAR char204
ENCODING 204
SWIDTH 1920 0
DWIDTH 20 0
BBX 12 36 4 0
BITMAP
F000
F000
F000
F000
0F00
0F00
0F00
0F00
0000
0000
0000
0000
FFF0
FFF0
FFF0
FFF0
0F00
0F00
0F00
0F00
0F00
0F00
0F00
0F00
0F00
0F00
0F00
0F00
0F00
0F00
0F00
0F00
FFF0
FFF0
FFF0
FFF0
ENDCHAR
STARTCHAR char205
ENCODING 205
SWIDTH 1920 0
DWIDTH 20 0
BBX 12 36 4 0
BITMAP
00F0
00F0
00F0
00F0
0F00
0F00
0F00
0F00
0000
0000
0000
0000
FFF0
FFF0
FFF0
FFF0
0F00
0F00
0F00
0F00
0F00
0F00
0F00
0F00
0F00
0F00
0F00
0F00
0F00
0F00
0F00
0F00
FFF0
FFF0
FFF0
FFF0
ENDCHAR
STARTCHAR char206
ENCODING 206
SWIDTH 1920 0
DWIDTH 20 0
BBX 12 36 4 0
BITMAP
0F00
0F00
0F00
0F00
F0F0
F0F0
F0F0
F0F0
0000
0000
0000
0000
FFF0
FFF0
FFF0
FFF0
0F00
0F00
0F00
0F00
0F00
0F00
0F00
0F00
0F00
0F00
0F00
0F00
0F00
0F00
0F00
0F00
FFF0
FFF0
FFF0
FFF0
ENDCHAR
STARTCHAR char207
ENCODING 207
SWIDTH 1920 0
DWIDTH 20 0
BBX 12 32 4 0
BITMAP
F0F0
F0F0
F0F0
F0F0
0000
0000
0000
0000
FFF0
FFF0
FFF0
FFF0
0F00
0F00
0F00
0F00
0F00
0F00
0F00
0F00
0F00
0F00
0F00
0F00
0F00
0F00
0F00
0F00
FFF0
FFF0
FFF0
FFF0
ENDCHAR
STARTCHAR char208
ENCODING 208
SWIDTH 1920 0
DWIDTH 20 0
BBX 20 24 0 0
BITMAP
0FFF00
0FFF00
0FFF00
0FFF00
0F00F0
0F00F0
0F00F0
0F00F0
FFF0F0
FFF0F0
FFF0F0
FFF0F0
0F00F0
0F00F0
0F00F0
0F00F0
0F00F0
0F00F0
0F00F0
0F00F0
0FFF00
0FFF00
0FFF00
0FFF00
ENDCHAR
STARTCHAR char209
ENCODING 209
SWIDTH 1920 0
DWIDTH 20 0
BBX 16 32 4 0
BITMAP
0F0F
0F0F
0F0F
0F0F
F0F0
F0F0
F0F0
F0F0
0000
0000
0000
0000
FFF0
FFF0
FFF0
FFF0
F00F
F00F
F00F
F00F
F00F
F00F
F00F
F00F
F00F
F00F
F00F
F00F
F00F
F00F
F00F
F00F
ENDCHAR
STARTCHAR char210
ENCODING 210
SWIDTH 1920 0
DWIDTH 20 0
BBX 16 32 4 0
BITMAP
F000
F000
F000
F000
0F00
0F00
0F00
0F00
0000
0000
0000
0000
0FF0
0FF0
0FF0
0FF0
F00F
F00F
F00F
F00F
F00F
F00F
F00F
F00F
F00F
F00F
F00F
F00F
0FF0
0FF0
0FF0
0FF0
ENDCHAR
STARTCHAR char211
ENCODING 211
SWIDTH 1920 0
DWIDTH 20 0
BBX 16 32 4 0
BITMAP
00F0
00F0
00F0
00F0
0F00
0F00
0F00
0F00
0000
0000
0000
0000
0FF0
0FF0
0FF0
0FF0
F00F
F00F
F00F
F00F
F00F
F00F
F00F
F00F
F00F
F00F
F00F
F00F
0FF0
0FF0
0FF0
0FF0
ENDCHAR
STARTCHAR char212
ENCODING 212
SWIDTH 1920 0
DWIDTH 20 0
BBX 16 32 4 0
BITMAP
0F00
0F00
0F00
0F00
F0F0
F0F0
F0F0
F0F0
0000
0000
0000
0000
0FF0
0FF0
0FF0
0FF0
F00F
F00F
F00F
F00F
F00F
F00F
F00F
F00F
F00F
F00F
F00F
F00F
0FF0
0FF0
0FF0
0FF0
ENDCHAR
STARTCHAR char213
ENCODING 213
SWIDTH 1920 0
DWIDTH 20 0
BBX 16 32 4 0
BITMAP
0F0F
0F0F
0F0F
0F0F
F0F0
F0F0
F0F0
F0F0
0000
0000
0000
0000
0FF0
0FF0
0FF0
0FF0
F00F
F00F
F00F
F00F
F00F
F00F
F00F
F00F
F00F
F00F
F00F
F00F
0FF0
0FF0
0FF0
0FF0
ENDCHAR
STARTCHAR char214
ENCODING 214
SWIDTH 1920 0
DWIDTH 20 0
BBX 16 28 4 0
BITMAP
F00F
F00F
F00F
F00F
0000
0000
0000
0000
0FF0
0FF0
0FF0
0FF0
F00F
F00F
F00F
F00F
F00F
F00F
F00F
F00F
F00F
F00F
F00F
F00F
0FF0
0FF0
0FF0
0FF0
ENDCHAR
STARTCHAR char215
ENCODING 215
SWIDTH 1920 0
DWIDTH 20 0
BBX 12 12 4 8
BITMAP
F0F0
F0F0
F0F0
F0F0
0F00
0F00
0F00
0F00
F0F0
F0F0
F0F0
F0F0
ENDCHAR
STARTCHAR char216
ENCODING 216
SWIDTH 1920 0
DWIDTH 20 0
BBX 24 24 0 0
BITMAP
00FF0F
00FF0F
00FF0F
00FF0F
0F0FF0
0F0FF0
0F0FF0
0F0FF0
0F0FF0
0F0FF0
0F0FF0
0F0FF0
0FF0F0
0FF0F0
0FF0F0
0FF0F0
0FF0F0
0FF0F0
0FF0F0
0FF0F0
F0FF00
F0FF00
F0FF00
F0FF00
ENDCHAR
STARTCHAR char217
ENCODING 217
SWIDTH 1920 0
DWIDTH 20 0
BBX 16 32 4 0
BITMAP
F000
F000
F000
F000
0F00
0F00
0F00
0F00
F00F
F00F
F00F
F00F
F00F
F00F
F00F
F00F
F00F
F00F
F00F
F00F
F00F
F00F
F00F
F00F
F00F
F00F
F00F
F00F
0FFF
0FFF
0FFF
0FFF
ENDCHAR
STARTCHAR char218
ENCODING 218
SWIDTH 1920 0
DWIDTH 20 0
BBX 16 32 4 0
BITMAP
000F
000F
000F
000F
00F0
00F0
00F0
00F0
F00F
F00F
F00F
F00F
F00F
F00F
F00F
F00F
F00F
F00F
F00F
F00F
F00F
F00F
F00F
F00F
F00F
F00F
F00F
F00F
0FFF
0FFF
0FFF
0FFF
ENDCHAR
STARTCHAR char219
ENCODING 219
SWIDTH 1920 0
DWIDTH 20 0
BBX 16 36 4 0
BITMAP
00F0
00F0
00F0
00F0
0F0F
0F0F
0F0F
0F0F
0000
0000
0000
0000
F00F
F00F
F00F
F00F
F00F
F00F
F00F
F00F
F00F
F00F
F00F
F00F
F00F
F00F
F00F
F00F
F00F
F00F
F00F
F00F
0FFF
0FFF
0FFF
0FFF
ENDCHAR
STARTCHAR char220
ENCODING 220
SWIDTH 1920 0
DWIDTH 20 0
BBX 16 32 4 0
BITMAP
0F0F
0F0F
0F0F
0F0F
0000
0000
0000
0000
F00F
F00F
F00F
F00F
F00F
F00F
F00F
F00F
F00F
F00F
F00F
F00F
F00F
F00F
F00F
F00F
F00F
F00F
F00F
F00F
0FFF
0FFF
0FFF
0FFF
ENDCHAR
STARTCHAR char221
ENCODING 221
SWIDTH 1920 0
DWIDTH 20 0
BBX 20 32 0 0
BITMAP
000F00
000F00
000F00
000F00
00F000
00F000
00F000
00F000
F000F0
F000F0
F000F0
F000F0
0F0F00
0F0F00
0F0F00
0F0F00
00F000
00F000
00F000
00F000
00F000
00F000
00F000
00F000
00F000
00F000
00F000
00F000
00F000
00F000
00F000
00F000
ENDCHAR
STARTCHAR char222
ENCODING 222
SWIDTH 1920 0
DWIDTH 20 0
BBX 16 28 4 -4
BITMAP
F000
F000
F000
F000
F000
F000
F000
F000
FFF0
FFF0
FFF0
FFF0
F00F
F00F
F00F
F00F
F00F
F00F
F00F
F00F
FFF0
FFF0
FFF0
FFF0
F000
F000
F000
F000
ENDCHAR
STARTCHAR char223
ENCODING 223
SWIDTH 1920 0
DWIDTH 20 0
BBX 16 28 4 -4
BITMAP
0FF0
0FF0
0FF0
0FF0
F00F
F00F
F00F
F00F
F0F0
F0F0
F0F0
F0F0
F00F
F00F
F00F
F00F
F00F
F00F
F00F
F00F
F0F0
F0F0
F0F0
F0F0
F000
F000
F000
F000
ENDCHAR
STARTCHAR char224
ENCODING 224
SWIDTH 1920 0
DWIDTH 20 0
BBX 16 32 4 0
BITMAP
F000
F000
F000
F000
0F00
0F00
0F00
0F00
0000
0000
0000
0000
0FFF
0FFF
0FFF
0FFF
F00F
F00F
F00F
F00F
F00F
F00F
F00F
F00F
F0FF
F0FF
F0FF
F0FF
0F0F
0F0F
0F0F
0F0F
ENDCHAR
STARTCHAR char225
ENCODING 225
SWIDTH 1920 0
DWIDTH 20 0
BBX 16 32 4 0
BITMAP
00F0
00F0
00F0
00F0
0F00
0F00
0F00
0F00
0000
0000
0000
0000
0FFF
0FFF
0FFF
0FFF
F00F
F00F
F00F
F00F
F00F
F00F
F00F
F00F
F0FF
F0FF
F0FF
F0FF
0F0F
0F0F
0F0F
0F0F
ENDCHAR
STARTCHAR char226
ENCODING 226
SWIDTH 1920 0
DWIDTH 20 0
BBX 16 32 4 0
BITMAP
0F00
0F00
0F00
0F00
F0F0
F0F0
F0F0
F0F0
0000
0000
0000
0000
0FFF
0FFF
0FFF
0FFF
F00F
F00F
F00F
F00F
F00F
F00F
F00F
F00F
F0FF
F0FF
F0FF
F0FF
0F0F
0F0F
0F0F
0F0F
ENDCHAR
STARTCHAR char227
ENCODING 227
SWIDTH 1920 0
DWIDTH 20 0
BBX 16 32 4 0
BITMAP
0F0F
0F0F
0F0F
0F0F
F0F0
F0F0
F0F0
F0F0
0000
0000
0000
0000
0FFF
0FFF
0FFF
0FFF
F00F
F00F
F00F
F00F
F00F
F00F
F00F
F00F
F0FF
F0FF
F0FF
F0FF
0F0F
0F0F
0F0F
0F0F
ENDCHAR
STARTCHAR char228
ENCODING 228
SWIDTH 1920 0
DWIDTH 20 0
BBX 16 28 4 0
BITMAP
F00F
F00F
F00F
F00F
0000
0000
0000
0000
0FFF
0FFF
0FFF
0FFF
F00F
F00F
F00F
F00F
F00F
F00F
F00F
F00F
F0FF
F0FF
F0FF
F0FF
0F0F
0F0F
0F0F
0F0F
ENDCHAR
STARTCHAR char229
ENCODING 229
SWIDTH 1920 0
DWIDTH 20 0
BBX 16 28 4 0
BITMAP
00F0
00F0
00F0
00F0
0000
0000
0000
0000
0FFF
0FFF
0FFF
0FFF
F00F
F00F
F00F
F00F
F00F
F00F
F00F
F00F
F0FF
F0FF
F0FF
F0FF
0F0F
0F0F
0F0F
0F0F
ENDCHAR
STARTCHAR char230
ENCODING 230
SWIDTH 1920 0
DWIDTH 20 0
BBX 20 20 4 0
BITMAP
0FFF00
0FFF00
0FFF00
0FFF00
F0F0F0
F0F0F0
F0F0F0
F0F0F0
F0FFF0
F0FFF0
F0FFF0
F0FFF0
F0F000
F0F000
F0F000
F0F000
0F0FF0
0F0FF0
0F0FF0
0F0FF0
ENDCHAR
STARTCHAR char231
ENCODING 231
SWIDTH 1920 0
DWIDTH 20 0
BBX 16 28 4 -8
BITMAP
0FFF
0FFF
0FFF
0FFF
F000
F000
F000
F000
F000
F000
F000
F000
F000
F000
F000
F000
0FFF
0FFF
0FFF
0FFF
00F0
00F0
00F0
00F0
0F00
0F00
0F00
0F00
ENDCHAR
STARTCHAR char232
ENCODING 232
SWIDTH 1920 0
DWIDTH 20 0
BBX 16 32 4 0
BITMAP
F000
F000
F000
F000
0F00
0F00
0F00
0F00
0000
0000
0000
0000
0FF0
0FF0
0FF0
0FF0
F00F
F00F
F00F
F00F
FFFF
FFFF
FFFF
FFFF
F000
F000
F000
F000
0FFF
0FFF
0FFF
0FFF
ENDCHAR
STARTCHAR char233
ENCODING 233
SWIDTH 1920 0
DWIDTH 20 0
BBX 16 32 4 0
BITMAP
00F0
00F0
00F0
00F0
0F00
0F00
0F00
0F00
0000
0000
0000
0000
0FF0
0FF0
0FF0
0FF0
F00F
F00F
F00F
F00F
FFFF
FFFF
FFFF
FFFF
F000
F000
F000
F000
0FFF
0FFF
0FFF
0FFF
ENDCHAR
STARTCHAR char234
ENCODING 234
SWIDTH 1920 0
DWIDTH 20 0
BBX 16 32 4 0
BITMAP
0F00
0F00
0F00
0F00
F0F0
F0F0
F0F0
F0F0
0000
0000
0000
0000
0FF0
0FF0
0FF0
0FF0
F00F
F00F
F00F
F00F
FFFF
FFFF
FFFF
FFFF
F000
F000
F000
F000
0FFF
0FFF
0FFF
0FFF
ENDCHAR
STARTCHAR char235
ENCODING 235
SWIDTH 1920 0
DWIDTH 20 0
BBX 16 28 4 0
BITMAP
F0F0
F0F0
F0F0
F0F0
0000
0000
0000
0000
0FF0
0FF0
0FF0
0FF0
F00F
F00F
F00F
F00F
FFFF
FFFF
FFFF
FFFF
F000
F000
F000
F000
0FFF
0FFF
0FFF
0FFF
ENDCHAR
STARTCHAR char236
ENCODING 236
SWIDTH 1920 0
DWIDTH 20 0
BBX 8 32 8 0
BITMAP
F0
F0
F0
F0
0F
0F
0F
0F
00
00
00
00
FF
FF
FF
FF
0F
0F
0F
0F
0F
0F
0F
0F
0F
0F
0F
0F
0F
0F
0F
0F
ENDCHAR
STARTCHAR char237
ENCODING 237
SWIDTH 1920 0
DWIDTH 20 0
BBX 12 32 8 0
BITMAP
00F0
00F0
00F0
00F0
0F00
0F00
0F00
0F00
0000
0000
0000
0000
FF00
FF00
FF00
FF00
0F00
0F00
0F00
0F00
0F00
0F00
0F00
0F00
0F00
0F00
0F00
0F00
0F00
0F00
0F00
0F00
ENDCHAR
STARTCHAR char238
ENCODING 238
SWIDTH 1920 0
DWIDTH 20 0
BBX 12 32 8 0
BITMAP
0F00
0F00
0F00
0F00
F0F0
F0F0
F0F0
F0F0
0000
0000
0000
0000
FF00
FF00
FF00
FF00
0F00
0F00
0F00
0F00
0F00
0F00
0F00
0F00
0F00
0F00
0F00
0F00
0F00
0F00
0F00
0F00
ENDCHAR
STARTCHAR char239
ENCODING 239
SWIDTH 1920 0
DWIDTH 20 0
BBX 12 28 8 0
BITMAP
F0F0
F0F0
F0F0
F0F0
0000
0000
0000
0000
FF00
FF00
FF00
FF00
0F00
0F00
0F00
0F00
0F00
0F00
0F00
0F00
0F00
0F00
0F00
0F00
0F00
0F00
0F00
0F00
ENDCHAR
STARTCHAR char240
ENCODING 240
SWIDTH 1920 0
DWIDTH 20 0
BBX 16 32 4 0
BITMAP
F0F0
F0F0
F0F0
F0F0
0FF0
0FF0
0FF0
0FF0
F00F
F00F
F00F
F00F
0FFF
0FFF
0FFF
0FFF
F00F
F00F
F00F
F00F
F00F
F00F
F00F
F00F
F00F
F00F
F00F
F00F
0FF0
0FF0
0FF0
0FF0
ENDCHAR
STARTCHAR char241
ENCODING 241
SWIDTH 1920 0
DWIDTH 20 0
BBX 16 32 4 0
BITMAP
0F0F
0F0F
0F0F
0F0F
F0F0
F0F0
F0F0
F0F0
0000
0000
0000
0000
FFF0
FFF0
FFF0
FFF0
F00F
F00F
F00F
F00F
F00F
F00F
F00F
F00F
F00F
F00F
F00F
F00F
F00F
F00F
F00F
F00F
ENDCHAR
STARTCHAR char242
ENCODING 242
SWIDTH 1920 0
DWIDTH 20 0
BBX 16 32 4 0
BITMAP
F000
F000
F000
F000
0F00
0F00
0F00
0F00
0000
0000
0000
0000
0FF0
0FF0
0FF0
0FF0
F00F
F00F
F00F
F00F
F00F
F00F
F00F
F00F
F00F
F00F
F00F
F00F
0FF0
0FF0
0FF0
0FF0
ENDCHAR
STARTCHAR char243
ENCODING 243
SWIDTH 1920 0
DWIDTH 20 0
BBX 16 32 4 0
BITMAP
000F
000F
000F
000F
00F0
00F0
00F0
00F0
0000
0000
0000
0000
0FF0
0FF0
0FF0
0FF0
F00F
F00F
F00F
F00F
F00F
F00F
F00F
F00F
F00F
F00F
F00F
F00F
0FF0
0FF0
0FF0
0FF0
ENDCHAR
STARTCHAR char244
ENCODING 244
SWIDTH 1920 0
DWIDTH 20 0
BBX 16 32 4 0
BITMAP
0F00
0F00
0F00
0F00
F0F0
F0F0
F0F0
F0F0
0000
0000
0000
0000
0FF0
0FF0
0FF0
0FF0
F00F
F00F
F00F
F00F
F00F
F00F
F00F
F00F
F00F
F00F
F00F
F00F
0FF0
0FF0
0FF0
0FF0
ENDCHAR
STARTCHAR char245
ENCODING 245
SWIDTH 1920 0
DWIDTH 20 0
BBX 16 32 4 0
BITMAP
0F0F
0F0F
0F0F
0F0F
F0F0
F0F0
F0F0
F0F0
0000
0000
0000
0000
0FF0
0FF0
0FF0
0FF0
F00F
F00F
F00F
F00F
F00F
F00F
F00F
F00F
F00F
F00F
F00F
F00F
0FF0
0FF0
0FF0
0FF0
ENDCHAR
STARTCHAR char246
ENCODING 246
SWIDTH 1920 0
DWIDTH 20 0
BBX 16 28 4 0
BITMAP
F00F
F00F
F00F
F00F
0000
0000
0000
0000
0FF0
0FF0
0FF0
0FF0
F00F
F00F
F00F
F00F
F00F
F00F
F00F
F00F
F00F
F00F
F00F
F00F
0FF0
0FF0
0FF0
0FF0
ENDCHAR
STARTCHAR char247
ENCODING 247
SWIDTH 1920 0
DWIDTH 20 0
BBX 20 20 0 4
BITMAP
00F000
00F000
00F000
00F000
000000
000000
000000
000000
FFFFF0
FFFFF0
FFFFF0
FFFFF0
000000
000000
000000
000000
00F000
00F000
00F000
00F000
ENDCHAR
STARTCHAR char248
ENCODING 248
SWIDTH 1920 0
DWIDTH 20 0
BBX 24 20 0 0
BITMAP
00FF0F
00FF0F
00FF0F
00FF0F
0F0FF0
0F0FF0
0F0FF0
0F0FF0
0FFFF0
0FFFF0
0FFFF0
0FFFF0
0FF0F0
0FF0F0
0FF0F0
0FF0F0
F0FF00
F0FF00
F0FF00
F0FF00
ENDCHAR
STARTCHAR char249
ENCODING 249
SWIDTH 1920 0
DWIDTH 20 0
BBX 16 32 4 0
BITMAP
F000
F000
F000
F000
0F00
0F00
0F00
0F00
0000
0000
0000
0000
F00F
F00F
F00F
F00F
F00F
F00F
F00F
F00F
F00F
F00F
F00F
F00F
F00F
F00F
F00F
F00F
0FFF
0FFF
0FFF
0FFF
ENDCHAR
STARTCHAR char250
ENCODING 250
SWIDTH 1920 0
DWIDTH 20 0
BBX 16 32 4 0
BITMAP
00F0
00F0
00F0
00F0
0F00
0F00
0F00
0F00
0000
0000
0000
0000
F00F
F00F
F00F
F00F
F00F
F00F
F00F
F00F
F00F
F00F
F00F
F00F
F00F
F00F
F00F
F00F
0FFF
0FFF
0FFF
0FFF
ENDCHAR
STARTCHAR char251
ENCODING 251
SWIDTH 1920 0
DWIDTH 20 0
BBX 16 32 4 0
BITMAP
0F00
0F00
0F00
0F00
F0F0
F0F0
F0F0
F0F0
0000
0000
0000
0000
F00F
F00F
F00F
F00F
F00F
F00F
F00F
F00F
F00F
F00F
F00F
F00F
F00F
F00F
F00F
F00F
0FFF
0FFF
0FFF
0FFF
ENDCHAR
STARTCHAR char252
ENCODING 252
SWIDTH 1920 0
DWIDTH 20 0
BBX 16 28 4 0
BITMAP
F0F0
F0F0
F0F0
F0F0
0000
0000
0000
0000
F00F
F00F
F00F
F00F
F00F
F00F
F00F
F00F
F00F
F00F
F00F
F00F
F00F
F00F
F00F
F00F
0FFF
0FFF
0FFF
0FFF
ENDCHAR
STARTCHAR char253
ENCODING 253
SWIDTH 1920 0
DWIDTH 20 0
BBX 16 40 4 -8
BITMAP
00F0
00F0
00F0
00F0
0F00
0F00
0F00
0F00
0000
0000
0000
0000
F00F
F00F
F00F
F00F
F00F
F00F
F00F
F00F
F00F
F00F
F00F
F00F
F00F
F00F
F00F
F00F
0FFF
0FFF
0FFF
0FFF
000F
000F
000F
000F
0FF0
0FF0
0FF0
0FF0
ENDCHAR
STARTCHAR char254
ENCODING 254
SWIDTH 1920 0
DWIDTH 20 0
BBX 16 36 4 -8
BITMAP
F000
F000
F000
F000
F000
F000
F000
F000
FFF0
FFF0
FFF0
FFF0
F00F
F00F
F00F
F00F
F00F
F00F
F00F
F00F
F00F
F00F
F00F
F00F
FFF0
FFF0
FFF0
FFF0
F000
F000
F000
F000
F000
F000
F000
F000
ENDCHAR
STARTCHAR char255
ENCODING 255
SWIDTH 1920 0
DWIDTH 20 0
BBX 16 36 4 -8
BITMAP
0F0F
0F0F
0F0F
0F0F
0000
0000
0000
0000
F00F
F00F
F00F
F00F
F00F
F00F
F00F
F00F
F00F
F00F
F00F
F00F
F00F
F00F
F00F
F00F
0FFF
0FFF
0FFF
0FFF
000F
000F
000F
000F
0FF0
0FF0
0FF0
0FF0
ENDCHAR
STARTCHAR $5240
ENCODING 256
SWIDTH 1920 0
DWIDTH 20 0
BBX 16 32 4 0
BITMAP
FFFF
FFFF
FFFF
FFFF
0000
0000
0000
0000
0FF0
0FF0
0FF0
0FF0
F00F
F00F
F00F
F00F
F00F
F00F
F00F
F00F
FFFF
FFFF
FFFF
FFFF
F00F
F00F
F00F
F00F
F00F
F00F
F00F
F00F
ENDCHAR
STARTCHAR char480
ENCODING 257
SWIDTH 1920 0
DWIDTH 20 0
BBX 16 28 4 0
BITMAP
FFFF
FFFF
FFFF
FFFF
0000
0000
0000
0000
0FFF
0FFF
0FFF
0FFF
F00F
F00F
F00F
F00F
F00F
F00F
F00F
F00F
F0FF
F0FF
F0FF
F0FF
0F0F
0F0F
0F0F
0F0F
ENDCHAR
STARTCHAR char480
ENCODING 258
SWIDTH 1920 0
DWIDTH 20 0
BBX 16 36 4 0
BITMAP
F00F
F00F
F00F
F00F
0FF0
0FF0
0FF0
0FF0
0000
0000
0000
0000
0FF0
0FF0
0FF0
0FF0
F00F
F00F
F00F
F00F
F00F
F00F
F00F
F00F
FFFF
FFFF
FFFF
FFFF
F00F
F00F
F00F
F00F
F00F
F00F
F00F
F00F
ENDCHAR
STARTCHAR char480
ENCODING 259
SWIDTH 1920 0
DWIDTH 20 0
BBX 16 32 4 0
BITMAP
F00F
F00F
F00F
F00F
0FF0
0FF0
0FF0
0FF0
0000
0000
0000
0000
0FFF
0FFF
0FFF
0FFF
F00F
F00F
F00F
F00F
F00F
F00F
F00F
F00F
F0FF
F0FF
F0FF
F0FF
0F0F
0F0F
0F0F
0F0F
ENDCHAR
STARTCHAR char480
ENCODING 260
SWIDTH 1920 0
DWIDTH 20 0
BBX 20 28 4 -4
BITMAP
0FF000
0FF000
0FF000
0FF000
F00F00
F00F00
F00F00
F00F00
F00F00
F00F00
F00F00
F00F00
FFFF00
FFFF00
FFFF00
FFFF00
F00F00
F00F00
F00F00
F00F00
F00F00
F00F00
F00F00
F00F00
0000F0
0000F0
0000F0
0000F0
ENDCHAR
STARTCHAR char480
ENCODING 261
SWIDTH 1920 0
DWIDTH 20 0
BBX 20 24 4 -4
BITMAP
0FFF00
0FFF00
0FFF00
0FFF00
F00F00
F00F00
F00F00
F00F00
F00F00
F00F00
F00F00
F00F00
F0FF00
F0FF00
F0FF00
F0FF00
0F0F00
0F0F00
0F0F00
0F0F00
0000F0
0000F0
0000F0
0000F0
ENDCHAR
STARTCHAR char480
ENCODING 262
SWIDTH 1920 0
DWIDTH 20 0
BBX 16 36 4 0
BITMAP
00F0
00F0
00F0
00F0
0F00
0F00
0F00
0F00
0000
0000
0000
0000
0FFF
0FFF
0FFF
0FFF
F000
F000
F000
F000
F000
F000
F000
F000
F000
F000
F000
F000
F000
F000
F000
F000
0FFF
0FFF
0FFF
0FFF
ENDCHAR
STARTCHAR char960
ENCODING 263
SWIDTH 1920 0
DWIDTH 20 0
BBX 16 32 4 0
BITMAP
00F0
00F0
00F0
00F0
0F00
0F00
0F00
0F00
0000
0000
0000
0000
0FFF
0FFF
0FFF
0FFF
F000
F000
F000
F000
F000
F000
F000
F000
F000
F000
F000
F000
0FFF
0FFF
0FFF
0FFF
ENDCHAR
STARTCHAR uni0043
ENCODING 264
SWIDTH 1920 0
DWIDTH 20 0
BBX 16 36 4 0
BITMAP
00F0
00F0
00F0
00F0
0F0F
0F0F
0F0F
0F0F
0000
0000
0000
0000
0FFF
0FFF
0FFF
0FFF
F000
F000
F000
F000
F000
F000
F000
F000
F000
F000
F000
F000
F000
F000
F000
F000
0FFF
0FFF
0FFF
0FFF
ENDCHAR
STARTCHAR uni0063
ENCODING 265
SWIDTH 1920 0
DWIDTH 20 0
BBX 16 32 4 0
BITMAP
00F0
00F0
00F0
00F0
0F0F
0F0F
0F0F
0F0F
0000
0000
0000
0000
0FFF
0FFF
0FFF
0FFF
F000
F000
F000
F000
F000
F000
F000
F000
F000
F000
F000
F000
0FFF
0FFF
0FFF
0FFF
ENDCHAR
STARTCHAR uni0043
ENCODING 266
SWIDTH 1920 0
DWIDTH 20 0
BBX 16 32 4 0
BITMAP
00F0
00F0
00F0
00F0
0000
0000
0000
0000
0FFF
0FFF
0FFF
0FFF
F000
F000
F000
F000
F000
F000
F000
F000
F000
F000
F000
F000
F000
F000
F000
F000
0FFF
0FFF
0FFF
0FFF
ENDCHAR
STARTCHAR uni0063
ENCODING 267
SWIDTH 1920 0
DWIDTH 20 0
BBX 16 28 4 0
BITMAP
00F0
00F0
00F0
00F0
0000
0000
0000
0000
0FFF
0FFF
0FFF
0FFF
F000
F000
F000
F000
F000
F000
F000
F000
F000
F000
F000
F000
0FFF
0FFF
0FFF
0FFF
ENDCHAR
STARTCHAR uni0043
ENCODING 268
SWIDTH 1920 0
DWIDTH 20 0
BBX 16 36 4 0
BITMAP
0F0F
0F0F
0F0F
0F0F
00F0
00F0
00F0
00F0
0000
0000
0000
0000
0FFF
0FFF
0FFF
0FFF
F000
F000
F000
F000
F000
F000
F000
F000
F000
F000
F000
F000
F000
F000
F000
F000
0FFF
0FFF
0FFF
0FFF
ENDCHAR
STARTCHAR uni0063
ENCODING 269
SWIDTH 1920 0
DWIDTH 20 0
BBX 16 32 4 0
BITMAP
0F0F
0F0F
0F0F
0F0F
00F0
00F0
00F0
00F0
0000
0000
0000
0000
0FFF
0FFF
0FFF
0FFF
F000
F000
F000
F000
F000
F000
F000
F000
F000
F000
F000
F000
0FFF
0FFF
0FFF
0FFF
ENDCHAR
STARTCHAR uni0044
ENCODING 270
SWIDTH 1920 0
DWIDTH 20 0
BBX 16 36 4 0
BITMAP
F0F0
F0F0
F0F0
F0F0
0F00
0F00
0F00
0F00
0000
0000
0000
0000
FFF0
FFF0
FFF0
FFF0
F00F
F00F
F00F
F00F
F00F
F00F
F00F
F00F
F00F
F00F
F00F
F00F
F00F
F00F
F00F
F00F
FFF0
FFF0
FFF0
FFF0
ENDCHAR
STARTCHAR uni0064
ENCODING 271
SWIDTH 1920 0
DWIDTH 20 0
BBX 24 32 4 0
BITMAP
00000F
00000F
00000F
00000F
000F0F
000F0F
000F0F
000F0F
000FF0
000FF0
000FF0
000FF0
0FFF00
0FFF00
0FFF00
0FFF00
F00F00
F00F00
F00F00
F00F00
F00F00
F00F00
F00F00
F00F00
F0FF00
F0FF00
F0FF00
F0FF00
0F0F00
0F0F00
0F0F00
0F0F00
ENDCHAR
STARTCHAR uni0044
ENCODING 272
SWIDTH 1920 0
DWIDTH 20 0
BBX 20 24 0 0
BITMAP
0FFF00
0FFF00
0FFF00
0FFF00
0F00F0
0F00F0
0F00F0
0F00F0
FFF0F0
FFF0F0
FFF0F0
FFF0F0
0F00F0
0F00F0
0F00F0
0F00F0
0F00F0
0F00F0
0F00F0
0F00F0
0FFF00
0FFF00
0FFF00
0FFF00
ENDCHAR
STARTCHAR uni0064
ENCODING 273
SWIDTH 1920 0
DWIDTH 20 0
BBX 20 28 4 0
BITMAP
00FFF0
00FFF0
00FFF0
00FFF0
000F00
000F00
000F00
000F00
0FFF00
0FFF00
0FFF00
0FFF00
F00F00
F00F00
F00F00
F00F00
F00F00
F00F00
F00F00
F00F00
F0FF00
F0FF00
F0FF00
F0FF00
0F0F00
0F0F00
0F0F00
0F0F00
ENDCHAR
STARTCHAR uni0045
ENCODING 274
SWIDTH 1920 0
DWIDTH 20 0
BBX 16 32 4 0
BITMAP
0FF0
0FF0
0FF0
0FF0
0000
0000
0000
0000
FFFF
FFFF
FFFF
FFFF
F000
F000
F000
F000
FFF0
FFF0
FFF0
FFF0
F000
F000
F000
F000
F000
F000
F000
F000
FFFF
FFFF
FFFF
FFFF
ENDCHAR
STARTCHAR uni0065
ENCODING 275
SWIDTH 1920 0
DWIDTH 20 0
BBX 16 28 4 0
BITMAP
FFFF
FFFF
FFFF
FFFF
0000
0000
0000
0000
0FF0
0FF0
0FF0
0FF0
F00F
F00F
F00F
F00F
FFFF
FFFF
FFFF
FFFF
F000
F000
F000
F000
0FFF
0FFF
0FFF
0FFF
ENDCHAR
STARTCHAR uni0045
ENCODING 276
SWIDTH 1920 0
DWIDTH 20 0
BBX 16 36 4 0
BITMAP
F00F
F00F
F00F
F00F
0FF0
0FF0
0FF0
0FF0
0000
0000
0000
0000
FFFF
FFFF
FFFF
FFFF
F000
F000
F000
F000
FFF0
FFF0
FFF0
FFF0
F000
F000
F000
F000
F000
F000
F000
F000
FFFF
FFFF
FFFF
FFFF
ENDCHAR
STARTCHAR uni0065
ENCODING 277
SWIDTH 1920 0
DWIDTH 20 0
BBX 16 32 4 0
BITMAP
F00F
F00F
F00F
F00F
0FF0
0FF0
0FF0
0FF0
0000
0000
0000
0000
0FF0
0FF0
0FF0
0FF0
F00F
F00F
F00F
F00F
FFFF
FFFF
FFFF
FFFF
F000
F000
F000
F000
0FFF
0FFF
0FFF
0FFF
ENDCHAR
STARTCHAR uni0045
ENCODING 278
SWIDTH 1920 0
DWIDTH 20 0
BBX 16 32 4 0
BITMAP
0F00
0F00
0F00
0F00
0000
0000
0000
0000
FFFF
FFFF
FFFF
FFFF
F000
F000
F000
F000
FFF0
FFF0
FFF0
FFF0
F000
F000
F000
F000
F000
F000
F000
F000
FFFF
FFFF
FFFF
FFFF
ENDCHAR
STARTCHAR uni0065
ENCODING 279
SWIDTH 1920 0
DWIDTH 20 0
BBX 16 28 4 0
BITMAP
0F00
0F00
0F00
0F00
0000
0000
0000
0000
0FF0
0FF0
0FF0
0FF0
F00F
F00F
F00F
F00F
FFFF
FFFF
FFFF
FFFF
F000
F000
F000
F000
0FFF
0FFF
0FFF
0FFF
ENDCHAR
STARTCHAR uni0045
ENCODING 280
SWIDTH 1920 0
DWIDTH 20 0
BBX 20 28 4 -4
BITMAP
FFFF00
FFFF00
FFFF00
FFFF00
F00000
F00000
F00000
F00000
FFF000
FFF000
FFF000
FFF000
F00000
F00000
F00000
F00000
F00000
F00000
F00000
F00000
FFFF00
FFFF00
FFFF00
FFFF00
0000F0
0000F0
0000F0
0000F0
ENDCHAR
STARTCHAR uni0065
ENCODING 281
SWIDTH 1920 0
DWIDTH 20 0
BBX 16 24 4 -4
BITMAP
0FF0
0FF0
0FF0
0FF0
F00F
F00F
F00F
F00F
FFFF
FFFF
FFFF
FFFF
F000
F000
F000
F000
0FF0
0FF0
0FF0
0FF0
000F
000F
000F
000F
ENDCHAR
STARTCHAR uni0045
ENCODING 282
SWIDTH 1920 0
DWIDTH 20 0
BBX 16 36 4 0
BITMAP
F0F0
F0F0
F0F0
F0F0
0F00
0F00
0F00
0F00
0000
0000
0000
0000
FFFF
FFFF
FFFF
FFFF
F000
F000
F000
F000
FFF0
FFF0
FFF0
FFF0
F000
F000
F000
F000
F000
F000
F000
F000
FFFF
FFFF
FFFF
FFFF
ENDCHAR
STARTCHAR uni0065
ENCODING 283
SWIDTH 1920 0
DWIDTH 20 0
BBX 16 32 4 0
BITMAP
F0F0
F0F0
F0F0
F0F0
0F00
0F00
0F00
0F00
0000
0000
0000
0000
0FF0
0FF0
0FF0
0FF0
F00F
F00F
F00F
F00F
FFFF
FFFF
FFFF
FFFF
F000
F000
F000
F000
0FFF
0FFF
0FFF
0FFF
ENDCHAR
STARTCHAR uni0047
ENCODING 284
SWIDTH 1920 0
DWIDTH 20 0
BBX 16 36 4 0
BITMAP
00F0
00F0
00F0
00F0
0F0F
0F0F
0F0F
0F0F
0000
0000
0000
0000
0FFF
0FFF
0FFF
0FFF
F000
F000
F000
F000
F000
F000
F000
F000
F0FF
F0FF
F0FF
F0FF
F00F
F00F
F00F
F00F
0FFF
0FFF
0FFF
0FFF
ENDCHAR
STARTCHAR uni0067
ENCODING 285
SWIDTH 1920 0
DWIDTH 20 0
BBX 16 40 4 -8
BITMAP
00F0
00F0
00F0
00F0
0F0F
0F0F
0F0F
0F0F
0000
0000
0000
0000
0FFF
0FFF
0FFF
0FFF
F00F
F00F
F00F
F00F
F00F
F00F
F00F
F00F
F0FF
F0FF
F0FF
F0FF
0F0F
0F0F
0F0F
0F0F
000F
000F
000F
000F
0FF0
0FF0
0FF0
0FF0
ENDCHAR
STARTCHAR uni0047
ENCODING 286
SWIDTH 1920 0
DWIDTH 20 0
BBX 16 36 4 0
BITMAP
F00F
F00F
F00F
F00F
0FF0
0FF0
0FF0
0FF0
0000
0000
0000
0000
0FFF
0FFF
0FFF
0FFF
F000
F000
F000
F000
F000
F000
F000
F000
F0FF
F0FF
F0FF
F0FF
F00F
F00F
F00F
F00F
0FFF
0FFF
0FFF
0FFF
ENDCHAR
STARTCHAR uni0067
ENCODING 287
SWIDTH 1920 0
DWIDTH 20 0
BBX 16 40 4 -8
BITMAP
F00F
F00F
F00F
F00F
0FF0
0FF0
0FF0
0FF0
0000
0000
0000
0000
0FFF
0FFF
0FFF
0FFF
F00F
F00F
F00F
F00F
F00F
F00F
F00F
F00F
F0FF
F0FF
F0FF
F0FF
0F0F
0F0F
0F0F
0F0F
000F
000F
000F
000F
0FF0
0FF0
0FF0
0FF0
ENDCHAR
STARTCHAR uni0047
ENCODING 288
SWIDTH 1920 0
DWIDTH 20 0
BBX 16 32 4 0
BITMAP
00F0
00F0
00F0
00F0
0000
0000
0000
0000
0FFF
0FFF
0FFF
0FFF
F000
F000
F000
F000
F000
F000
F000
F000
F0FF
F0FF
F0FF
F0FF
F00F
F00F
F00F
F00F
0FFF
0FFF
0FFF
0FFF
ENDCHAR
STARTCHAR uni0067
ENCODING 289
SWIDTH 1920 0
DWIDTH 20 0
BBX 16 36 4 -8
BITMAP
00F0
00F0
00F0
00F0
0000
0000
0000
0000
0FFF
0FFF
0FFF
0FFF
F00F
F00F
F00F
F00F
F00F
F00F
F00F
F00F
F0FF
F0FF
F0FF
F0FF
0F0F
0F0F
0F0F
0F0F
000F
000F
000F
000F
0FF0
0FF0
0FF0
0FF0
ENDCHAR
STARTCHAR uni0047
ENCODING 290
SWIDTH 1920 0
DWIDTH 20 0
BBX 16 32 4 -8
BITMAP
0FFF
0FFF
0FFF
0FFF
F000
F000
F000
F000
F000
F000
F000
F000
F0FF
F0FF
F0FF
F0FF
F00F
F00F
F00F
F00F
0FFF
0FFF
0FFF
0FFF
00F0
00F0
00F0
00F0
0F00
0F00
0F00
0F00
ENDCHAR
STARTCHAR uni0067
ENCODING 291
SWIDTH 1920 0
DWIDTH 20 0
BBX 16 40 4 -8
BITMAP
00F0
00F0
00F0
00F0
0F00
0F00
0F00
0F00
0000
0000
0000
0000
0FFF
0FFF
0FFF
0FFF
F00F
F00F
F00F
F00F
F00F
F00F
F00F
F00F
F0FF
F0FF
F0FF
F0FF
0F0F
0F0F
0F0F
0F0F
000F
000F
000F
000F
0FF0
0FF0
0FF0
0FF0
ENDCHAR
STARTCHAR uni0048
ENCODING 292
SWIDTH 1920 0
DWIDTH 20 0
BBX 16 36 4 0
BITMAP
00F0
00F0
00F0
00F0
0F0F
0F0F
0F0F
0F0F
0000
0000
0000
0000
F00F
F00F
F00F
F00F
F00F
F00F
F00F
F00F
FFFF
FFFF
FFFF
FFFF
F00F
F00F
F00F
F00F
F00F
F00F
F00F
F00F
F00F
F00F
F00F
F00F
ENDCHAR
STARTCHAR uni0068
ENCODING 293
SWIDTH 1920 0
DWIDTH 20 0
BBX 16 36 4 0
BITMAP
00F0
00F0
00F0
00F0
0F0F
0F0F
0F0F
0F0F
F000
F000
F000
F000
F000
F000
F000
F000
FFF0
FFF0
FFF0
FFF0
F00F
F00F
F00F
F00F
F00F
F00F
F00F
F00F
F00F
F00F
F00F
F00F
F00F
F00F
F00F
F00F
ENDCHAR
STARTCHAR uni0048
ENCODING 294
SWIDTH 1920 0
DWIDTH 20 0
BBX 24 24 0 0
BITMAP
FFFFFF
FFFFFF
FFFFFF
FFFFFF
0F00F0
0F00F0
0F00F0
0F00F0
0FFFF0
0FFFF0
0FFFF0
0FFFF0
0F00F0
0F00F0
0F00F0
0F00F0
0F00F0
0F00F0
0F00F0
0F00F0
0F00F0
0F00F0
0F00F0
0F00F0
ENDCHAR
STARTCHAR uni0068
ENCODING 295
SWIDTH 1920 0
DWIDTH 20 0
BBX 20 28 0 0
BITMAP
FFFF00
FFFF00
FFFF00
FFFF00
0F0000
0F0000
0F0000
0F0000
0FFF00
0FFF00
0FFF00
0FFF00
0F00F0
0F00F0
0F00F0
0F00F0
0F00F0
0F00F0
0F00F0
0F00F0
0F00F0
0F00F0
0F00F0
0F00F0
0F00F0
0F00F0
0F00F0
0F00F0
ENDCHAR
STARTCHAR uni0049
ENCODING 296
SWIDTH 1920 0
DWIDTH 20 0
BBX 16 36 0 0
BITMAP
0F0F
0F0F
0F0F
0F0F
F0F0
F0F0
F0F0
F0F0
0000
0000
0000
0000
0FFF
0FFF
0FFF
0FFF
00F0
00F0
00F0
00F0
00F0
00F0
00F0
00F0
00F0
00F0
00F0
00F0
00F0
00F0
00F0
00F0
0FFF
0FFF
0FFF
0FFF
ENDCHAR
STARTCHAR uni0069
ENCODING 297
SWIDTH 1920 0
DWIDTH 20 0
BBX 16 32 4 0
BITMAP
0F0F
0F0F
0F0F
0F0F
F0F0
F0F0
F0F0
F0F0
0000
0000
0000
0000
0FF0
0FF0
0FF0
0FF0
00F0
00F0
00F0
00F0
00F0
00F0
00F0
00F0
00F0
00F0
00F0
00F0
00F0
00F0
00F0
00F0
ENDCHAR
STARTCHAR uni0049
ENCODING 298
SWIDTH 1920 0
DWIDTH 20 0
BBX 12 32 4 0
BITMAP
FFF0
FFF0
FFF0
FFF0
0000
0000
0000
0000
FFF0
FFF0
FFF0
FFF0
0F00
0F00
0F00
0F00
0F00
0F00
0F00
0F00
0F00
0F00
0F00
0F00
0F00
0F00
0F00
0F00
FFF0
FFF0
FFF0
FFF0
ENDCHAR
STARTCHAR uni0069
ENCODING 299
SWIDTH 1920 0
DWIDTH 20 0
BBX 12 28 8 0
BITMAP
FFF0
FFF0
FFF0
FFF0
0000
0000
0000
0000
FF00
FF00
FF00
FF00
0F00
0F00
0F00
0F00
0F00
0F00
0F00
0F00
0F00
0F00
0F00
0F00
0F00
0F00
0F00
0F00
ENDCHAR
STARTCHAR uni0049
ENCODING 300
SWIDTH 1920 0
DWIDTH 20 0
BBX 12 36 4 0
BITMAP
F0F0
F0F0
F0F0
F0F0
0F00
0F00
0F00
0F00
0000
0000
0000
0000
FFF0
FFF0
FFF0
FFF0
0F00
0F00
0F00
0F00
0F00
0F00
0F00
0F00
0F00
0F00
0F00
0F00
0F00
0F00
0F00
0F00
FFF0
FFF0
FFF0
FFF0
ENDCHAR
STARTCHAR uni0069
ENCODING 301
SWIDTH 1920 0
DWIDTH 20 0
BBX 12 32 8 0
BITMAP
F0F0
F0F0
F0F0
F0F0
0F00
0F00
0F00
0F00
0000
0000
0000
0000
FF00
FF00
FF00
FF00
0F00
0F00
0F00
0F00
0F00
0F00
0F00
0F00
0F00
0F00
0F00
0F00
0F00
0F00
0F00
0F00
ENDCHAR
STARTCHAR uni0049
ENCODING 302
SWIDTH 1920 0
DWIDTH 20 0
BBX 12 32 4 -8
BITMAP
FFF0
FFF0
FFF0
FFF0
0F00
0F00
0F00
0F00
0F00
0F00
0F00
0F00
0F00
0F00
0F00
0F00
0F00
0F00
0F00
0F00
FFF0
FFF0
FFF0
FFF0
F000
F000
F000
F000
0F00
0F00
0F00
0F00
ENDCHAR
STARTCHAR uni0069
ENCODING 303
SWIDTH 1920 0
DWIDTH 20 0
BBX 8 36 8 -8
BITMAP
0F
0F
0F
0F
00
00
00
00
FF
FF
FF
FF
0F
0F
0F
0F
0F
0F
0F
0F
0F
0F
0F
0F
FF
FF
FF
FF
F0
F0
F0
F0
0F
0F
0F
0F
ENDCHAR
STARTCHAR uni0049
ENCODING 304
SWIDTH 1920 0
DWIDTH 20 0
BBX 12 32 4 0
BITMAP
0F00
0F00
0F00
0F00
0000
0000
0000
0000
FFF0
FFF0
FFF0
FFF0
0F00
0F00
0F00
0F00
0F00
0F00
0F00
0F00
0F00
0F00
0F00
0F00
0F00
0F00
0F00
0F00
FFF0
FFF0
FFF0
FFF0
ENDCHAR
STARTCHAR uni0069
ENCODING 305
SWIDTH 1920 0
DWIDTH 20 0
BBX 8 20 8 0
BITMAP
FF
FF
FF
FF
0F
0F
0F
0F
0F
0F
0F
0F
0F
0F
0F
0F
0F
0F
0F
0F
ENDCHAR
STARTCHAR uni0049
ENCODING 306
SWIDTH 1920 0
DWIDTH 20 0
BBX 24 24 4 0
BITMAP
FFFFFF
FFFFFF
FFFFFF
FFFFFF
0F000F
0F000F
0F000F
0F000F
0F000F
0F000F
0F000F
0F000F
0F000F
0F000F
0F000F
0F000F
0F0F0F
0F0F0F
0F0F0F
0F0F0F
FFF0F0
FFF0F0
FFF0F0
FFF0F0
ENDCHAR
STARTCHAR uni0069
ENCODING 307
SWIDTH 1920 0
DWIDTH 20 0
BBX 20 32 4 -4
BITMAP
0F00F0
0F00F0
0F00F0
0F00F0
000000
000000
000000
000000
FF0FF0
FF0FF0
FF0FF0
FF0FF0
0F00F0
0F00F0
0F00F0
0F00F0
0F00F0
0F00F0
0F00F0
0F00F0
0F00F0
0F00F0
0F00F0
0F00F0
0F00F0
0F00F0
0F00F0
0F00F0
00FF00
00FF00
00FF00
00FF00
ENDCHAR
STARTCHAR uni004A
ENCODING 308
SWIDTH 1920 0
DWIDTH 20 0
BBX 16 36 4 0
BITMAP
00F0
00F0
00F0
00F0
0F0F
0F0F
0F0F
0F0F
0000
0000
0000
0000
0FFF
0FFF
0FFF
0FFF
000F
000F
000F
000F
000F
000F
000F
000F
000F
000F
000F
000F
F00F
F00F
F00F
F00F
0FF0
0FF0
0FF0
0FF0
ENDCHAR
STARTCHAR uni006A
ENCODING 309
SWIDTH 1920 0
DWIDTH 20 0
BBX 16 40 4 -8
BITMAP
00F0
00F0
00F0
00F0
0F0F
0F0F
0F0F
0F0F
0000
0000
0000
0000
0FF0
0FF0
0FF0
0FF0
00F0
00F0
00F0
00F0
00F0
00F0
00F0
00F0
00F0
00F0
00F0
00F0
00F0
00F0
00F0
00F0
00F0
00F0
00F0
00F0
FF00
FF00
FF00
FF00
ENDCHAR
STARTCHAR uni004B
ENCODING 310
SWIDTH 1920 0
DWIDTH 20 0
BBX 16 32 4 -8
BITMAP
F00F
F00F
F00F
F00F
F0F0
F0F0
F0F0
F0F0
FF00
FF00
FF00
FF00
F0F0
F0F0
F0F0
F0F0
F00F
F00F
F00F
F00F
F00F
F00F
F00F
F00F
0F00
0F00
0F00
0F00
F000
F000
F000
F000
ENDCHAR
STARTCHAR uni006B
ENCODING 311
SWIDTH 1920 0
DWIDTH 20 0
BBX 16 36 4 -8
BITMAP
F000
F000
F000
F000
F000
F000
F000
F000
F00F
F00F
F00F
F00F
F0F0
F0F0
F0F0
F0F0
FFF0
FFF0
FFF0
FFF0
F00F
F00F
F00F
F00F
F00F
F00F
F00F
F00F
0F00
0F00
0F00
0F00
F000
F000
F000
F000
ENDCHAR
STARTCHAR uni006B
ENCODING 312
SWIDTH 1920 0
DWIDTH 20 0
BBX 16 20 4 0
BITMAP
F00F
F00F
F00F
F00F
F0F0
F0F0
F0F0
F0F0
FFF0
FFF0
FFF0
FFF0
F00F
F00F
F00F
F00F
F00F
F00F
F00F
F00F
ENDCHAR
STARTCHAR uni004C
ENCODING 313
SWIDTH 1920 0
DWIDTH 20 0
BBX 16 32 4 0
BITMAP
000F
000F
000F
000F
00F0
00F0
00F0
00F0
F000
F000
F000
F000
F000
F000
F000
F000
F000
F000
F000
F000
F000
F000
F000
F000
F000
F000
F000
F000
FFFF
FFFF
FFFF
FFFF
ENDCHAR
STARTCHAR uni006C
ENCODING 314
SWIDTH 1920 0
DWIDTH 20 0
BBX 16 36 8 0
BITMAP
000F
000F
000F
000F
00F0
00F0
00F0
00F0
FF00
FF00
FF00
FF00
0F00
0F00
0F00
0F00
0F00
0F00
0F00
0F00
0F00
0F00
0F00
0F00
0F00
0F00
0F00
0F00
0F00
0F00
0F00
0F00
0F00
0F00
0F00
0F00
ENDCHAR
STARTCHAR uni004C
ENCODING 315
SWIDTH 1920 0
DWIDTH 20 0
BBX 16 32 4 -8
BITMAP
F000
F000
F000
F000
F000
F000
F000
F000
F000
F000
F000
F000
F000
F000
F000
F000
F000
F000
F000
F000
FFFF
FFFF
FFFF
FFFF
00F0
00F0
00F0
00F0
0F00
0F00
0F00
0F00
ENDCHAR
STARTCHAR uni006C
ENCODING 316
SWIDTH 1920 0
DWIDTH 20 0
BBX 12 36 4 -8
BITMAP
0FF0
0FF0
0FF0
0FF0
00F0
00F0
00F0
00F0
00F0
00F0
00F0
00F0
00F0
00F0
00F0
00F0
00F0
00F0
00F0
00F0
00F0
00F0
00F0
00F0
00F0
00F0
00F0
00F0
0F00
0F00
0F00
0F00
F000
F000
F000
F000
ENDCHAR
STARTCHAR uni004C
ENCODING 317
SWIDTH 1920 0
DWIDTH 20 0
BBX 16 28 4 0
BITMAP
00FF
00FF
00FF
00FF
F00F
F00F
F00F
F00F
F000
F000
F000
F000
F000
F000
F000
F000
F000
F000
F000
F000
F000
F000
F000
F000
FFFF
FFFF
FFFF
FFFF
ENDCHAR
STARTCHAR uni006C
ENCODING 318
SWIDTH 1920 0
DWIDTH 20 0
BBX 16 40 8 -4
BITMAP
00FF
00FF
00FF
00FF
000F
000F
000F
000F
FF00
FF00
FF00
FF00
0F00
0F00
0F00
0F00
0F00
0F00
0F00
0F00
0F00
0F00
0F00
0F00
0F00
0F00
0F00
0F00
0F00
0F00
0F00
0F00
0F00
0F00
0F00
0F00
00F0
00F0
00F0
00F0
ENDCHAR
STARTCHAR uni004C
ENCODING 319
SWIDTH 1920 0
DWIDTH 20 0
BBX 16 24 4 0
BITMAP
F000
F000
F000
F000
F000
F000
F000
F000
F000
F000
F000
F000
F0F0
F0F0
F0F0
F0F0
F000
F000
F000
F000
FFFF
FFFF
FFFF
FFFF
ENDCHAR
STARTCHAR uni006C
ENCODING 320
SWIDTH 1920 0
DWIDTH 20 0
BBX 16 28 8 0
BITMAP
FF00
FF00
FF00
FF00
0F00
0F00
0F00
0F00
0F00
0F00
0F00
0F00
0F00
0F00
0F00
0F00
0F0F
0F0F
0F0F
0F0F
0F00
0F00
0F00
0F00
0F00
0F00
0F00
0F00
ENDCHAR
STARTCHAR uni004C
ENCODING 321
SWIDTH 1920 0
DWIDTH 20 0
BBX 16 24 4 0
BITMAP
F000
F000
F000
F000
F0F0
F0F0
F0F0
F0F0
FF00
FF00
FF00
FF00
F000
F000
F000
F000
F000
F000
F000
F000
FFFF
FFFF
FFFF
FFFF
ENDCHAR
STARTCHAR uni006C
ENCODING 322
SWIDTH 1920 0
DWIDTH 20 0
BBX 12 28 8 0
BITMAP
FF00
FF00
FF00
FF00
0F00
0F00
0F00
0F00
0F00
0F00
0F00
0F00
0FF0
0FF0
0FF0
0FF0
FF00
FF00
FF00
FF00
0F00
0F00
0F00
0F00
0F00
0F00
0F00
0F00
ENDCHAR
STARTCHAR uni004E
ENCODING 323
SWIDTH 1920 0
DWIDTH 20 0
BBX 16 36 4 0
BITMAP
00F0
00F0
00F0
00F0
0F00
0F00
0F00
0F00
0000
0000
0000
0000
F00F
F00F
F00F
F00F
FF0F
FF0F
FF0F
FF0F
FF0F
FF0F
FF0F
FF0F
F0FF
F0FF
F0FF
F0FF
F0FF
F0FF
F0FF
F0FF
F00F
F00F
F00F
F00F
ENDCHAR
STARTCHAR uni006E
ENCODING 324
SWIDTH 1920 0
DWIDTH 20 0
BBX 16 32 4 0
BITMAP
00F0
00F0
00F0
00F0
0F00
0F00
0F00
0F00
0000
0000
0000
0000
FFF0
FFF0
FFF0
FFF0
F00F
F00F
F00F
F00F
F00F
F00F
F00F
F00F
F00F
F00F
F00F
F00F
F00F
F00F
F00F
F00F
ENDCHAR
STARTCHAR uni004E
ENCODING 325
SWIDTH 1920 0
DWIDTH 20 0
BBX 16 32 4 -8
BITMAP
F00F
F00F
F00F
F00F
FF0F
FF0F
FF0F
FF0F
FF0F
FF0F
FF0F
FF0F
F0FF
F0FF
F0FF
F0FF
F0FF
F0FF
F0FF
F0FF
FF0F
FF0F
FF0F
FF0F
0F00
0F00
0F00
0F00
F000
F000
F000
F000
ENDCHAR
STARTCHAR uni006E
ENCODING 326
SWIDTH 1920 0
DWIDTH 20 0
BBX 16 40 4 -8
BITMAP
00F0
00F0
00F0
00F0
0F00
0F00
0F00
0F00
0000
0000
0000
0000
FFF0
FFF0
FFF0
FFF0
F00F
F00F
F00F
F00F
F00F
F00F
F00F
F00F
F00F
F00F
F00F
F00F
FF0F
FF0F
FF0F
FF0F
0F00
0F00
0F00
0F00
F000
F000
F000
F000
ENDCHAR
STARTCHAR uni004E
ENCODING 327
SWIDTH 1920 0
DWIDTH 20 0
BBX 16 32 4 0
BITMAP
0F0F
0F0F
0F0F
0F0F
00F0
00F0
00F0
00F0
F00F
F00F
F00F
F00F
FF0F
FF0F
FF0F
FF0F
FF0F
FF0F
FF0F
FF0F
F0FF
F0FF
F0FF
F0FF
F0FF
F0FF
F0FF
F0FF
F00F
F00F
F00F
F00F
ENDCHAR
STARTCHAR uni006E
ENCODING 328
SWIDTH 1920 0
DWIDTH 20 0
BBX 16 32 4 0
BITMAP
0F0F
0F0F
0F0F
0F0F
00F0
00F0
00F0
00F0
0000
0000
0000
0000
FFF0
FFF0
FFF0
FFF0
F00F
F00F
F00F
F00F
F00F
F00F
F00F
F00F
F00F
F00F
F00F
F00F
F00F
F00F
F00F
F00F
ENDCHAR
STARTCHAR uni006E
ENCODING 329
SWIDTH 1920 0
DWIDTH 20 0
BBX 16 32 4 0
BITMAP
F000
F000
F000
F000
F000
F000
F000
F000
0000
0000
0000
0000
FFF0
FFF0
FFF0
FFF0
F00F
F00F
F00F
F00F
F00F
F00F
F00F
F00F
F00F
F00F
F00F
F00F
F00F
F00F
F00F
F00F
ENDCHAR
STARTCHAR uni004E
ENCODING 330
SWIDTH 1920 0
DWIDTH 20 0
BBX 16 32 4 -8
BITMAP
F00F
F00F
F00F
F00F
FF0F
FF0F
FF0F
FF0F
FF0F
FF0F
FF0F
FF0F
F0FF
F0FF
F0FF
F0FF
F0FF
F0FF
F0FF
F0FF
F00F
F00F
F00F
F00F
000F
000F
000F
000F
0FF0
0FF0
0FF0
0FF0
ENDCHAR
STARTCHAR uni006E
ENCODING 331
SWIDTH 1920 0
DWIDTH 20 0
BBX 16 40 4 -8
BITMAP
00F0
00F0
00F0
00F0
0F00
0F00
0F00
0F00
0000
0000
0000
0000
FFF0
FFF0
FFF0
FFF0
F00F
F00F
F00F
F00F
F00F
F00F
F00F
F00F
F00F
F00F
F00F
F00F
F00F
F00F
F00F
F00F
000F
000F
000F
000F
0FF0
0FF0
0FF0
0FF0
ENDCHAR
STARTCHAR uni004F
ENCODING 332
SWIDTH 1920 0
DWIDTH 20 0
BBX 16 32 4 0
BITMAP
FFFF
FFFF
FFFF
FFFF
0000
0000
0000
0000
0FF0
0FF0
0FF0
0FF0
F00F
F00F
F00F
F00F
F00F
F00F
F00F
F00F
F00F
F00F
F00F
F00F
F00F
F00F
F00F
F00F
0FF0
0FF0
0FF0
0FF0
ENDCHAR
STARTCHAR uni006F
ENCODING 333
SWIDTH 1920 0
DWIDTH 20 0
BBX 16 28 4 0
BITMAP
FFFF
FFFF
FFFF
FFFF
0000
0000
0000
0000
0FF0
0FF0
0FF0
0FF0
F00F
F00F
F00F
F00F
F00F
F00F
F00F
F00F
F00F
F00F
F00F
F00F
0FF0
0FF0
0FF0
0FF0
ENDCHAR
STARTCHAR uni004F
ENCODING 334
SWIDTH 1920 0
DWIDTH 20 0
BBX 16 36 4 0
BITMAP
F00F
F00F
F00F
F00F
0FF0
0FF0
0FF0
0FF0
0000
0000
0000
0000
0FF0
0FF0
0FF0
0FF0
F00F
F00F
F00F
F00F
F00F
F00F
F00F
F00F
F00F
F00F
F00F
F00F
F00F
F00F
F00F
F00F
0FF0
0FF0
0FF0
0FF0
ENDCHAR
STARTCHAR uni006F
ENCODING 335
SWIDTH 1920 0
DWIDTH 20 0
BBX 16 32 4 0
BITMAP
F00F
F00F
F00F
F00F
0FF0
0FF0
0FF0
0FF0
0000
0000
0000
0000
0FF0
0FF0
0FF0
0FF0
F00F
F00F
F00F
F00F
F00F
F00F
F00F
F00F
F00F
F00F
F00F
F00F
0FF0
0FF0
0FF0
0FF0
ENDCHAR
STARTCHAR uni004F
ENCODING 336
SWIDTH 1920 0
DWIDTH 20 0
BBX 16 36 4 0
BITMAP
0F0F
0F0F
0F0F
0F0F
F0F0
F0F0
F0F0
F0F0
0000
0000
0000
0000
0FF0
0FF0
0FF0
0FF0
F00F
F00F
F00F
F00F
F00F
F00F
F00F
F00F
F00F
F00F
F00F
F00F
F00F
F00F
F00F
F00F
0FF0
0FF0
0FF0
0FF0
ENDCHAR
STARTCHAR uni006F
ENCODING 337
SWIDTH 1920 0
DWIDTH 20 0
BBX 16 32 4 0
BITMAP
0F0F
0F0F
0F0F
0F0F
F0F0
F0F0
F0F0
F0F0
0000
0000
0000
0000
0FF0
0FF0
0FF0
0FF0
F00F
F00F
F00F
F00F
F00F
F00F
F00F
F00F
F00F
F00F
F00F
F00F
0FF0
0FF0
0FF0
0FF0
ENDCHAR
STARTCHAR char198
ENCODING 338
SWIDTH 1920 0
DWIDTH 20 0
BBX 24 24 0 0
BITMAP
0FFFFF
0FFFFF
0FFFFF
0FFFFF
F00F00
F00F00
F00F00
F00F00
F00FF0
F00FF0
F00FF0
F00FF0
F00F00
F00F00
F00F00
F00F00
F00F00
F00F00
F00F00
F00F00
0FFFFF
0FFFFF
0FFFFF
0FFFFF
ENDCHAR
STARTCHAR char230
ENCODING 339
SWIDTH 1920 0
DWIDTH 20 0
BBX 20 20 4 0
BITMAP
0FFF00
0FFF00
0FFF00
0FFF00
F0F0F0
F0F0F0
F0F0F0
F0F0F0
F0FFF0
F0FFF0
F0FFF0
F0FFF0
F0F000
F0F000
F0F000
F0F000
0FFFF0
0FFFF0
0FFFF0
0FFFF0
ENDCHAR
STARTCHAR uni0052
ENCODING 340
SWIDTH 1920 0
DWIDTH 20 0
BBX 16 32 4 0
BITMAP
00F0
00F0
00F0
00F0
0F00
0F00
0F00
0F00
FFF0
FFF0
FFF0
FFF0
F00F
F00F
F00F
F00F
F00F
F00F
F00F
F00F
FFF0
FFF0
FFF0
FFF0
F00F
F00F
F00F
F00F
F00F
F00F
F00F
F00F
ENDCHAR
STARTCHAR uni0072
ENCODING 341
SWIDTH 1920 0
DWIDTH 20 0
BBX 16 32 4 0
BITMAP
00F0
00F0
00F0
00F0
0F00
0F00
0F00
0F00
0000
0000
0000
0000
F0FF
F0FF
F0FF
F0FF
FF00
FF00
FF00
FF00
F000
F000
F000
F000
F000
F000
F000
F000
F000
F000
F000
F000
ENDCHAR
STARTCHAR uni0052
ENCODING 342
SWIDTH 1920 0
DWIDTH 20 0
BBX 16 32 4 -8
BITMAP
FFF0
FFF0
FFF0
FFF0
F00F
F00F
F00F
F00F
F00F
F00F
F00F
F00F
FFF0
FFF0
FFF0
FFF0
F00F
F00F
F00F
F00F
F00F
F00F
F00F
F00F
0F00
0F00
0F00
0F00
F000
F000
F000
F000
ENDCHAR
STARTCHAR uni0072
ENCODING 343
SWIDTH 1920 0
DWIDTH 20 0
BBX 16 28 4 -8
BITMAP
F0FF
F0FF
F0FF
F0FF
FF00
FF00
FF00
FF00
F000
F000
F000
F000
F000
F000
F000
F000
F000
F000
F000
F000
0F00
0F00
0F00
0F00
F000
F000
F000
F000
ENDCHAR
STARTCHAR uni0052
ENCODING 344
SWIDTH 1920 0
DWIDTH 20 0
BBX 16 32 4 0
BITMAP
F0F0
F0F0
F0F0
F0F0
0F00
0F00
0F00
0F00
FFF0
FFF0
FFF0
FFF0
F00F
F00F
F00F
F00F
F00F
F00F
F00F
F00F
FFF0
FFF0
FFF0
FFF0
F00F
F00F
F00F
F00F
F00F
F00F
F00F
F00F
ENDCHAR
STARTCHAR uni0072
ENCODING 345
SWIDTH 1920 0
DWIDTH 20 0
BBX 16 32 4 0
BITMAP
F0F0
F0F0
F0F0
F0F0
0F00
0F00
0F00
0F00
0000
0000
0000
0000
F0FF
F0FF
F0FF
F0FF
FF00
FF00
FF00
FF00
F000
F000
F000
F000
F000
F000
F000
F000
F000
F000
F000
F000
ENDCHAR
STARTCHAR uni0053
ENCODING 346
SWIDTH 1920 0
DWIDTH 20 0
BBX 16 36 4 0
BITMAP
00F0
00F0
00F0
00F0
0F00
0F00
0F00
0F00
0000
0000
0000
0000
0FFF
0FFF
0FFF
0FFF
F000
F000
F000
F000
0FF0
0FF0
0FF0
0FF0
000F
000F
000F
000F
000F
000F
000F
000F
FFF0
FFF0
FFF0
FFF0
ENDCHAR
STARTCHAR uni0073
ENCODING 347
SWIDTH 1920 0
DWIDTH 20 0
BBX 16 32 4 0
BITMAP
00F0
00F0
00F0
00F0
0F00
0F00
0F00
0F00
0000
0000
0000
0000
0FFF
0FFF
0FFF
0FFF
F000
F000
F000
F000
0FF0
0FF0
0FF0
0FF0
000F
000F
000F
000F
FFF0
FFF0
FFF0
FFF0
ENDCHAR
STARTCHAR uni0053
ENCODING 348
SWIDTH 1920 0
DWIDTH 20 0
BBX 16 36 4 0
BITMAP
00F0
00F0
00F0
00F0
0F0F
0F0F
0F0F
0F0F
0000
0000
0000
0000
0FFF
0FFF
0FFF
0FFF
F000
F000
F000
F000
0FF0
0FF0
0FF0
0FF0
000F
000F
000F
000F
000F
000F
000F
000F
FFF0
FFF0
FFF0
FFF0
ENDCHAR
STARTCHAR uni0073
ENCODING 349
SWIDTH 1920 0
DWIDTH 20 0
BBX 16 32 4 0
BITMAP
00F0
00F0
00F0
00F0
0F0F
0F0F
0F0F
0F0F
0000
0000
0000
0000
0FFF
0FFF
0FFF
0FFF
F000
F000
F000
F000
0FF0
0FF0
0FF0
0FF0
000F
000F
000F
000F
FFF0
FFF0
FFF0
FFF0
ENDCHAR
STARTCHAR uni0053
ENCODING 350
SWIDTH 1920 0
DWIDTH 20 0
BBX 16 32 4 -8
BITMAP
0FFF
0FFF
0FFF
0FFF
F000
F000
F000
F000
0FF0
0FF0
0FF0
0FF0
000F
000F
000F
000F
000F
000F
000F
000F
FFF0
FFF0
FFF0
FFF0
00F0
00F0
00F0
00F0
00F0
00F0
00F0
00F0
ENDCHAR
STARTCHAR uni0073
ENCODING 351
SWIDTH 1920 0
DWIDTH 20 0
BBX 16 28 4 -8
BITMAP
0FFF
0FFF
0FFF
0FFF
F000
F000
F000
F000
0FF0
0FF0
0FF0
0FF0
000F
000F
000F
000F
FFF0
FFF0
FFF0
FFF0
00F0
00F0
00F0
00F0
00F0
00F0
00F0
00F0
ENDCHAR
STARTCHAR uni0053
ENCODING 352
SWIDTH 1920 0
DWIDTH 20 0
BBX 16 36 4 0
BITMAP
0F0F
0F0F
0F0F
0F0F
00F0
00F0
00F0
00F0
0000
0000
0000
0000
0FFF
0FFF
0FFF
0FFF
F000
F000
F000
F000
0FF0
0FF0
0FF0
0FF0
000F
000F
000F
000F
000F
000F
000F
000F
FFF0
FFF0
FFF0
FFF0
ENDCHAR
STARTCHAR uni0073
ENCODING 353
SWIDTH 1920 0
DWIDTH 20 0
BBX 16 32 4 0
BITMAP
0F0F
0F0F
0F0F
0F0F
00F0
00F0
00F0
00F0
0000
0000
0000
0000
0FFF
0FFF
0FFF
0FFF
F000
F000
F000
F000
0FF0
0FF0
0FF0
0FF0
000F
000F
000F
000F
FFF0
FFF0
FFF0
FFF0
ENDCHAR
STARTCHAR uni0054
ENCODING 354
SWIDTH 1920 0
DWIDTH 20 0
BBX 20 28 0 -4
BITMAP
FFFFF0
FFFFF0
FFFFF0
FFFFF0
00F000
00F000
00F000
00F000
00F000
00F000
00F000
00F000
00F000
00F000
00F000
00F000
00F000
00F000
00F000
00F000
00F000
00F000
00F000
00F000
0F0000
0F0000
0F0000
0F0000
ENDCHAR
STARTCHAR uni0074
ENCODING 355
SWIDTH 1920 0
DWIDTH 20 0
BBX 12 28 4 -4
BITMAP
0F00
0F00
0F00
0F00
FFF0
FFF0
FFF0
FFF0
0F00
0F00
0F00
0F00
0F00
0F00
0F00
0F00
0F00
0F00
0F00
0F00
00F0
00F0
00F0
00F0
0F00
0F00
0F00
0F00
ENDCHAR
STARTCHAR uni0054
ENCODING 356
SWIDTH 1920 0
DWIDTH 20 0
BBX 20 36 0 0
BITMAP
0F0F00
0F0F00
0F0F00
0F0F00
00F000
00F000
00F000
00F000
000000
000000
000000
000000
FFFFF0
FFFFF0
FFFFF0
FFFFF0
00F000
00F000
00F000
00F000
00F000
00F000
00F000
00F000
00F000
00F000
00F000
00F000
00F000
00F000
00F000
00F000
00F000
00F000
00F000
00F000
ENDCHAR
STARTCHAR uni0074
ENCODING 357
SWIDTH 1920 0
DWIDTH 20 0
BBX 16 32 4 0
BITMAP
00FF
00FF
00FF
00FF
000F
000F
000F
000F
0F00
0F00
0F00
0F00
FFF0
FFF0
FFF0
FFF0
0F00
0F00
0F00
0F00
0F00
0F00
0F00
0F00
0F00
0F00
0F00
0F00
00F0
00F0
00F0
00F0
ENDCHAR
STARTCHAR uni0054
ENCODING 358
SWIDTH 1920 0
DWIDTH 20 0
BBX 20 24 0 0
BITMAP
FFFFF0
FFFFF0
FFFFF0
FFFFF0
00F000
00F000
00F000
00F000
00F000
00F000
00F000
00F000
0FFF00
0FFF00
0FFF00
0FFF00
00F000
00F000
00F000
00F000
00F000
00F000
00F000
00F000
ENDCHAR
STARTCHAR uni0074
ENCODING 359
SWIDTH 1920 0
DWIDTH 20 0
BBX 12 24 4 0
BITMAP
0F00
0F00
0F00
0F00
FFF0
FFF0
FFF0
FFF0
0F00
0F00
0F00
0F00
FFF0
FFF0
FFF0
FFF0
0F00
0F00
0F00
0F00
00F0
00F0
00F0
00F0
ENDCHAR
STARTCHAR uni0055
ENCODING 360
SWIDTH 1920 0
DWIDTH 20 0
BBX 16 36 4 0
BITMAP
0F0F
0F0F
0F0F
0F0F
F0F0
F0F0
F0F0
F0F0
0000
0000
0000
0000
F00F
F00F
F00F
F00F
F00F
F00F
F00F
F00F
F00F
F00F
F00F
F00F
F00F
F00F
F00F
F00F
F00F
F00F
F00F
F00F
0FFF
0FFF
0FFF
0FFF
ENDCHAR
STARTCHAR uni0075
ENCODING 361
SWIDTH 1920 0
DWIDTH 20 0
BBX 16 32 4 0
BITMAP
0F0F
0F0F
0F0F
0F0F
F0F0
F0F0
F0F0
F0F0
0000
0000
0000
0000
F00F
F00F
F00F
F00F
F00F
F00F
F00F
F00F
F00F
F00F
F00F
F00F
F00F
F00F
F00F
F00F
0FFF
0FFF
0FFF
0FFF
ENDCHAR
STARTCHAR uni0055
ENCODING 362
SWIDTH 1920 0
DWIDTH 20 0
BBX 16 32 4 0
BITMAP
FFFF
FFFF
FFFF
FFFF
0000
0000
0000
0000
F00F
F00F
F00F
F00F
F00F
F00F
F00F
F00F
F00F
F00F
F00F
F00F
F00F
F00F
F00F
F00F
F00F
F00F
F00F
F00F
0FFF
0FFF
0FFF
0FFF
ENDCHAR
STARTCHAR uni0075
ENCODING 363
SWIDTH 1920 0
DWIDTH 20 0
BBX 16 28 4 0
BITMAP
FFFF
FFFF
FFFF
FFFF
0000
0000
0000
0000
F00F
F00F
F00F
F00F
F00F
F00F
F00F
F00F
F00F
F00F
F00F
F00F
F00F
F00F
F00F
F00F
0FFF
0FFF
0FFF
0FFF
ENDCHAR
STARTCHAR uni0055
ENCODING 364
SWIDTH 1920 0
DWIDTH 20 0
BBX 16 36 4 0
BITMAP
F00F
F00F
F00F
F00F
0FF0
0FF0
0FF0
0FF0
0000
0000
0000
0000
F00F
F00F
F00F
F00F
F00F
F00F
F00F
F00F
F00F
F00F
F00F
F00F
F00F
F00F
F00F
F00F
F00F
F00F
F00F
F00F
0FFF
0FFF
0FFF
0FFF
ENDCHAR
STARTCHAR uni0075
ENCODING 365
SWIDTH 1920 0
DWIDTH 20 0
BBX 16 32 4 0
BITMAP
F00F
F00F
F00F
F00F
0FF0
0FF0
0FF0
0FF0
0000
0000
0000
0000
F00F
F00F
F00F
F00F
F00F
F00F
F00F
F00F
F00F
F00F
F00F
F00F
F00F
F00F
F00F
F00F
0FFF
0FFF
0FFF
0FFF
ENDCHAR
STARTCHAR uni0055
ENCODING 366
SWIDTH 1920 0
DWIDTH 20 0
BBX 16 36 4 0
BITMAP
00F0
00F0
00F0
00F0
0F0F
0F0F
0F0F
0F0F
00F0
00F0
00F0
00F0
F00F
F00F
F00F
F00F
F00F
F00F
F00F
F00F
F00F
F00F
F00F
F00F
F00F
F00F
F00F
F00F
F00F
F00F
F00F
F00F
0FFF
0FFF
0FFF
0FFF
ENDCHAR
STARTCHAR uni0075
ENCODING 367
SWIDTH 1920 0
DWIDTH 20 0
BBX 16 32 4 0
BITMAP
00F0
00F0
00F0
00F0
0F0F
0F0F
0F0F
0F0F
00F0
00F0
00F0
00F0
F00F
F00F
F00F
F00F
F00F
F00F
F00F
F00F
F00F
F00F
F00F
F00F
F00F
F00F
F00F
F00F
0FFF
0FFF
0FFF
0FFF
ENDCHAR
STARTCHAR uni0055
ENCODING 368
SWIDTH 1920 0
DWIDTH 20 0
BBX 20 36 4 0
BITMAP
0F00F0
0F00F0
0F00F0
0F00F0
F00F00
F00F00
F00F00
F00F00
000000
000000
000000
000000
F00F00
F00F00
F00F00
F00F00
F00F00
F00F00
F00F00
F00F00
F00F00
F00F00
F00F00
F00F00
F00F00
F00F00
F00F00
F00F00
F00F00
F00F00
F00F00
F00F00
0FFF00
0FFF00
0FFF00
0FFF00
ENDCHAR
STARTCHAR uni0075
ENCODING 369
SWIDTH 1920 0
DWIDTH 20 0
BBX 20 32 4 0
BITMAP
0F00F0
0F00F0
0F00F0
0F00F0
F00F00
F00F00
F00F00
F00F00
000000
000000
000000
000000
F00F00
F00F00
F00F00
F00F00
F00F00
F00F00
F00F00
F00F00
F00F00
F00F00
F00F00
F00F00
F00F00
F00F00
F00F00
F00F00
0FFF00
0FFF00
0FFF00
0FFF00
ENDCHAR
STARTCHAR uni0055
ENCODING 370
SWIDTH 1920 0
DWIDTH 20 0
BBX 16 32 4 -8
BITMAP
F00F
F00F
F00F
F00F
F00F
F00F
F00F
F00F
F00F
F00F
F00F
F00F
F00F
F00F
F00F
F00F
F00F
F00F
F00F
F00F
0FFF
0FFF
0FFF
0FFF
0F00
0F00
0F00
0F00
00F0
00F0
00F0
00F0
ENDCHAR
STARTCHAR uni0075
ENCODING 371
SWIDTH 1920 0
DWIDTH 20 0
BBX 16 28 4 -8
BITMAP
F00F
F00F
F00F
F00F
F00F
F00F
F00F
F00F
F00F
F00F
F00F
F00F
F00F
F00F
F00F
F00F
0FFF
0FFF
0FFF
0FFF
0F00
0F00
0F00
0F00
00F0
00F0
00F0
00F0
ENDCHAR
STARTCHAR uni0077
ENCODING 372
SWIDTH 1920 0
DWIDTH 20 0
BBX 16 36 4 0
BITMAP
00F0
00F0
00F0
00F0
0F0F
0F0F
0F0F
0F0F
0000
0000
0000
0000
F00F
F00F
F00F
F00F
F00F
F00F
F00F
F00F
F00F
F00F
F00F
F00F
F00F
F00F
F00F
F00F
FFFF
FFFF
FFFF
FFFF
F00F
F00F
F00F
F00F
ENDCHAR
STARTCHAR uni0077
ENCODING 373
SWIDTH 1920 0
DWIDTH 20 0
BBX 16 32 4 0
BITMAP
00F0
00F0
00F0
00F0
0F0F
0F0F
0F0F
0F0F
0000
0000
0000
0000
F00F
F00F
F00F
F00F
F00F
F00F
F00F
F00F
F00F
F00F
F00F
F00F
FFFF
FFFF
FFFF
FFFF
F00F
F00F
F00F
F00F
ENDCHAR
STARTCHAR uni0059
ENCODING 374
SWIDTH 1920 0
DWIDTH 20 0
BBX 20 36 0 0
BITMAP
00F000
00F000
00F000
00F000
0F0F00
0F0F00
0F0F00
0F0F00
000000
000000
000000
000000
F000F0
F000F0
F000F0
F000F0
0F0F00
0F0F00
0F0F00
0F0F00
00F000
00F000
00F000
00F000
00F000
00F000
00F000
00F000
00F000
00F000
00F000
00F000
00F000
00F000
00F000
00F000
ENDCHAR
STARTCHAR uni0079
ENCODING 375
SWIDTH 1920 0
DWIDTH 20 0
BBX 16 40 4 -8
BITMAP
00F0
00F0
00F0
00F0
0F0F
0F0F
0F0F
0F0F
0000
0000
0000
0000
F00F
F00F
F00F
F00F
F00F
F00F
F00F
F00F
F00F
F00F
F00F
F00F
F00F
F00F
F00F
F00F
0FFF
0FFF
0FFF
0FFF
000F
000F
000F
000F
0FF0
0FF0
0FF0
0FF0
ENDCHAR
STARTCHAR uni0059
ENCODING 376
SWIDTH 1920 0
DWIDTH 20 0
BBX 20 32 0 0
BITMAP
0F0F00
0F0F00
0F0F00
0F0F00
000000
000000
000000
000000
F000F0
F000F0
F000F0
F000F0
0F0F00
0F0F00
0F0F00
0F0F00
00F000
00F000
00F000
00F000
00F000
00F000
00F000
00F000
00F000
00F000
00F000
00F000
00F000
00F000
00F000
00F000
ENDCHAR
STARTCHAR uni005A
ENCODING 377
SWIDTH 1920 0
DWIDTH 20 0
BBX 16 36 4 0
BITMAP
00F0
00F0
00F0
00F0
0F00
0F00
0F00
0F00
0000
0000
0000
0000
FFFF
FFFF
FFFF
FFFF
000F
000F
000F
000F
00F0
00F0
00F0
00F0
0F00
0F00
0F00
0F00
F000
F000
F000
F000
FFFF
FFFF
FFFF
FFFF
ENDCHAR
STARTCHAR uni007A
ENCODING 378
SWIDTH 1920 0
DWIDTH 20 0
BBX 16 32 4 0
BITMAP
00F0
00F0
00F0
00F0
0F00
0F00
0F00
0F00
0000
0000
0000
0000
FFFF
FFFF
FFFF
FFFF
00F0
00F0
00F0
00F0
0F00
0F00
0F00
0F00
F000
F000
F000
F000
FFFF
FFFF
FFFF
FFFF
ENDCHAR
STARTCHAR uni005A
ENCODING 379
SWIDTH 1920 0
DWIDTH 20 0
BBX 16 32 4 0
BITMAP
00F0
00F0
00F0
00F0
0000
0000
0000
0000
FFFF
FFFF
FFFF
FFFF
000F
000F
000F
000F
00F0
00F0
00F0
00F0
0F00
0F00
0F00
0F00
F000
F000
F000
F000
FFFF
FFFF
FFFF
FFFF
ENDCHAR
STARTCHAR uni007A
ENCODING 380
SWIDTH 1920 0
DWIDTH 20 0
BBX 16 28 4 0
BITMAP
00F0
00F0
00F0
00F0
0000
0000
0000
0000
FFFF
FFFF
FFFF
FFFF
00F0
00F0
00F0
00F0
0F00
0F00
0F00
0F00
F000
F000
F000
F000
FFFF
FFFF
FFFF
FFFF
ENDCHAR
STARTCHAR uni005A
ENCODING 381
SWIDTH 1920 0
DWIDTH 20 0
BBX 16 36 4 0
BITMAP
0F0F
0F0F
0F0F
0F0F
00F0
00F0
00F0
00F0
0000
0000
0000
0000
FFFF
FFFF
FFFF
FFFF
000F
000F
000F
000F
00F0
00F0
00F0
00F0
0F00
0F00
0F00
0F00
F000
F000
F000
F000
FFFF
FFFF
FFFF
FFFF
ENDCHAR
STARTCHAR uni007A
ENCODING 382
SWIDTH 1920 0
DWIDTH 20 0
BBX 16 32 4 0
BITMAP
0F0F
0F0F
0F0F
0F0F
00F0
00F0
00F0
00F0
0000
0000
0000
0000
FFFF
FFFF
FFFF
FFFF
00F0
00F0
00F0
00F0
0F00
0F00
0F00
0F00
F000
F000
F000
F000
FFFF
FFFF
FFFF
FFFF
ENDCHAR
STARTCHAR LATIN
ENCODING 383
SWIDTH 1920 0
DWIDTH 20 0
BBX 16 28 4 0
BITMAP
00FF
00FF
00FF
00FF
0F00
0F00
0F00
0F00
FF00
FF00
FF00
FF00
0F00
0F00
0F00
0F00
0F00
0F00
0F00
0F00
0F00
0F00
0F00
0F00
0F00
0F00
0F00
0F00
ENDCHAR
STARTCHAR uni0062
ENCODING 384
SWIDTH 1920 0
DWIDTH 20 0
BBX 20 28 0 0
BITMAP
FFF000
FFF000
FFF000
FFF000
0F0000
0F0000
0F0000
0F0000
0FFF00
0FFF00
0FFF00
0FFF00
0F00F0
0F00F0
0F00F0
0F00F0
0F00F0
0F00F0
0F00F0
0F00F0
0F00F0
0F00F0
0F00F0
0F00F0
0FFF00
0FFF00
0FFF00
0FFF00
ENDCHAR
STARTCHAR uni0042
ENCODING 385
SWIDTH 1920 0
DWIDTH 20 0
BBX 20 24 0 0
BITMAP
FFFF00
FFFF00
FFFF00
FFFF00
0F00F0
0F00F0
0F00F0
0F00F0
0FFF00
0FFF00
0FFF00
0FFF00
0F00F0
0F00F0
0F00F0
0F00F0
0F00F0
0F00F0
0F00F0
0F00F0
0FFF00
0FFF00
0FFF00
0FFF00
ENDCHAR
STARTCHAR uni0042
ENCODING 386
SWIDTH 1920 0
DWIDTH 20 0
BBX 20 32 4 0
BITMAP
FFF000
FFF000
FFF000
FFF000
F0F000
F0F000
F0F000
F0F000
F00000
F00000
F00000
F00000
FFFF00
FFFF00
FFFF00
FFFF00
F000F0
F000F0
F000F0
F000F0
F000F0
F000F0
F000F0
F000F0
F000F0
F000F0
F000F0
F000F0
FFFF00
FFFF00
FFFF00
FFFF00
ENDCHAR
STARTCHAR uni0042
ENCODING 387
SWIDTH 1920 0
DWIDTH 20 0
BBX 16 32 4 0
BITMAP
FFF0
FFF0
FFF0
FFF0
F0F0
F0F0
F0F0
F0F0
F000
F000
F000
F000
FFF0
FFF0
FFF0
FFF0
F00F
F00F
F00F
F00F
F00F
F00F
F00F
F00F
F00F
F00F
F00F
F00F
FFF0
FFF0
FFF0
FFF0
ENDCHAR
STARTCHAR uni0062
ENCODING 388
SWIDTH 1920 0
DWIDTH 20 0
BBX 24 28 0 0
BITMAP
0F0000
0F0000
0F0000
0F0000
FF0000
FF0000
FF0000
FF0000
0FFFF0
0FFFF0
0FFFF0
0FFFF0
0F000F
0F000F
0F000F
0F000F
0F000F
0F000F
0F000F
0F000F
0F000F
0F000F
0F000F
0F000F
0FFFF0
0FFFF0
0FFFF0
0FFFF0
ENDCHAR
STARTCHAR uni0062
ENCODING 389
SWIDTH 1920 0
DWIDTH 20 0
BBX 20 28 0 0
BITMAP
0F0000
0F0000
0F0000
0F0000
FF0000
FF0000
FF0000
FF0000
0FFF00
0FFF00
0FFF00
0FFF00
0F00F0
0F00F0
0F00F0
0F00F0
0F00F0
0F00F0
0F00F0
0F00F0
0F00F0
0F00F0
0F00F0
0F00F0
0FFF00
0FFF00
0FFF00
0FFF00
ENDCHAR
STARTCHAR uni0043
ENCODING 390
SWIDTH 1920 0
DWIDTH 20 0
BBX 16 24 4 0
BITMAP
FFF0
FFF0
FFF0
FFF0
000F
000F
000F
000F
000F
000F
000F
000F
000F
000F
000F
000F
000F
000F
000F
000F
FFF0
FFF0
FFF0
FFF0
ENDCHAR
STARTCHAR uni0043
ENCODING 391
SWIDTH 1920 0
DWIDTH 20 0
BBX 20 28 4 0
BITMAP
0000F0
0000F0
0000F0
0000F0
0FFF00
0FFF00
0FFF00
0FFF00
F00000
F00000
F00000
F00000
F00000
F00000
F00000
F00000
F00000
F00000
F00000
F00000
F00000
F00000
F00000
F00000
0FFF00
0FFF00
0FFF00
0FFF00
ENDCHAR
STARTCHAR uni0063
ENCODING 392
SWIDTH 1920 0
DWIDTH 20 0
BBX 16 20 4 0
BITMAP
0FFF
0FFF
0FFF
0FFF
F000
F000
F000
F000
F000
F000
F000
F000
F000
F000
F000
F000
0FFF
0FFF
0FFF
0FFF
ENDCHAR
STARTCHAR uni0044
ENCODING 393
SWIDTH 1920 0
DWIDTH 20 0
BBX 20 24 0 0
BITMAP
0FFF00
0FFF00
0FFF00
0FFF00
0F00F0
0F00F0
0F00F0
0F00F0
FFF0F0
FFF0F0
FFF0F0
FFF0F0
0F00F0
0F00F0
0F00F0
0F00F0
0F00F0
0F00F0
0F00F0
0F00F0
0FFF00
0FFF00
0FFF00
0FFF00
ENDCHAR
STARTCHAR uni0044
ENCODING 394
SWIDTH 1920 0
DWIDTH 20 0
BBX 24 24 -4 0
BITMAP
0FFFF0
0FFFF0
0FFFF0
0FFFF0
F0F00F
F0F00F
F0F00F
F0F00F
00F00F
00F00F
00F00F
00F00F
00F00F
00F00F
00F00F
00F00F
00F00F
00F00F
00F00F
00F00F
00FFF0
00FFF0
00FFF0
00FFF0
ENDCHAR
STARTCHAR uni0042
ENCODING 395
SWIDTH 1920 0
DWIDTH 20 0
BBX 20 32 4 0
BITMAP
00FFF0
00FFF0
00FFF0
00FFF0
00F0F0
00F0F0
00F0F0
00F0F0
0000F0
0000F0
0000F0
0000F0
0FFFF0
0FFFF0
0FFFF0
0FFFF0
F000F0
F000F0
F000F0
F000F0
F000F0
F000F0
F000F0
F000F0
F00FF0
F00FF0
F00FF0
F00FF0
0FF0F0
0FF0F0
0FF0F0
0FF0F0
ENDCHAR
STARTCHAR uni0042
ENCODING 396
SWIDTH 1920 0
DWIDTH 20 0
BBX 16 32 4 0
BITMAP
0FFF
0FFF
0FFF
0FFF
0F0F
0F0F
0F0F
0F0F
000F
000F
000F
000F
0FFF
0FFF
0FFF
0FFF
F00F
F00F
F00F
F00F
F00F
F00F
F00F
F00F
F0FF
F0FF
F0FF
F0FF
0F0F
0F0F
0F0F
0F0F
ENDCHAR
STARTCHAR uni0045
ENCODING 398
SWIDTH 1920 0
DWIDTH 20 0
BBX 20 24 0 0
BITMAP
0FFFF0
0FFFF0
0FFFF0
0FFFF0
F000F0
F000F0
F000F0
F000F0
00FFF0
00FFF0
00FFF0
00FFF0
0000F0
0000F0
0000F0
0000F0
0000F0
0000F0
0000F0
0000F0
0FFFF0
0FFFF0
0FFFF0
0FFFF0
ENDCHAR
STARTCHAR uni0065
ENCODING 399
SWIDTH 1920 0
DWIDTH 20 0
BBX 16 20 4 0
BITMAP
FFF0
FFF0
FFF0
FFF0
000F
000F
000F
000F
FFFF
FFFF
FFFF
FFFF
F00F
F00F
F00F
F00F
0FF0
0FF0
0FF0
0FF0
ENDCHAR
STARTCHAR char1028
ENCODING 400
SWIDTH 1920 0
DWIDTH 20 0
BBX 16 24 4 0
BITMAP
0FF0
0FF0
0FF0
0FF0
F00F
F00F
F00F
F00F
0F00
0F00
0F00
0F00
F000
F000
F000
F000
F00F
F00F
F00F
F00F
0FF0
0FF0
0FF0
0FF0
ENDCHAR
STARTCHAR uni0046
ENCODING 401
SWIDTH 1920 0
DWIDTH 20 0
BBX 20 28 0 -4
BITMAP
0FFFF0
0FFFF0
0FFFF0
0FFFF0
0F0000
0F0000
0F0000
0F0000
0FFF00
0FFF00
0FFF00
0FFF00
0F0000
0F0000
0F0000
0F0000
0F0000
0F0000
0F0000
0F0000
0F0000
0F0000
0F0000
0F0000
F00000
F00000
F00000
F00000
ENDCHAR
STARTCHAR uni0066
ENCODING 402
SWIDTH 1920 0
DWIDTH 20 0
BBX 16 32 4 -4
BITMAP
00FF
00FF
00FF
00FF
0F00
0F00
0F00
0F00
0FFF
0FFF
0FFF
0FFF
0F00
0F00
0F00
0F00
0F00
0F00
0F00
0F00
0F00
0F00
0F00
0F00
0F00
0F00
0F00
0F00
F000
F000
F000
F000
ENDCHAR
STARTCHAR uni0047
ENCODING 403
SWIDTH 1920 0
DWIDTH 20 0
BBX 28 24 4 0
BITMAP
0FFF0FF0
0FFF0FF0
0FFF0FF0
0FFF0FF0
F000F0F0
F000F0F0
F000F0F0
F000F0F0
F0000000
F0000000
F0000000
F0000000
F0FF0000
F0FF0000
F0FF0000
F0FF0000
F00F0000
F00F0000
F00F0000
F00F0000
0FFF0000
0FFF0000
0FFF0000
0FFF0000
ENDCHAR
STARTCHAR LATIN
ENCODING 404
SWIDTH 1920 0
DWIDTH 20 0
BBX 20 32 0 -8
BITMAP
F000F0
F000F0
F000F0
F000F0
0F0F00
0F0F00
0F0F00
0F0F00
0F0F00
0F0F00
0F0F00
0F0F00
00F000
00F000
00F000
00F000
00F000
00F000
00F000
00F000
0F0F00
0F0F00
0F0F00
0F0F00
0F0F00
0F0F00
0F0F00
0F0F00
00F000
00F000
00F000
00F000
ENDCHAR
STARTCHAR LATIN
ENCODING 405
SWIDTH 1920 0
DWIDTH 20 0
BBX 20 24 4 0
BITMAP
F00000
F00000
F00000
F00000
F00000
F00000
F00000
F00000
FF00F0
FF00F0
FF00F0
FF00F0
F0F0F0
F0F0F0
F0F0F0
F0F0F0
F0F0F0
F0F0F0
F0F0F0
F0F0F0
F00F00
F00F00
F00F00
F00F00
ENDCHAR
STARTCHAR LATIN
ENCODING 406
SWIDTH 1920 0
DWIDTH 20 0
BBX 12 28 4 0
BITMAP
F000
F000
F000
F000
F000
F000
F000
F000
F000
F000
F000
F000
F000
F000
F000
F000
F000
F000
F000
F000
F0F0
F0F0
F0F0
F0F0
0F00
0F00
0F00
0F00
ENDCHAR
STARTCHAR uni0049
ENCODING 407
SWIDTH 1920 0
DWIDTH 20 0
BBX 12 32 4 0
BITMAP
FFF0
FFF0
FFF0
FFF0
0000
0000
0000
0000
FFF0
FFF0
FFF0
FFF0
0F00
0F00
0F00
0F00
0F00
0F00
0F00
0F00
0F00
0F00
0F00
0F00
0F00
0F00
0F00
0F00
FFF0
FFF0
FFF0
FFF0
ENDCHAR
STARTCHAR uni004B
ENCODING 408
SWIDTH 1920 0
DWIDTH 20 0
BBX 20 24 4 0
BITMAP
F00F00
F00F00
F00F00
F00F00
F0F0F0
F0F0F0
F0F0F0
F0F0F0
FF0000
FF0000
FF0000
FF0000
F0F000
F0F000
F0F000
F0F000
F00F00
F00F00
F00F00
F00F00
F00F00
F00F00
F00F00
F00F00
ENDCHAR
STARTCHAR uni006B
ENCODING 409
SWIDTH 1920 0
DWIDTH 20 0
BBX 16 28 4 0
BITMAP
0FF0
0FF0
0FF0
0FF0
F000
F000
F000
F000
F00F
F00F
F00F
F00F
F0F0
F0F0
F0F0
F0F0
FFF0
FFF0
FFF0
FFF0
F00F
F00F
F00F
F00F
F00F
F00F
F00F
F00F
ENDCHAR
STARTCHAR uni0049
ENCODING 410
SWIDTH 1920 0
DWIDTH 20 0
BBX 12 28 4 0
BITMAP
FF00
FF00
FF00
FF00
0F00
0F00
0F00
0F00
0F00
0F00
0F00
0F00
FFF0
FFF0
FFF0
FFF0
0F00
0F00
0F00
0F00
0F00
0F00
0F00
0F00
0F00
0F00
0F00
0F00
ENDCHAR
STARTCHAR LATIN
ENCODING 411
SWIDTH 1920 0
DWIDTH 20 0
BBX 16 24 4 0
BITMAP
0F00
0F00
0F00
0F00
FFF0
FFF0
FFF0
FFF0
0FF0
0FF0
0FF0
0FF0
0FF0
0FF0
0FF0
0FF0
F00F
F00F
F00F
F00F
F00F
F00F
F00F
F00F
ENDCHAR
STARTCHAR LATIN
ENCODING 412
SWIDTH 1920 0
DWIDTH 20 0
BBX 20 20 0 0
BITMAP
F0F0F0
F0F0F0
F0F0F0
F0F0F0
F0F0F0
F0F0F0
F0F0F0
F0F0F0
F0F0F0
F0F0F0
F0F0F0
F0F0F0
F0F0F0
F0F0F0
F0F0F0
F0F0F0
0FFFF0
0FFFF0
0FFFF0
0FFFF0
ENDCHAR
STARTCHAR LATIN
ENCODING 413
SWIDTH 1920 0
DWIDTH 20 0
BBX 20 24 0 -4
BITMAP
0F00F0
0F00F0
0F00F0
0F00F0
0FF0F0
0FF0F0
0FF0F0
0FF0F0
0FFFF0
0FFFF0
0FFFF0
0FFFF0
0F0FF0
0F0FF0
0F0FF0
0F0FF0
0F00F0
0F00F0
0F00F0
0F00F0
F00000
F00000
F00000
F00000
ENDCHAR
STARTCHAR uni006E
ENCODING 414
SWIDTH 1920 0
DWIDTH 20 0
BBX 16 20 4 -4
BITMAP
FFF0
FFF0
FFF0
FFF0
F00F
F00F
F00F
F00F
F00F
F00F
F00F
F00F
F00F
F00F
F00F
F00F
000F
000F
000F
000F
ENDCHAR
STARTCHAR GREEK
ENCODING 415
SWIDTH 1920 0
DWIDTH 20 0
BBX 16 20 0 0
BITMAP
0FF0
0FF0
0FF0
0FF0
F00F
F00F
F00F
F00F
FFFF
FFFF
FFFF
FFFF
F00F
F00F
F00F
F00F
0FF0
0FF0
0FF0
0FF0
ENDCHAR
STARTCHAR uni004F
ENCODING 416
SWIDTH 1920 0
DWIDTH 20 0
BBX 24 32 4 0
BITMAP
00000F
00000F
00000F
00000F
00000F
00000F
00000F
00000F
0FF0F0
0FF0F0
0FF0F0
0FF0F0
F00F00
F00F00
F00F00
F00F00
F00F00
F00F00
F00F00
F00F00
F00F00
F00F00
F00F00
F00F00
F00F00
F00F00
F00F00
F00F00
0FF000
0FF000
0FF000
0FF000
ENDCHAR
STARTCHAR uni006F
ENCODING 417
SWIDTH 1920 0
DWIDTH 20 0
BBX 24 32 4 0
BITMAP
00000F
00000F
00000F
00000F
00000F
00000F
00000F
00000F
0000F0
0000F0
0000F0
0000F0
0FF000
0FF000
0FF000
0FF000
F00F00
F00F00
F00F00
F00F00
F00F00
F00F00
F00F00
F00F00
F00F00
F00F00
F00F00
F00F00
0FF000
0FF000
0FF000
0FF000
ENDCHAR
STARTCHAR uni004F
ENCODING 418
SWIDTH 1920 0
DWIDTH 20 0
BBX 24 28 4 0
BITMAP
0000F0
0000F0
0000F0
0000F0
0FF00F
0FF00F
0FF00F
0FF00F
F00F0F
F00F0F
F00F0F
F00F0F
F00F0F
F00F0F
F00F0F
F00F0F
F00F0F
F00F0F
F00F0F
F00F0F
F00F0F
F00F0F
F00F0F
F00F0F
0FF00F
0FF00F
0FF00F
0FF00F
ENDCHAR
STARTCHAR uni006F
ENCODING 419
SWIDTH 1920 0
DWIDTH 20 0
BBX 24 24 4 0
BITMAP
0000F0
0000F0
0000F0
0000F0
0FF00F
0FF00F
0FF00F
0FF00F
F00F0F
F00F0F
F00F0F
F00F0F
F00F0F
F00F0F
F00F0F
F00F0F
F00F0F
F00F0F
F00F0F
F00F0F
0FF00F
0FF00F
0FF00F
0FF00F
ENDCHAR
STARTCHAR uni0050
ENCODING 420
SWIDTH 1920 0
DWIDTH 20 0
BBX 24 24 -4 0
BITMAP
FFFFF0
FFFFF0
FFFFF0
FFFFF0
F0F00F
F0F00F
F0F00F
F0F00F
00F00F
00F00F
00F00F
00F00F
00FFF0
00FFF0
00FFF0
00FFF0
00F000
00F000
00F000
00F000
00F000
00F000
00F000
00F000
ENDCHAR
STARTCHAR uni0070
ENCODING 421
SWIDTH 1920 0
DWIDTH 20 0
BBX 24 36 4 -8
BITMAP
0000FF
0000FF
0000FF
0000FF
000F0F
000F0F
000F0F
000F0F
FFF000
FFF000
FFF000
FFF000
F00F00
F00F00
F00F00
F00F00
F00F00
F00F00
F00F00
F00F00
F00F00
F00F00
F00F00
F00F00
FFF000
FFF000
FFF000
FFF000
F00000
F00000
F00000
F00000
F00000
F00000
F00000
F00000
ENDCHAR
STARTCHAR LATIN
ENCODING 422
SWIDTH 1920 0
DWIDTH 20 0
BBX 20 32 0 -4
BITMAP
F00000
F00000
F00000
F00000
FFF000
FFF000
FFF000
FFF000
F00F00
F00F00
F00F00
F00F00
F00F00
F00F00
F00F00
F00F00
FFF000
FFF000
FFF000
FFF000
F0F000
F0F000
F0F000
F0F000
F00F00
F00F00
F00F00
F00F00
0000F0
0000F0
0000F0
0000F0
ENDCHAR
STARTCHAR uni0053
ENCODING 423
SWIDTH 1920 0
DWIDTH 20 0
BBX 16 24 4 0
BITMAP
FFF0
FFF0
FFF0
FFF0
000F
000F
000F
000F
0FF0
0FF0
0FF0
0FF0
F000
F000
F000
F000
F000
F000
F000
F000
0FFF
0FFF
0FFF
0FFF
ENDCHAR
STARTCHAR uni0073
ENCODING 424
SWIDTH 1920 0
DWIDTH 20 0
BBX 16 20 4 0
BITMAP
FFF0
FFF0
FFF0
FFF0
000F
000F
000F
000F
0FF0
0FF0
0FF0
0FF0
F000
F000
F000
F000
0FFF
0FFF
0FFF
0FFF
ENDCHAR
STARTCHAR GREEK
ENCODING 425
SWIDTH 1920 0
DWIDTH 20 0
BBX 20 24 0 0
BITMAP
FFFFF0
FFFFF0
FFFFF0
FFFFF0
0F00F0
0F00F0
0F00F0
0F00F0
00F000
00F000
00F000
00F000
0F0000
0F0000
0F0000
0F0000
F000F0
F000F0
F000F0
F000F0
FFFFF0
FFFFF0
FFFFF0
FFFFF0
ENDCHAR
STARTCHAR LATIN
ENCODING 426
SWIDTH 1920 0
DWIDTH 20 0
BBX 20 32 0 -4
BITMAP
0F0000
0F0000
0F0000
0F0000
F0F000
F0F000
F0F000
F0F000
0FF000
0FF000
0FF000
0FF000
00F000
00F000
00F000
00F000
00F000
00F000
00F000
00F000
00F000
00F000
00F000
00F000
00F000
00F000
00F000
00F000
000FF0
000FF0
000FF0
000FF0
ENDCHAR
STARTCHAR uni0074
ENCODING 427
SWIDTH 1920 0
DWIDTH 20 0
BBX 12 28 4 -4
BITMAP
0F00
0F00
0F00
0F00
FFF0
FFF0
FFF0
FFF0
0F00
0F00
0F00
0F00
0F00
0F00
0F00
0F00
0F00
0F00
0F00
0F00
00F0
00F0
00F0
00F0
0F00
0F00
0F00
0F00
ENDCHAR
STARTCHAR uni0054
ENCODING 428
SWIDTH 1920 0
DWIDTH 20 0
BBX 20 24 0 0
BITMAP
FFFFF0
FFFFF0
FFFFF0
FFFFF0
00F0F0
00F0F0
00F0F0
00F0F0
00F000
00F000
00F000
00F000
00F000
00F000
00F000
00F000
00F000
00F000
00F000
00F000
00F000
00F000
00F000
00F000
ENDCHAR
STARTCHAR uni0074
ENCODING 429
SWIDTH 1920 0
DWIDTH 20 0
BBX 12 28 4 0
BITMAP
00F0
00F0
00F0
00F0
0F00
0F00
0F00
0F00
FFF0
FFF0
FFF0
FFF0
0F00
0F00
0F00
0F00
0F00
0F00
0F00
0F00
0F00
0F00
0F00
0F00
00F0
00F0
00F0
00F0
ENDCHAR
STARTCHAR uni0054
ENCODING 430
SWIDTH 1920 0
DWIDTH 20 0
BBX 20 24 0 0
BITMAP
FFFFF0
FFFFF0
FFFFF0
FFFFF0
F0F0F0
F0F0F0
F0F0F0
F0F0F0
00F000
00F000
00F000
00F000
00F000
00F000
00F000
00F000
00F000
00F000
00F000
00F000
00F000
00F000
00F000
00F000
ENDCHAR
STARTCHAR uni0055
ENCODING 431
SWIDTH 1920 0
DWIDTH 20 0
BBX 20 28 4 0
BITMAP
0000F0
0000F0
0000F0
0000F0
F00FF0
F00FF0
F00FF0
F00FF0
F00F00
F00F00
F00F00
F00F00
F00F00
F00F00
F00F00
F00F00
F00F00
F00F00
F00F00
F00F00
F00F00
F00F00
F00F00
F00F00
0FFF00
0FFF00
0FFF00
0FFF00
ENDCHAR
STARTCHAR uni0075
ENCODING 432
SWIDTH 1920 0
DWIDTH 20 0
BBX 20 24 4 0
BITMAP
0000F0
0000F0
0000F0
0000F0
F00FF0
F00FF0
F00FF0
F00FF0
F00F00
F00F00
F00F00
F00F00
F00F00
F00F00
F00F00
F00F00
F00F00
F00F00
F00F00
F00F00
0FFF00
0FFF00
0FFF00
0FFF00
ENDCHAR
STARTCHAR LATIN
ENCODING 433
SWIDTH 1920 0
DWIDTH 20 0
BBX 20 28 0 0
BITMAP
FF0FF0
FF0FF0
FF0FF0
FF0FF0
0F0F00
0F0F00
0F0F00
0F0F00
F000F0
F000F0
F000F0
F000F0
F000F0
F000F0
F000F0
F000F0
F000F0
F000F0
F000F0
F000F0
F000F0
F000F0
F000F0
F000F0
0FFF00
0FFF00
0FFF00
0FFF00
ENDCHAR
STARTCHAR LATIN
ENCODING 434
SWIDTH 1920 0
DWIDTH 20 0
BBX 20 28 0 0
BITMAP
F00F00
F00F00
F00F00
F00F00
F000F0
F000F0
F000F0
F000F0
F000F0
F000F0
F000F0
F000F0
F000F0
F000F0
F000F0
F000F0
F000F0
F000F0
F000F0
F000F0
F000F0
F000F0
F000F0
F000F0
0FFF00
0FFF00
0FFF00
0FFF00
ENDCHAR
STARTCHAR uni0059
ENCODING 435
SWIDTH 1920 0
DWIDTH 20 0
BBX 24 28 0 0
BITMAP
00000F
00000F
00000F
00000F
F000FF
F000FF
F000FF
F000FF
0F0F00
0F0F00
0F0F00
0F0F00
00F000
00F000
00F000
00F000
00F000
00F000
00F000
00F000
00F000
00F000
00F000
00F000
00F000
00F000
00F000
00F000
ENDCHAR
STARTCHAR uni0079
ENCODING 436
SWIDTH 1920 0
DWIDTH 20 0
BBX 20 32 4 -8
BITMAP
0000F0
0000F0
0000F0
0000F0
F00FF0
F00FF0
F00FF0
F00FF0
F00F00
F00F00
F00F00
F00F00
F00F00
F00F00
F00F00
F00F00
F00F00
F00F00
F00F00
F00F00
0FFF00
0FFF00
0FFF00
0FFF00
000F00
000F00
000F00
000F00
0FF000
0FF000
0FF000
0FF000
ENDCHAR
STARTCHAR uni005A
ENCODING 437
SWIDTH 1920 0
DWIDTH 20 0
BBX 20 24 4 0
BITMAP
FFFF00
FFFF00
FFFF00
FFFF00
000F00
000F00
000F00
000F00
FFFFF0
FFFFF0
FFFFF0
FFFFF0
0F0000
0F0000
0F0000
0F0000
F00000
F00000
F00000
F00000
FFFF00
FFFF00
FFFF00
FFFF00
ENDCHAR
STARTCHAR uni007A
ENCODING 438
SWIDTH 1920 0
DWIDTH 20 0
BBX 16 20 4 0
BITMAP
FFFF
FFFF
FFFF
FFFF
00F0
00F0
00F0
00F0
FFFF
FFFF
FFFF
FFFF
F000
F000
F000
F000
FFFF
FFFF
FFFF
FFFF
ENDCHAR
STARTCHAR LATIN
ENCODING 439
SWIDTH 1920 0
DWIDTH 20 0
BBX 16 24 4 0
BITMAP
FFFF
FFFF
FFFF
FFFF
000F
000F
000F
000F
00F0
00F0
00F0
00F0
000F
000F
000F
000F
F00F
F00F
F00F
F00F
0FF0
0FF0
0FF0
0FF0
ENDCHAR
STARTCHAR LATIN
ENCODING 440
SWIDTH 1920 0
DWIDTH 20 0
BBX 16 24 4 0
BITMAP
FFFF
FFFF
FFFF
FFFF
F000
F000
F000
F000
0F00
0F00
0F00
0F00
F000
F000
F000
F000
F00F
F00F
F00F
F00F
0FF0
0FF0
0FF0
0FF0
ENDCHAR
STARTCHAR LATIN
ENCODING 441
SWIDTH 1920 0
DWIDTH 20 0
BBX 16 24 4 -4
BITMAP
FFFF
FFFF
FFFF
FFFF
F000
F000
F000
F000
0F00
0F00
0F00
0F00
F000
F000
F000
F000
F00F
F00F
F00F
F00F
0FF0
0FF0
0FF0
0FF0
ENDCHAR
STARTCHAR LATIN
ENCODING 442
SWIDTH 1920 0
DWIDTH 20 0
BBX 24 32 0 -8
BITMAP
0FFFF0
0FFFF0
0FFFF0
0FFFF0
0000F0
0000F0
0000F0
0000F0
000F00
000F00
000F00
000F00
0000F0
0000F0
0000F0
0000F0
0F00F0
0F00F0
0F00F0
0F00F0
F0FF00
F0FF00
F0FF00
F0FF00
0F000F
0F000F
0F000F
0F000F
00FFF0
00FFF0
00FFF0
00FFF0
ENDCHAR
STARTCHAR LATIN
ENCODING 443
SWIDTH 1920 0
DWIDTH 20 0
BBX 20 28 0 0
BITMAP
0FFF00
0FFF00
0FFF00
0FFF00
F000F0
F000F0
F000F0
F000F0
0000F0
0000F0
0000F0
0000F0
FFFFF0
FFFFF0
FFFFF0
FFFFF0
00F000
00F000
00F000
00F000
0F0000
0F0000
0F0000
0F0000
FFFFF0
FFFFF0
FFFFF0
FFFFF0
ENDCHAR
STARTCHAR LATIN
ENCODING 444
SWIDTH 1920 0
DWIDTH 20 0
BBX 20 28 0 0
BITMAP
FFFFF0
FFFFF0
FFFFF0
FFFFF0
0F0000
0F0000
0F0000
0F0000
0FFF00
0FFF00
0FFF00
0FFF00
0000F0
0000F0
0000F0
0000F0
0000F0
0000F0
0000F0
0000F0
F000F0
F000F0
F000F0
F000F0
0FFF00
0FFF00
0FFF00
0FFF00
ENDCHAR
STARTCHAR LATIN
ENCODING 445
SWIDTH 1920 0
DWIDTH 20 0
BBX 20 24 0 0
BITMAP
FFFFF0
FFFFF0
FFFFF0
FFFFF0
0F0000
0F0000
0F0000
0F0000
0FFF00
0FFF00
0FFF00
0FFF00
0000F0
0000F0
0000F0
0000F0
F000F0
F000F0
F000F0
F000F0
0FFF00
0FFF00
0FFF00
0FFF00
ENDCHAR
STARTCHAR LATIN
ENCODING 446
SWIDTH 1920 0
DWIDTH 20 0
BBX 20 28 0 4
BITMAP
00F000
00F000
00F000
00F000
0FFF00
0FFF00
0FFF00
0FFF00
00F000
00F000
00F000
00F000
000F00
000F00
000F00
000F00
0000F0
0000F0
0000F0
0000F0
F000F0
F000F0
F000F0
F000F0
0FFF00
0FFF00
0FFF00
0FFF00
ENDCHAR
STARTCHAR LATIN
ENCODING 447
SWIDTH 1920 0
DWIDTH 20 0
BBX 16 28 0 0
BITMAP
F0F0
F0F0
F0F0
F0F0
FF0F
FF0F
FF0F
FF0F
F00F
F00F
F00F
F00F
F0F0
F0F0
F0F0
F0F0
FF00
FF00
FF00
FF00
F000
F000
F000
F000
F000
F000
F000
F000
ENDCHAR
STARTCHAR LATIN
ENCODING 448
SWIDTH 1920 0
DWIDTH 20 0
BBX 4 40 8 -8
BITMAP
F0
F0
F0
F0
F0
F0
F0
F0
F0
F0
F0
F0
F0
F0
F0
F0
F0
F0
F0
F0
F0
F0
F0
F0
F0
F0
F0
F0
F0
F0
F0
F0
F0
F0
F0
F0
F0
F0
F0
F0
ENDCHAR
STARTCHAR LATIN
ENCODING 449
SWIDTH 1920 0
DWIDTH 20 0
BBX 12 40 0 -8
BITMAP
F0F0
F0F0
F0F0
F0F0
F0F0
F0F0
F0F0
F0F0
F0F0
F0F0
F0F0
F0F0
F0F0
F0F0
F0F0
F0F0
F0F0
F0F0
F0F0
F0F0
F0F0
F0F0
F0F0
F0F0
F0F0
F0F0
F0F0
F0F0
F0F0
F0F0
F0F0
F0F0
F0F0
F0F0
F0F0
F0F0
F0F0
F0F0
F0F0
F0F0
ENDCHAR
STARTCHAR LATIN
ENCODING 450
SWIDTH 1920 0
DWIDTH 20 0
BBX 20 40 0 -8
BITMAP
00F000
00F000
00F000
00F000
00F000
00F000
00F000
00F000
00F000
00F000
00F000
00F000
FFFFF0
FFFFF0
FFFFF0
FFFFF0
00F000
00F000
00F000
00F000
00F000
00F000
00F000
00F000
FFFFF0
FFFFF0
FFFFF0
FFFFF0
00F000
00F000
00F000
00F000
00F000
00F000
00F000
00F000
00F000
00F000
00F000
00F000
ENDCHAR
STARTCHAR LATIN
ENCODING 451
SWIDTH 1920 0
DWIDTH 20 0
BBX 4 28 8 0
BITMAP
F0
F0
F0
F0
F0
F0
F0
F0
F0
F0
F0
F0
F0
F0
F0
F0
F0
F0
F0
F0
00
00
00
00
F0
F0
F0
F0
ENDCHAR
STARTCHAR LATIN
ENCODING 452
SWIDTH 1920 0
DWIDTH 20 0
BBX 24 36 0 0
BITMAP
000F0F
000F0F
000F0F
000F0F
0000F0
0000F0
0000F0
0000F0
FF0000
FF0000
FF0000
FF0000
F0FFFF
F0FFFF
F0FFFF
F0FFFF
F0F00F
F0F00F
F0F00F
F0F00F
F0F0F0
F0F0F0
F0F0F0
F0F0F0
F0F0F0
F0F0F0
F0F0F0
F0F0F0
F0FF00
F0FF00
F0FF00
F0FF00
FF0FFF
FF0FFF
FF0FFF
FF0FFF
ENDCHAR
STARTCHAR LATIN
ENCODING 453
SWIDTH 1920 0
DWIDTH 20 0
BBX 24 32 0 0
BITMAP
000F0F
000F0F
000F0F
000F0F
FF00F0
FF00F0
FF00F0
FF00F0
F0F000
F0F000
F0F000
F0F000
F0FFFF
F0FFFF
F0FFFF
F0FFFF
F0F00F
F0F00F
F0F00F
F0F00F
F0F0F0
F0F0F0
F0F0F0
F0F0F0
F0FF00
F0FF00
F0FF00
F0FF00
FF0FFF
FF0FFF
FF0FFF
FF0FFF
ENDCHAR
STARTCHAR LATIN
ENCODING 454
SWIDTH 1920 0
DWIDTH 20 0
BBX 24 36 0 0
BITMAP
00F000
00F000
00F000
00F000
00FF0F
00FF0F
00FF0F
00FF0F
00F0F0
00F0F0
00F0F0
00F0F0
00F000
00F000
00F000
00F000
0FFFFF
0FFFFF
0FFFFF
0FFFFF
F0F00F
F0F00F
F0F00F
F0F00F
F0F0F0
F0F0F0
F0F0F0
F0F0F0
F0FF00
F0FF00
F0FF00
F0FF00
0FFFFF
0FFFFF
0FFFFF
0FFFFF
ENDCHAR
STARTCHAR LATIN
ENCODING 455
SWIDTH 1920 0
DWIDTH 20 0
BBX 20 28 0 0
BITMAP
F000F0
F000F0
F000F0
F000F0
F000F0
F000F0
F000F0
F000F0
F000F0
F000F0
F000F0
F000F0
F000F0
F000F0
F000F0
F000F0
F000F0
F000F0
F000F0
F000F0
F0F0F0
F0F0F0
F0F0F0
F0F0F0
FF0F00
FF0F00
FF0F00
FF0F00
ENDCHAR
STARTCHAR LATIN
ENCODING 456
SWIDTH 1920 0
DWIDTH 20 0
BBX 20 36 0 -8
BITMAP
F000F0
F000F0
F000F0
F000F0
F00000
F00000
F00000
F00000
F00FF0
F00FF0
F00FF0
F00FF0
F000F0
F000F0
F000F0
F000F0
F000F0
F000F0
F000F0
F000F0
F000F0
F000F0
F000F0
F000F0
FFF0F0
FFF0F0
FFF0F0
FFF0F0
0000F0
0000F0
0000F0
0000F0
00FF00
00FF00
00FF00
00FF00
ENDCHAR
STARTCHAR LATIN
ENCODING 457
SWIDTH 1920 0
DWIDTH 20 0
BBX 20 36 0 -8
BITMAP
FF00F0
FF00F0
FF00F0
FF00F0
0F0000
0F0000
0F0000
0F0000
0F0FF0
0F0FF0
0F0FF0
0F0FF0
0F00F0
0F00F0
0F00F0
0F00F0
0F00F0
0F00F0
0F00F0
0F00F0
0F00F0
0F00F0
0F00F0
0F00F0
0FF0F0
0FF0F0
0FF0F0
0FF0F0
0000F0
0000F0
0000F0
0000F0
00FF00
00FF00
00FF00
00FF00
ENDCHAR
STARTCHAR LATIN
ENCODING 458
SWIDTH 1920 0
DWIDTH 20 0
BBX 20 28 0 0
BITMAP
F0F0F0
F0F0F0
F0F0F0
F0F0F0
F0F0F0
F0F0F0
F0F0F0
F0F0F0
FFF0F0
FFF0F0
FFF0F0
FFF0F0
FFF0F0
FFF0F0
FFF0F0
FFF0F0
FFF0F0
FFF0F0
FFF0F0
FFF0F0
F0F0F0
F0F0F0
F0F0F0
F0F0F0
F0FF00
F0FF00
F0FF00
F0FF00
ENDCHAR
STARTCHAR LATIN
ENCODING 459
SWIDTH 1920 0
DWIDTH 20 0
BBX 20 36 0 -8
BITMAP
F0F0F0
F0F0F0
F0F0F0
F0F0F0
F0F000
F0F000
F0F000
F0F000
FFFFF0
FFFFF0
FFFFF0
FFFFF0
FFF0F0
FFF0F0
FFF0F0
FFF0F0
FFF0F0
FFF0F0
FFF0F0
FFF0F0
F0F0F0
F0F0F0
F0F0F0
F0F0F0
F0F0F0
F0F0F0
F0F0F0
F0F0F0
0000F0
0000F0
0000F0
0000F0
00FF00
00FF00
00FF00
00FF00
ENDCHAR
STARTCHAR LATIN
ENCODING 460
SWIDTH 1920 0
DWIDTH 20 0
BBX 20 36 0 -8
BITMAP
0000F0
0000F0
0000F0
0000F0
000000
000000
000000
000000
FF0FF0
FF0FF0
FF0FF0
FF0FF0
F0F0F0
F0F0F0
F0F0F0
F0F0F0
F0F0F0
F0F0F0
F0F0F0
F0F0F0
F0F0F0
F0F0F0
F0F0F0
F0F0F0
F0F0F0
F0F0F0
F0F0F0
F0F0F0
0000F0
0000F0
0000F0
0000F0
00FF00
00FF00
00FF00
00FF00
ENDCHAR
STARTCHAR uni0041
ENCODING 461
SWIDTH 1920 0
DWIDTH 20 0
BBX 16 32 4 0
BITMAP
F00F
F00F
F00F
F00F
0FF0
0FF0
0FF0
0FF0
0000
0000
0000
0000
0FF0
0FF0
0FF0
0FF0
F00F
F00F
F00F
F00F
FFFF
FFFF
FFFF
FFFF
F00F
F00F
F00F
F00F
F00F
F00F
F00F
F00F
ENDCHAR
STARTCHAR uni0061
ENCODING 462
SWIDTH 1920 0
DWIDTH 20 0
BBX 16 32 4 0
BITMAP
F00F
F00F
F00F
F00F
0FF0
0FF0
0FF0
0FF0
0000
0000
0000
0000
0FFF
0FFF
0FFF
0FFF
F00F
F00F
F00F
F00F
F00F
F00F
F00F
F00F
F0FF
F0FF
F0FF
F0FF
0F0F
0F0F
0F0F
0F0F
ENDCHAR
STARTCHAR uni0049
ENCODING 463
SWIDTH 1920 0
DWIDTH 20 0
BBX 12 32 4 0
BITMAP
F0F0
F0F0
F0F0
F0F0
0F00
0F00
0F00
0F00
0000
0000
0000
0000
FFF0
FFF0
FFF0
FFF0
0F00
0F00
0F00
0F00
0F00
0F00
0F00
0F00
0F00
0F00
0F00
0F00
FFF0
FFF0
FFF0
FFF0
ENDCHAR
STARTCHAR uni0069
ENCODING 464
SWIDTH 1920 0
DWIDTH 20 0
BBX 12 32 8 0
BITMAP
F0F0
F0F0
F0F0
F0F0
0F00
0F00
0F00
0F00
0000
0000
0000
0000
FF00
FF00
FF00
FF00
0F00
0F00
0F00
0F00
0F00
0F00
0F00
0F00
0F00
0F00
0F00
0F00
0F00
0F00
0F00
0F00
ENDCHAR
STARTCHAR uni004F
ENCODING 465
SWIDTH 1920 0
DWIDTH 20 0
BBX 16 32 4 0
BITMAP
F00F
F00F
F00F
F00F
0FF0
0FF0
0FF0
0FF0
0000
0000
0000
0000
0FF0
0FF0
0FF0
0FF0
F00F
F00F
F00F
F00F
F00F
F00F
F00F
F00F
F00F
F00F
F00F
F00F
0FF0
0FF0
0FF0
0FF0
ENDCHAR
STARTCHAR uni004F
ENCODING 466
SWIDTH 1920 0
DWIDTH 20 0
BBX 16 28 4 0
BITMAP
F00F
F00F
F00F
F00F
0FF0
0FF0
0FF0
0FF0
0000
0000
0000
0000
0FF0
0FF0
0FF0
0FF0
F00F
F00F
F00F
F00F
F00F
F00F
F00F
F00F
0FF0
0FF0
0FF0
0FF0
ENDCHAR
STARTCHAR uni0055
ENCODING 467
SWIDTH 1920 0
DWIDTH 20 0
BBX 16 32 4 0
BITMAP
0F0F
0F0F
0F0F
0F0F
00F0
00F0
00F0
00F0
F00F
F00F
F00F
F00F
F00F
F00F
F00F
F00F
F00F
F00F
F00F
F00F
F00F
F00F
F00F
F00F
F00F
F00F
F00F
F00F
0FFF
0FFF
0FFF
0FFF
ENDCHAR
STARTCHAR uni0075
ENCODING 468
SWIDTH 1920 0
DWIDTH 20 0
BBX 16 28 4 0
BITMAP
F00F
F00F
F00F
F00F
0FF0
0FF0
0FF0
0FF0
0000
0000
0000
0000
F00F
F00F
F00F
F00F
F00F
F00F
F00F
F00F
F00F
F00F
F00F
F00F
0FFF
0FFF
0FFF
0FFF
ENDCHAR
STARTCHAR uni0055
ENCODING 469
SWIDTH 1920 0
DWIDTH 20 0
BBX 16 32 4 0
BITMAP
FFFF
FFFF
FFFF
FFFF
00F0
00F0
00F0
00F0
F00F
F00F
F00F
F00F
F00F
F00F
F00F
F00F
F00F
F00F
F00F
F00F
F00F
F00F
F00F
F00F
F00F
F00F
F00F
F00F
0FFF
0FFF
0FFF
0FFF
ENDCHAR
STARTCHAR uni0075
ENCODING 470
SWIDTH 1920 0
DWIDTH 20 0
BBX 16 32 4 0
BITMAP
FFFF
FFFF
FFFF
FFFF
0FF0
0FF0
0FF0
0FF0
0000
0000
0000
0000
F00F
F00F
F00F
F00F
F00F
F00F
F00F
F00F
F00F
F00F
F00F
F00F
F00F
F00F
F00F
F00F
0FFF
0FFF
0FFF
0FFF
ENDCHAR
STARTCHAR uni0055
ENCODING 471
SWIDTH 1920 0
DWIDTH 20 0
BBX 16 32 4 0
BITMAP
00F0
00F0
00F0
00F0
0F00
0F00
0F00
0F00
FF0F
FF0F
FF0F
FF0F
F00F
F00F
F00F
F00F
F00F
F00F
F00F
F00F
F00F
F00F
F00F
F00F
F00F
F00F
F00F
F00F
0FFF
0FFF
0FFF
0FFF
ENDCHAR
STARTCHAR uni0075
ENCODING 472
SWIDTH 1920 0
DWIDTH 20 0
BBX 16 32 4 0
BITMAP
00F0
00F0
00F0
00F0
0FF0
0FF0
0FF0
0FF0
0000
0000
0000
0000
F00F
F00F
F00F
F00F
F00F
F00F
F00F
F00F
F00F
F00F
F00F
F00F
F00F
F00F
F00F
F00F
0FFF
0FFF
0FFF
0FFF
ENDCHAR
STARTCHAR uni0055
ENCODING 473
SWIDTH 1920 0
DWIDTH 20 0
BBX 16 32 4 0
BITMAP
0F0F
0F0F
0F0F
0F0F
00F0
00F0
00F0
00F0
FF0F
FF0F
FF0F
FF0F
F00F
F00F
F00F
F00F
F00F
F00F
F00F
F00F
F00F
F00F
F00F
F00F
F00F
F00F
F00F
F00F
0FFF
0FFF
0FFF
0FFF
ENDCHAR
STARTCHAR uni0075
ENCODING 474
SWIDTH 1920 0
DWIDTH 20 0
BBX 16 32 4 0
BITMAP
0F0F
0F0F
0F0F
0F0F
00F0
00F0
00F0
00F0
0F0F
0F0F
0F0F
0F0F
0000
0000
0000
0000
F00F
F00F
F00F
F00F
F00F
F00F
F00F
F00F
F00F
F00F
F00F
F00F
0FFF
0FFF
0FFF
0FFF
ENDCHAR
STARTCHAR uni0055
ENCODING 475
SWIDTH 1920 0
DWIDTH 20 0
BBX 16 32 4 0
BITMAP
0F00
0F00
0F00
0F00
00F0
00F0
00F0
00F0
F0FF
F0FF
F0FF
F0FF
F00F
F00F
F00F
F00F
F00F
F00F
F00F
F00F
F00F
F00F
F00F
F00F
F00F
F00F
F00F
F00F
0FFF
0FFF
0FFF
0FFF
ENDCHAR
STARTCHAR uni0075
ENCODING 476
SWIDTH 1920 0
DWIDTH 20 0
BBX 16 32 4 0
BITMAP
0F00
0F00
0F00
0F00
0FF0
0FF0
0FF0
0FF0
0000
0000
0000
0000
F00F
F00F
F00F
F00F
F00F
F00F
F00F
F00F
F00F
F00F
F00F
F00F
F00F
F00F
F00F
F00F
0FFF
0FFF
0FFF
0FFF
ENDCHAR
STARTCHAR uni0065
ENCODING 477
SWIDTH 1920 0
DWIDTH 20 0
BBX 16 20 4 0
BITMAP
FFF0
FFF0
FFF0
FFF0
000F
000F
000F
000F
FFFF
FFFF
FFFF
FFFF
F00F
F00F
F00F
F00F
0FF0
0FF0
0FF0
0FF0
ENDCHAR
STARTCHAR uni0041
ENCODING 478
SWIDTH 1920 0
DWIDTH 20 0
BBX 16 32 4 0
BITMAP
FFFF
FFFF
FFFF
FFFF
F0F0
F0F0
F0F0
F0F0
0000
0000
0000
0000
0FF0
0FF0
0FF0
0FF0
F00F
F00F
F00F
F00F
FFFF
FFFF
FFFF
FFFF
F00F
F00F
F00F
F00F
F00F
F00F
F00F
F00F
ENDCHAR
STARTCHAR uni0061
ENCODING 479
SWIDTH 1920 0
DWIDTH 20 0
BBX 16 32 4 0
BITMAP
FFFF
FFFF
FFFF
FFFF
F0F0
F0F0
F0F0
F0F0
0000
0000
0000
0000
0FFF
0FFF
0FFF
0FFF
F00F
F00F
F00F
F00F
F00F
F00F
F00F
F00F
F0FF
F0FF
F0FF
F0FF
0F0F
0F0F
0F0F
0F0F
ENDCHAR
STARTCHAR uni0041
ENCODING 480
SWIDTH 1920 0
DWIDTH 20 0
BBX 16 32 4 0
BITMAP
FFFF
FFFF
FFFF
FFFF
0FF0
0FF0
0FF0
0FF0
0000
0000
0000
0000
0FF0
0FF0
0FF0
0FF0
F00F
F00F
F00F
F00F
FFFF
FFFF
FFFF
FFFF
F00F
F00F
F00F
F00F
F00F
F00F
F00F
F00F
ENDCHAR
STARTCHAR uni0061
ENCODING 481
SWIDTH 1920 0
DWIDTH 20 0
BBX 16 32 4 0
BITMAP
FFFF
FFFF
FFFF
FFFF
0FF0
0FF0
0FF0
0FF0
0000
0000
0000
0000
0FFF
0FFF
0FFF
0FFF
F00F
F00F
F00F
F00F
F00F
F00F
F00F
F00F
F0FF
F0FF
F0FF
F0FF
0F0F
0F0F
0F0F
0F0F
ENDCHAR
STARTCHAR LATIN
ENCODING 482
SWIDTH 1920 0
DWIDTH 20 0
BBX 20 36 0 0
BITMAP
0FFF00
0FFF00
0FFF00
0FFF00
000000
000000
000000
000000
0FFFF0
0FFFF0
0FFFF0
0FFFF0
F0F000
F0F000
F0F000
F0F000
F0F000
F0F000
F0F000
F0F000
FFFF00
FFFF00
FFFF00
FFFF00
F0F000
F0F000
F0F000
F0F000
F0F000
F0F000
F0F000
F0F000
F0FFF0
F0FFF0
F0FFF0
F0FFF0
ENDCHAR
STARTCHAR LATIN
ENCODING 483
SWIDTH 1920 0
DWIDTH 20 0
BBX 20 28 0 0
BITMAP
0FFF00
0FFF00
0FFF00
0FFF00
000000
000000
000000
000000
0FFF00
0FFF00
0FFF00
0FFF00
F0F0F0
F0F0F0
F0F0F0
F0F0F0
F0FFF0
F0FFF0
F0FFF0
F0FFF0
F0F000
F0F000
F0F000
F0F000
0FFFF0
0FFFF0
0FFFF0
0FFFF0
ENDCHAR
STARTCHAR uni0047
ENCODING 484
SWIDTH 1920 0
DWIDTH 20 0
BBX 16 24 4 0
BITMAP
0FFF
0FFF
0FFF
0FFF
F000
F000
F000
F000
F000
F000
F000
F000
F0FF
F0FF
F0FF
F0FF
F0FF
F0FF
F0FF
F0FF
0FFF
0FFF
0FFF
0FFF
ENDCHAR
STARTCHAR uni0067
ENCODING 485
SWIDTH 1920 0
DWIDTH 20 0
BBX 16 28 4 -8
BITMAP
0FFF
0FFF
0FFF
0FFF
F00F
F00F
F00F
F00F
F00F
F00F
F00F
F00F
F0FF
F0FF
F0FF
F0FF
0FFF
0FFF
0FFF
0FFF
0F0F
0F0F
0F0F
0F0F
0FF0
0FF0
0FF0
0FF0
ENDCHAR
STARTCHAR uni0047
ENCODING 486
SWIDTH 1920 0
DWIDTH 20 0
BBX 16 32 4 0
BITMAP
0F0F
0F0F
0F0F
0F0F
00F0
00F0
00F0
00F0
0000
0000
0000
0000
0FFF
0FFF
0FFF
0FFF
F000
F000
F000
F000
F0FF
F0FF
F0FF
F0FF
F00F
F00F
F00F
F00F
0FFF
0FFF
0FFF
0FFF
ENDCHAR
STARTCHAR uni0067
ENCODING 487
SWIDTH 1920 0
DWIDTH 20 0
BBX 16 40 4 -8
BITMAP
0F0F
0F0F
0F0F
0F0F
00F0
00F0
00F0
00F0
0000
0000
0000
0000
0FFF
0FFF
0FFF
0FFF
F00F
F00F
F00F
F00F
F00F
F00F
F00F
F00F
F0FF
F0FF
F0FF
F0FF
0F0F
0F0F
0F0F
0F0F
000F
000F
000F
000F
0FF0
0FF0
0FF0
0FF0
ENDCHAR
STARTCHAR uni004B
ENCODING 488
SWIDTH 1920 0
DWIDTH 20 0
BBX 16 24 4 0
BITMAP
F00F
F00F
F00F
F00F
F0F0
F0F0
F0F0
F0F0
FF00
FF00
FF00
FF00
F0F0
F0F0
F0F0
F0F0
F00F
F00F
F00F
F00F
F00F
F00F
F00F
F00F
ENDCHAR
STARTCHAR uni006B
ENCODING 489
SWIDTH 1920 0
DWIDTH 20 0
BBX 16 28 4 0
BITMAP
F000
F000
F000
F000
F000
F000
F000
F000
F00F
F00F
F00F
F00F
F0F0
F0F0
F0F0
F0F0
FFF0
FFF0
FFF0
FFF0
F00F
F00F
F00F
F00F
F00F
F00F
F00F
F00F
ENDCHAR
STARTCHAR uni0051
ENCODING 490
SWIDTH 1920 0
DWIDTH 20 0
BBX 16 28 4 -4
BITMAP
0FF0
0FF0
0FF0
0FF0
F00F
F00F
F00F
F00F
F00F
F00F
F00F
F00F
F00F
F00F
F00F
F00F
F00F
F00F
F00F
F00F
0FF0
0FF0
0FF0
0FF0
00FF
00FF
00FF
00FF
ENDCHAR
STARTCHAR uni0051
ENCODING 491
SWIDTH 1920 0
DWIDTH 20 0
BBX 16 24 4 -4
BITMAP
0FF0
0FF0
0FF0
0FF0
F00F
F00F
F00F
F00F
F00F
F00F
F00F
F00F
F00F
F00F
F00F
F00F
0FF0
0FF0
0FF0
0FF0
00FF
00FF
00FF
00FF
ENDCHAR
STARTCHAR uni0051
ENCODING 492
SWIDTH 1920 0
DWIDTH 20 0
BBX 16 36 4 -4
BITMAP
0F0F
0F0F
0F0F
0F0F
00F0
00F0
00F0
00F0
0FF0
0FF0
0FF0
0FF0
F00F
F00F
F00F
F00F
F00F
F00F
F00F
F00F
F00F
F00F
F00F
F00F
F00F
F00F
F00F
F00F
0FF0
0FF0
0FF0
0FF0
00FF
00FF
00FF
00FF
ENDCHAR
STARTCHAR uni0051
ENCODING 493
SWIDTH 1920 0
DWIDTH 20 0
BBX 16 36 4 -4
BITMAP
0F0F
0F0F
0F0F
0F0F
00F0
00F0
00F0
00F0
0000
0000
0000
0000
0FF0
0FF0
0FF0
0FF0
F00F
F00F
F00F
F00F
F00F
F00F
F00F
F00F
F00F
F00F
F00F
F00F
0FF0
0FF0
0FF0
0FF0
00FF
00FF
00FF
00FF
ENDCHAR
STARTCHAR LATIN
ENCODING 494
SWIDTH 1920 0
DWIDTH 20 0
BBX 16 32 4 0
BITMAP
0F0F
0F0F
0F0F
0F0F
00F0
00F0
00F0
00F0
FFFF
FFFF
FFFF
FFFF
000F
000F
000F
000F
00F0
00F0
00F0
00F0
000F
000F
000F
000F
F00F
F00F
F00F
F00F
0FF0
0FF0
0FF0
0FF0
ENDCHAR
STARTCHAR LATIN
ENCODING 495
SWIDTH 1920 0
DWIDTH 20 0
BBX 16 36 4 -4
BITMAP
0F0F
0F0F
0F0F
0F0F
00F0
00F0
00F0
00F0
0000
0000
0000
0000
FFFF
FFFF
FFFF
FFFF
000F
000F
000F
000F
00F0
00F0
00F0
00F0
000F
000F
000F
000F
F00F
F00F
F00F
F00F
0FF0
0FF0
0FF0
0FF0
ENDCHAR
STARTCHAR uni006A
ENCODING 496
SWIDTH 1920 0
DWIDTH 20 0
BBX 16 40 4 -8
BITMAP
0F0F
0F0F
0F0F
0F0F
00F0
00F0
00F0
00F0
0000
0000
0000
0000
0FF0
0FF0
0FF0
0FF0
00F0
00F0
00F0
00F0
00F0
00F0
00F0
00F0
00F0
00F0
00F0
00F0
00F0
00F0
00F0
00F0
00F0
00F0
00F0
00F0
FF00
FF00
FF00
FF00
ENDCHAR
STARTCHAR LATIN
ENCODING 497
SWIDTH 1920 0
DWIDTH 20 0
BBX 24 28 0 0
BITMAP
FF0FFF
FF0FFF
FF0FFF
FF0FFF
F0F00F
F0F00F
F0F00F
F0F00F
F0F0F0
F0F0F0
F0F0F0
F0F0F0
F0F0F0
F0F0F0
F0F0F0
F0F0F0
F0F0F0
F0F0F0
F0F0F0
F0F0F0
F0FF00
F0FF00
F0FF00
F0FF00
FF0FFF
FF0FFF
FF0FFF
FF0FFF
ENDCHAR
STARTCHAR LATIN
ENCODING 498
SWIDTH 1920 0
DWIDTH 20 0
BBX 24 28 0 0
BITMAP
FF0000
FF0000
FF0000
FF0000
F0F000
F0F000
F0F000
F0F000
F0FFFF
F0FFFF
F0FFFF
F0FFFF
F0F00F
F0F00F
F0F00F
F0F00F
F0F0F0
F0F0F0
F0F0F0
F0F0F0
F0FF00
F0FF00
F0FF00
F0FF00
FF0FFF
FF0FFF
FF0FFF
FF0FFF
ENDCHAR
STARTCHAR LATIN
ENCODING 499
SWIDTH 1920 0
DWIDTH 20 0
BBX 24 28 0 0
BITMAP
00F000
00F000
00F000
00F000
00F000
00F000
00F000
00F000
0FFFFF
0FFFFF
0FFFFF
0FFFFF
F0F00F
F0F00F
F0F00F
F0F00F
F0F0F0
F0F0F0
F0F0F0
F0F0F0
F0FF00
F0FF00
F0FF00
F0FF00
0FFFFF
0FFFFF
0FFFFF
0FFFFF
ENDCHAR
STARTCHAR uni0047
ENCODING 500
SWIDTH 1920 0
DWIDTH 20 0
BBX 16 32 4 0
BITMAP
0F0F
0F0F
0F0F
0F0F
00F0
00F0
00F0
00F0
0FFF
0FFF
0FFF
0FFF
F000
F000
F000
F000
F000
F000
F000
F000
F0FF
F0FF
F0FF
F0FF
F00F
F00F
F00F
F00F
0FFF
0FFF
0FFF
0FFF
ENDCHAR
STARTCHAR uni0067
ENCODING 501
SWIDTH 1920 0
DWIDTH 20 0
BBX 16 40 4 -8
BITMAP
0F0F
0F0F
0F0F
0F0F
00F0
00F0
00F0
00F0
0000
0000
0000
0000
0FFF
0FFF
0FFF
0FFF
F00F
F00F
F00F
F00F
F00F
F00F
F00F
F00F
F0FF
F0FF
F0FF
F0FF
0F0F
0F0F
0F0F
0F0F
000F
000F
000F
000F
0FF0
0FF0
0FF0
0FF0
ENDCHAR
STARTCHAR LATIN
ENCODING 502
SWIDTH 1920 0
DWIDTH 20 0
BBX 20 28 0 0
BITMAP
F0F000
F0F000
F0F000
F0F000
F0F000
F0F000
F0F000
F0F000
F0F0F0
F0F0F0
F0F0F0
F0F0F0
FFF0F0
FFF0F0
FFF0F0
FFF0F0
F0F0F0
F0F0F0
F0F0F0
F0F0F0
F0F0F0
F0F0F0
F0F0F0
F0F0F0
F00F00
F00F00
F00F00
F00F00
ENDCHAR
STARTCHAR LATIN
ENCODING 503
SWIDTH 1920 0
DWIDTH 20 0
BBX 20 28 0 0
BITMAP
F0FF00
F0FF00
F0FF00
F0FF00
FF00F0
FF00F0
FF00F0
FF00F0
F000F0
F000F0
F000F0
F000F0
F00F00
F00F00
F00F00
F00F00
F0F000
F0F000
F0F000
F0F000
FF0000
FF0000
FF0000
FF0000
F00000
F00000
F00000
F00000
ENDCHAR
STARTCHAR uni004E
ENCODING 504
SWIDTH 1920 0
DWIDTH 20 0
BBX 16 32 4 0
BITMAP
0F00
0F00
0F00
0F00
00F0
00F0
00F0
00F0
F00F
F00F
F00F
F00F
FF0F
FF0F
FF0F
FF0F
FF0F
FF0F
FF0F
FF0F
F0FF
F0FF
F0FF
F0FF
F0FF
F0FF
F0FF
F0FF
F00F
F00F
F00F
F00F
ENDCHAR
STARTCHAR uni006E
ENCODING 505
SWIDTH 1920 0
DWIDTH 20 0
BBX 16 32 4 0
BITMAP
0F00
0F00
0F00
0F00
00F0
00F0
00F0
00F0
0000
0000
0000
0000
FFF0
FFF0
FFF0
FFF0
F00F
F00F
F00F
F00F
F00F
F00F
F00F
F00F
F00F
F00F
F00F
F00F
F00F
F00F
F00F
F00F
ENDCHAR
STARTCHAR uni0041
ENCODING 506
SWIDTH 1920 0
DWIDTH 20 0
BBX 16 32 4 0
BITMAP
0FF0
0FF0
0FF0
0FF0
FF00
FF00
FF00
FF00
0F00
0F00
0F00
0F00
0FF0
0FF0
0FF0
0FF0
F00F
F00F
F00F
F00F
FFFF
FFFF
FFFF
FFFF
F00F
F00F
F00F
F00F
F00F
F00F
F00F
F00F
ENDCHAR
STARTCHAR uni0061
ENCODING 507
SWIDTH 1920 0
DWIDTH 20 0
BBX 16 32 4 0
BITMAP
0FF0
0FF0
0FF0
0FF0
FF00
FF00
FF00
FF00
0F00
0F00
0F00
0F00
0FFF
0FFF
0FFF
0FFF
F00F
F00F
F00F
F00F
F00F
F00F
F00F
F00F
F0FF
F0FF
F0FF
F0FF
0F0F
0F0F
0F0F
0F0F
ENDCHAR
STARTCHAR char198
ENCODING 508
SWIDTH 1920 0
DWIDTH 20 0
BBX 24 32 0 0
BITMAP
000F00
000F00
000F00
000F00
00F000
00F000
00F000
00F000
0FFFFF
0FFFFF
0FFFFF
0FFFFF
F00F00
F00F00
F00F00
F00F00
F00FF0
F00FF0
F00FF0
F00FF0
FFFF00
FFFF00
FFFF00
FFFF00
F00F00
F00F00
F00F00
F00F00
F00FFF
F00FFF
F00FFF
F00FFF
ENDCHAR
STARTCHAR char230
ENCODING 509
SWIDTH 1920 0
DWIDTH 20 0
BBX 20 28 4 0
BITMAP
000F00
000F00
000F00
000F00
00F000
00F000
00F000
00F000
0FFF00
0FFF00
0FFF00
0FFF00
F0F0F0
F0F0F0
F0F0F0
F0F0F0
F0FFF0
F0FFF0
F0FFF0
F0FFF0
F0F000
F0F000
F0F000
F0F000
0F0FF0
0F0FF0
0F0FF0
0F0FF0
ENDCHAR
STARTCHAR char216
ENCODING 510
SWIDTH 1920 0
DWIDTH 20 0
BBX 24 32 0 0
BITMAP
0000F0
0000F0
0000F0
0000F0
000F0F
000F0F
000F0F
000F0F
00FF0F
00FF0F
00FF0F
00FF0F
0F0FF0
0F0FF0
0F0FF0
0F0FF0
0F0FF0
0F0FF0
0F0FF0
0F0FF0
0FF0F0
0FF0F0
0FF0F0
0FF0F0
0FF0F0
0FF0F0
0FF0F0
0FF0F0
F0FF00
F0FF00
F0FF00
F0FF00
ENDCHAR
STARTCHAR char248
ENCODING 511
SWIDTH 1920 0
DWIDTH 20 0
BBX 24 32 0 0
BITMAP
0000F0
0000F0
0000F0
0000F0
000F0F
000F0F
000F0F
000F0F
000000
000000
000000
000000
00FF0F
00FF0F
00FF0F
00FF0F
0F0FF0
0F0FF0
0F0FF0
0F0FF0
0FFFF0
0FFFF0
0FFFF0
0FFFF0
0FF0F0
0FF0F0
0FF0F0
0FF0F0
F0FF00
F0FF00
F0FF00
F0FF00
ENDCHAR
STARTCHAR uni0041
ENCODING 512
SWIDTH 1920 0
DWIDTH 20 0
BBX 16 32 4 0
BITMAP
F0F0
F0F0
F0F0
F0F0
0F0F
0F0F
0F0F
0F0F
0FF0
0FF0
0FF0
0FF0
F00F
F00F
F00F
F00F
F00F
F00F
F00F
F00F
FFFF
FFFF
FFFF
FFFF
F00F
F00F
F00F
F00F
F00F
F00F
F00F
F00F
ENDCHAR
STARTCHAR uni0061
ENCODING 513
SWIDTH 1920 0
DWIDTH 20 0
BBX 16 32 4 0
BITMAP
F0F0
F0F0
F0F0
F0F0
0F0F
0F0F
0F0F
0F0F
0000
0000
0000
0000
0FFF
0FFF
0FFF
0FFF
F00F
F00F
F00F
F00F
F00F
F00F
F00F
F00F
F0FF
F0FF
F0FF
F0FF
0F0F
0F0F
0F0F
0F0F
ENDCHAR
STARTCHAR uni0041
ENCODING 514
SWIDTH 1920 0
DWIDTH 20 0
BBX 16 32 4 0
BITMAP
0FF0
0FF0
0FF0
0FF0
F00F
F00F
F00F
F00F
0FF0
0FF0
0FF0
0FF0
F00F
F00F
F00F
F00F
F00F
F00F
F00F
F00F
FFFF
FFFF
FFFF
FFFF
F00F
F00F
F00F
F00F
F00F
F00F
F00F
F00F
ENDCHAR
STARTCHAR uni0061
ENCODING 515
SWIDTH 1920 0
DWIDTH 20 0
BBX 16 32 4 0
BITMAP
0FF0
0FF0
0FF0
0FF0
F00F
F00F
F00F
F00F
0000
0000
0000
0000
0FFF
0FFF
0FFF
0FFF
F00F
F00F
F00F
F00F
F00F
F00F
F00F
F00F
F0FF
F0FF
F0FF
F0FF
0F0F
0F0F
0F0F
0F0F
ENDCHAR
STARTCHAR uni0045
ENCODING 516
SWIDTH 1920 0
DWIDTH 20 0
BBX 16 32 4 0
BITMAP
F0F0
F0F0
F0F0
F0F0
0F0F
0F0F
0F0F
0F0F
FFFF
FFFF
FFFF
FFFF
F000
F000
F000
F000
FFF0
FFF0
FFF0
FFF0
F000
F000
F000
F000
F000
F000
F000
F000
FFFF
FFFF
FFFF
FFFF
ENDCHAR
STARTCHAR uni0065
ENCODING 517
SWIDTH 1920 0
DWIDTH 20 0
BBX 16 32 4 0
BITMAP
F0F0
F0F0
F0F0
F0F0
0F0F
0F0F
0F0F
0F0F
0000
0000
0000
0000
0FF0
0FF0
0FF0
0FF0
F00F
F00F
F00F
F00F
FFFF
FFFF
FFFF
FFFF
F000
F000
F000
F000
0FFF
0FFF
0FFF
0FFF
ENDCHAR
STARTCHAR uni0045
ENCODING 518
SWIDTH 1920 0
DWIDTH 20 0
BBX 16 32 4 0
BITMAP
0FF0
0FF0
0FF0
0FF0
F00F
F00F
F00F
F00F
FFFF
FFFF
FFFF
FFFF
F000
F000
F000
F000
FFF0
FFF0
FFF0
FFF0
F000
F000
F000
F000
F000
F000
F000
F000
FFFF
FFFF
FFFF
FFFF
ENDCHAR
STARTCHAR uni0065
ENCODING 519
SWIDTH 1920 0
DWIDTH 20 0
BBX 16 28 4 0
BITMAP
0FF0
0FF0
0FF0
0FF0
F00F
F00F
F00F
F00F
0FF0
0FF0
0FF0
0FF0
F00F
F00F
F00F
F00F
FFFF
FFFF
FFFF
FFFF
F000
F000
F000
F000
0FFF
0FFF
0FFF
0FFF
ENDCHAR
STARTCHAR uni0049
ENCODING 520
SWIDTH 1920 0
DWIDTH 20 0
BBX 16 32 4 0
BITMAP
F0F0
F0F0
F0F0
F0F0
0F0F
0F0F
0F0F
0F0F
FFF0
FFF0
FFF0
FFF0
0F00
0F00
0F00
0F00
0F00
0F00
0F00
0F00
0F00
0F00
0F00
0F00
0F00
0F00
0F00
0F00
FFF0
FFF0
FFF0
FFF0
ENDCHAR
STARTCHAR uni0069
ENCODING 521
SWIDTH 1920 0
DWIDTH 20 0
BBX 16 32 4 0
BITMAP
F0F0
F0F0
F0F0
F0F0
0F0F
0F0F
0F0F
0F0F
0000
0000
0000
0000
0FF0
0FF0
0FF0
0FF0
00F0
00F0
00F0
00F0
00F0
00F0
00F0
00F0
00F0
00F0
00F0
00F0
00F0
00F0
00F0
00F0
ENDCHAR
STARTCHAR uni0049
ENCODING 522
SWIDTH 1920 0
DWIDTH 20 0
BBX 20 32 0 0
BITMAP
0FFF00
0FFF00
0FFF00
0FFF00
F000F0
F000F0
F000F0
F000F0
000000
000000
000000
000000
0FFF00
0FFF00
0FFF00
0FFF00
00F000
00F000
00F000
00F000
00F000
00F000
00F000
00F000
00F000
00F000
00F000
00F000
0FFF00
0FFF00
0FFF00
0FFF00
ENDCHAR
STARTCHAR uni0069
ENCODING 523
SWIDTH 1920 0
DWIDTH 20 0
BBX 16 32 4 0
BITMAP
0FF0
0FF0
0FF0
0FF0
F00F
F00F
F00F
F00F
0000
0000
0000
0000
0000
0000
0000
0000
0FF0
0FF0
0FF0
0FF0
00F0
00F0
00F0
00F0
00F0
00F0
00F0
00F0
00F0
00F0
00F0
00F0
ENDCHAR
STARTCHAR LATIN
ENCODING 524
SWIDTH 1920 0
DWIDTH 20 0
BBX 20 36 0 0
BITMAP
F0F000
F0F000
F0F000
F0F000
0F0F00
0F0F00
0F0F00
0F0F00
000000
000000
000000
000000
00FF00
00FF00
00FF00
00FF00
0F00F0
0F00F0
0F00F0
0F00F0
0F00F0
0F00F0
0F00F0
0F00F0
0F00F0
0F00F0
0F00F0
0F00F0
0F00F0
0F00F0
0F00F0
0F00F0
00FF00
00FF00
00FF00
00FF00
ENDCHAR
STARTCHAR LATIN
ENCODING 525
SWIDTH 1920 0
DWIDTH 20 0
BBX 20 32 0 0
BITMAP
F0F000
F0F000
F0F000
F0F000
0F0F00
0F0F00
0F0F00
0F0F00
000000
000000
000000
000000
00FF00
00FF00
00FF00
00FF00
0F00F0
0F00F0
0F00F0
0F00F0
0F00F0
0F00F0
0F00F0
0F00F0
0F00F0
0F00F0
0F00F0
0F00F0
00FF00
00FF00
00FF00
00FF00
ENDCHAR
STARTCHAR LATIN
ENCODING 526
SWIDTH 1920 0
DWIDTH 20 0
BBX 16 36 4 0
BITMAP
0FF0
0FF0
0FF0
0FF0
F00F
F00F
F00F
F00F
0000
0000
0000
0000
0FF0
0FF0
0FF0
0FF0
F00F
F00F
F00F
F00F
F00F
F00F
F00F
F00F
F00F
F00F
F00F
F00F
F00F
F00F
F00F
F00F
0FF0
0FF0
0FF0
0FF0
ENDCHAR
STARTCHAR LATIN
ENCODING 527
SWIDTH 1920 0
DWIDTH 20 0
BBX 16 32 4 0
BITMAP
0FF0
0FF0
0FF0
0FF0
F00F
F00F
F00F
F00F
0000
0000
0000
0000
0FF0
0FF0
0FF0
0FF0
F00F
F00F
F00F
F00F
F00F
F00F
F00F
F00F
F00F
F00F
F00F
F00F
0FF0
0FF0
0FF0
0FF0
ENDCHAR
STARTCHAR uni0052
ENCODING 528
SWIDTH 1920 0
DWIDTH 20 0
BBX 16 32 4 0
BITMAP
F0F0
F0F0
F0F0
F0F0
0F0F
0F0F
0F0F
0F0F
FFF0
FFF0
FFF0
FFF0
F00F
F00F
F00F
F00F
F00F
F00F
F00F
F00F
FFF0
FFF0
FFF0
FFF0
F00F
F00F
F00F
F00F
F00F
F00F
F00F
F00F
ENDCHAR
STARTCHAR uni0072
ENCODING 529
SWIDTH 1920 0
DWIDTH 20 0
BBX 16 32 4 0
BITMAP
F0F0
F0F0
F0F0
F0F0
0F0F
0F0F
0F0F
0F0F
0000
0000
0000
0000
F0FF
F0FF
F0FF
F0FF
FF00
FF00
FF00
FF00
F000
F000
F000
F000
F000
F000
F000
F000
F000
F000
F000
F000
ENDCHAR
STARTCHAR uni0052
ENCODING 530
SWIDTH 1920 0
DWIDTH 20 0
BBX 16 32 4 0
BITMAP
0FF0
0FF0
0FF0
0FF0
F00F
F00F
F00F
F00F
FFF0
FFF0
FFF0
FFF0
F00F
F00F
F00F
F00F
F00F
F00F
F00F
F00F
FFF0
FFF0
FFF0
FFF0
F00F
F00F
F00F
F00F
F00F
F00F
F00F
F00F
ENDCHAR
STARTCHAR uni0072
ENCODING 531
SWIDTH 1920 0
DWIDTH 20 0
BBX 16 32 4 0
BITMAP
0FF0
0FF0
0FF0
0FF0
F00F
F00F
F00F
F00F
0000
0000
0000
0000
F0FF
F0FF
F0FF
F0FF
FF00
FF00
FF00
FF00
F000
F000
F000
F000
F000
F000
F000
F000
F000
F000
F000
F000
ENDCHAR
STARTCHAR uni0055
ENCODING 532
SWIDTH 1920 0
DWIDTH 20 0
BBX 16 32 4 0
BITMAP
F0F0
F0F0
F0F0
F0F0
0F0F
0F0F
0F0F
0F0F
F000
F000
F000
F000
F00F
F00F
F00F
F00F
F00F
F00F
F00F
F00F
F00F
F00F
F00F
F00F
F00F
F00F
F00F
F00F
0FFF
0FFF
0FFF
0FFF
ENDCHAR
STARTCHAR uni0075
ENCODING 533
SWIDTH 1920 0
DWIDTH 20 0
BBX 16 32 4 0
BITMAP
F0F0
F0F0
F0F0
F0F0
0F0F
0F0F
0F0F
0F0F
0000
0000
0000
0000
F00F
F00F
F00F
F00F
F00F
F00F
F00F
F00F
F00F
F00F
F00F
F00F
F00F
F00F
F00F
F00F
0FFF
0FFF
0FFF
0FFF
ENDCHAR
STARTCHAR uni0055
ENCODING 534
SWIDTH 1920 0
DWIDTH 20 0
BBX 16 32 4 0
BITMAP
0FF0
0FF0
0FF0
0FF0
F00F
F00F
F00F
F00F
0000
0000
0000
0000
F00F
F00F
F00F
F00F
F00F
F00F
F00F
F00F
F00F
F00F
F00F
F00F
F00F
F00F
F00F
F00F
0FFF
0FFF
0FFF
0FFF
ENDCHAR
STARTCHAR uni0075
ENCODING 535
SWIDTH 1920 0
DWIDTH 20 0
BBX 16 32 4 0
BITMAP
0FF0
0FF0
0FF0
0FF0
F00F
F00F
F00F
F00F
0000
0000
0000
0000
0000
0000
0000
0000
F00F
F00F
F00F
F00F
F00F
F00F
F00F
F00F
F00F
F00F
F00F
F00F
0FFF
0FFF
0FFF
0FFF
ENDCHAR
STARTCHAR uni0053
ENCODING 536
SWIDTH 1920 0
DWIDTH 20 0
BBX 16 28 4 -4
BITMAP
0FFF
0FFF
0FFF
0FFF
F000
F000
F000
F000
0FF0
0FF0
0FF0
0FF0
000F
000F
000F
000F
000F
000F
000F
000F
FFF0
FFF0
FFF0
FFF0
0F00
0F00
0F00
0F00
ENDCHAR
STARTCHAR uni0073
ENCODING 537
SWIDTH 1920 0
DWIDTH 20 0
BBX 16 24 4 -4
BITMAP
0FFF
0FFF
0FFF
0FFF
F000
F000
F000
F000
0FF0
0FF0
0FF0
0FF0
000F
000F
000F
000F
FFF0
FFF0
FFF0
FFF0
0F00
0F00
0F00
0F00
ENDCHAR
STARTCHAR uni0054
ENCODING 538
SWIDTH 1920 0
DWIDTH 20 0
BBX 20 28 0 -4
BITMAP
FFFFF0
FFFFF0
FFFFF0
FFFFF0
00F000
00F000
00F000
00F000
00F000
00F000
00F000
00F000
00F000
00F000
00F000
00F000
00F000
00F000
00F000
00F000
00F000
00F000
00F000
00F000
0F0000
0F0000
0F0000
0F0000
ENDCHAR
STARTCHAR uni0074
ENCODING 539
SWIDTH 1920 0
DWIDTH 20 0
BBX 12 28 4 -4
BITMAP
0F00
0F00
0F00
0F00
FFF0
FFF0
FFF0
FFF0
0F00
0F00
0F00
0F00
0F00
0F00
0F00
0F00
0F00
0F00
0F00
0F00
0FF0
0FF0
0FF0
0FF0
F000
F000
F000
F000
ENDCHAR
STARTCHAR LATIN
ENCODING 540
SWIDTH 1920 0
DWIDTH 20 0
BBX 16 32 4 -4
BITMAP
0FF0
0FF0
0FF0
0FF0
F00F
F00F
F00F
F00F
000F
000F
000F
000F
0FF0
0FF0
0FF0
0FF0
F00F
F00F
F00F
F00F
000F
000F
000F
000F
0FF0
0FF0
0FF0
0FF0
F000
F000
F000
F000
ENDCHAR
STARTCHAR LATIN
ENCODING 541
SWIDTH 1920 0
DWIDTH 20 0
BBX 16 24 4 0
BITMAP
0FF0
0FF0
0FF0
0FF0
000F
000F
000F
000F
0FF0
0FF0
0FF0
0FF0
F00F
F00F
F00F
F00F
00F0
00F0
00F0
00F0
FF00
FF00
FF00
FF00
ENDCHAR
STARTCHAR uni0048
ENCODING 542
SWIDTH 1920 0
DWIDTH 20 0
BBX 16 32 4 0
BITMAP
0F0F
0F0F
0F0F
0F0F
00F0
00F0
00F0
00F0
F00F
F00F
F00F
F00F
F00F
F00F
F00F
F00F
FFFF
FFFF
FFFF
FFFF
F00F
F00F
F00F
F00F
F00F
F00F
F00F
F00F
F00F
F00F
F00F
F00F
ENDCHAR
STARTCHAR uni0068
ENCODING 543
SWIDTH 1920 0
DWIDTH 20 0
BBX 16 32 4 0
BITMAP
0F0F
0F0F
0F0F
0F0F
F0F0
F0F0
F0F0
F0F0
F000
F000
F000
F000
FFF0
FFF0
FFF0
FFF0
F00F
F00F
F00F
F00F
F00F
F00F
F00F
F00F
F00F
F00F
F00F
F00F
F00F
F00F
F00F
F00F
ENDCHAR
STARTCHAR LATIN
ENCODING 544
SWIDTH 1920 0
DWIDTH 20 0
BBX 20 32 4 -8
BITMAP
F0FF00
F0FF00
F0FF00
F0FF00
FF00F0
FF00F0
FF00F0
FF00F0
F000F0
F000F0
F000F0
F000F0
F000F0
F000F0
F000F0
F000F0
F000F0
F000F0
F000F0
F000F0
F000F0
F000F0
F000F0
F000F0
0000F0
0000F0
0000F0
0000F0
0000F0
0000F0
0000F0
0000F0
ENDCHAR
STARTCHAR LATIN
ENCODING 545
SWIDTH 1920 0
DWIDTH 20 0
BBX 24 32 0 -4
BITMAP
000F00
000F00
000F00
000F00
000F00
000F00
000F00
000F00
0FFF00
0FFF00
0FFF00
0FFF00
F00F00
F00F00
F00F00
F00F00
F00F00
F00F00
F00F00
F00F00
F00FF0
F00FF0
F00FF0
F00FF0
0FFF0F
0FFF0F
0FFF0F
0FFF0F
00F0F0
00F0F0
00F0F0
00F0F0
ENDCHAR
STARTCHAR LATIN
ENCODING 546
SWIDTH 1920 0
DWIDTH 20 0
BBX 20 32 0 0
BITMAP
00FF00
00FF00
00FF00
00FF00
0000F0
0000F0
0000F0
0000F0
0F00F0
0F00F0
0F00F0
0F00F0
F000F0
F000F0
F000F0
F000F0
0FFF00
0FFF00
0FFF00
0FFF00
F000F0
F000F0
F000F0
F000F0
F000F0
F000F0
F000F0
F000F0
0FFF00
0FFF00
0FFF00
0FFF00
ENDCHAR
STARTCHAR LATIN
ENCODING 547
SWIDTH 1920 0
DWIDTH 20 0
BBX 20 28 0 0
BITMAP
0F0F00
0F0F00
0F0F00
0F0F00
F000F0
F000F0
F000F0
F000F0
F000F0
F000F0
F000F0
F000F0
0FFF00
0FFF00
0FFF00
0FFF00
F000F0
F000F0
F000F0
F000F0
F000F0
F000F0
F000F0
F000F0
0FFF00
0FFF00
0FFF00
0FFF00
ENDCHAR
STARTCHAR uni005A
ENCODING 548
SWIDTH 1920 0
DWIDTH 20 0
BBX 20 28 4 -4
BITMAP
FFFF00
FFFF00
FFFF00
FFFF00
000F00
000F00
000F00
000F00
00F000
00F000
00F000
00F000
0F0000
0F0000
0F0000
0F0000
F00000
F00000
F00000
F00000
FFFF00
FFFF00
FFFF00
FFFF00
0000F0
0000F0
0000F0
0000F0
ENDCHAR
STARTCHAR uni007A
ENCODING 549
SWIDTH 1920 0
DWIDTH 20 0
BBX 20 24 4 -4
BITMAP
FFFF00
FFFF00
FFFF00
FFFF00
00F000
00F000
00F000
00F000
0F0000
0F0000
0F0000
0F0000
F00000
F00000
F00000
F00000
FFFF00
FFFF00
FFFF00
FFFF00
0000F0
0000F0
0000F0
0000F0
ENDCHAR
STARTCHAR uni0041
ENCODING 550
SWIDTH 1920 0
DWIDTH 20 0
BBX 16 32 4 0
BITMAP
00F0
00F0
00F0
00F0
0000
0000
0000
0000
0FF0
0FF0
0FF0
0FF0
F00F
F00F
F00F
F00F
F00F
F00F
F00F
F00F
FFFF
FFFF
FFFF
FFFF
F00F
F00F
F00F
F00F
F00F
F00F
F00F
F00F
ENDCHAR
STARTCHAR uni0061
ENCODING 551
SWIDTH 1920 0
DWIDTH 20 0
BBX 16 28 4 0
BITMAP
00F0
00F0
00F0
00F0
0000
0000
0000
0000
0FFF
0FFF
0FFF
0FFF
F00F
F00F
F00F
F00F
F00F
F00F
F00F
F00F
F0FF
F0FF
F0FF
F0FF
0F0F
0F0F
0F0F
0F0F
ENDCHAR
STARTCHAR uni0045
ENCODING 552
SWIDTH 1920 0
DWIDTH 20 0
BBX 16 28 4 -4
BITMAP
FFFF
FFFF
FFFF
FFFF
F000
F000
F000
F000
FFF0
FFF0
FFF0
FFF0
F000
F000
F000
F000
F000
F000
F000
F000
FFFF
FFFF
FFFF
FFFF
0F00
0F00
0F00
0F00
ENDCHAR
STARTCHAR uni0065
ENCODING 553
SWIDTH 1920 0
DWIDTH 20 0
BBX 16 24 4 -4
BITMAP
0FF0
0FF0
0FF0
0FF0
F00F
F00F
F00F
F00F
FFFF
FFFF
FFFF
FFFF
F000
F000
F000
F000
0FFF
0FFF
0FFF
0FFF
F000
F000
F000
F000
ENDCHAR
STARTCHAR LATIN
ENCODING 554
SWIDTH 1920 0
DWIDTH 20 0
BBX 16 32 4 0
BITMAP
FFFF
FFFF
FFFF
FFFF
0000
0000
0000
0000
F00F
F00F
F00F
F00F
0FF0
0FF0
0FF0
0FF0
F00F
F00F
F00F
F00F
F00F
F00F
F00F
F00F
F00F
F00F
F00F
F00F
0FF0
0FF0
0FF0
0FF0
ENDCHAR
STARTCHAR LATIN
ENCODING 555
SWIDTH 1920 0
DWIDTH 20 0
BBX 16 32 4 0
BITMAP
FFFF
FFFF
FFFF
FFFF
0000
0000
0000
0000
F00F
F00F
F00F
F00F
0000
0000
0000
0000
0FF0
0FF0
0FF0
0FF0
F00F
F00F
F00F
F00F
F00F
F00F
F00F
F00F
0FF0
0FF0
0FF0
0FF0
ENDCHAR
STARTCHAR LATIN
ENCODING 556
SWIDTH 1920 0
DWIDTH 20 0
BBX 16 36 4 0
BITMAP
0FFF
0FFF
0FFF
0FFF
0F0F
0F0F
0F0F
0F0F
F0F0
F0F0
F0F0
F0F0
0FF0
0FF0
0FF0
0FF0
F00F
F00F
F00F
F00F
F00F
F00F
F00F
F00F
F00F
F00F
F00F
F00F
F00F
F00F
F00F
F00F
0FF0
0FF0
0FF0
0FF0
ENDCHAR
STARTCHAR LATIN
ENCODING 557
SWIDTH 1920 0
DWIDTH 20 0
BBX 16 36 4 0
BITMAP
FFF0
FFF0
FFF0
FFF0
0F0F
0F0F
0F0F
0F0F
F0F0
F0F0
F0F0
F0F0
0000
0000
0000
0000
0FF0
0FF0
0FF0
0FF0
F00F
F00F
F00F
F00F
F00F
F00F
F00F
F00F
F00F
F00F
F00F
F00F
0FF0
0FF0
0FF0
0FF0
ENDCHAR
STARTCHAR LATIN
ENCODING 558
SWIDTH 1920 0
DWIDTH 20 0
BBX 16 32 4 0
BITMAP
00F0
00F0
00F0
00F0
0000
0000
0000
0000
0FF0
0FF0
0FF0
0FF0
F00F
F00F
F00F
F00F
F00F
F00F
F00F
F00F
F00F
F00F
F00F
F00F
F00F
F00F
F00F
F00F
0FF0
0FF0
0FF0
0FF0
ENDCHAR
STARTCHAR LATIN
ENCODING 559
SWIDTH 1920 0
DWIDTH 20 0
BBX 16 32 4 0
BITMAP
00F0
00F0
00F0
00F0
0000
0000
0000
0000
0000
0000
0000
0000
0FF0
0FF0
0FF0
0FF0
F00F
F00F
F00F
F00F
F00F
F00F
F00F
F00F
F00F
F00F
F00F
F00F
0FF0
0FF0
0FF0
0FF0
ENDCHAR
STARTCHAR LATIN
ENCODING 560
SWIDTH 1920 0
DWIDTH 20 0
BBX 16 32 4 0
BITMAP
FFFF
FFFF
FFFF
FFFF
0000
0000
0000
0000
00F0
00F0
00F0
00F0
0FF0
0FF0
0FF0
0FF0
F00F
F00F
F00F
F00F
F00F
F00F
F00F
F00F
F00F
F00F
F00F
F00F
0FF0
0FF0
0FF0
0FF0
ENDCHAR
STARTCHAR LATIN
ENCODING 561
SWIDTH 1920 0
DWIDTH 20 0
BBX 16 32 4 0
BITMAP
FFFF
FFFF
FFFF
FFFF
0000
0000
0000
0000
00F0
00F0
00F0
00F0
0000
0000
0000
0000
0FF0
0FF0
0FF0
0FF0
F00F
F00F
F00F
F00F
F00F
F00F
F00F
F00F
0FF0
0FF0
0FF0
0FF0
ENDCHAR
STARTCHAR uni0059
ENCODING 562
SWIDTH 1920 0
DWIDTH 20 0
BBX 20 32 0 0
BITMAP
0FFF00
0FFF00
0FFF00
0FFF00
000000
000000
000000
000000
F000F0
F000F0
F000F0
F000F0
0F0F00
0F0F00
0F0F00
0F0F00
00F000
00F000
00F000
00F000
00F000
00F000
00F000
00F000
00F000
00F000
00F000
00F000
00F000
00F000
00F000
00F000
ENDCHAR
STARTCHAR uni0079
ENCODING 563
SWIDTH 1920 0
DWIDTH 20 0
BBX 16 36 4 -8
BITMAP
0FF0
0FF0
0FF0
0FF0
0000
0000
0000
0000
F00F
F00F
F00F
F00F
F00F
F00F
F00F
F00F
F00F
F00F
F00F
F00F
F00F
F00F
F00F
F00F
0FFF
0FFF
0FFF
0FFF
000F
000F
000F
000F
0FF0
0FF0
0FF0
0FF0
ENDCHAR
STARTCHAR LATIN
ENCODING 564
SWIDTH 1920 0
DWIDTH 20 0
BBX 16 28 4 0
BITMAP
FF00
FF00
FF00
FF00
0F00
0F00
0F00
0F00
0F00
0F00
0F00
0F00
0F00
0F00
0F00
0F00
0FF0
0FF0
0FF0
0FF0
FF0F
FF0F
FF0F
FF0F
0FF0
0FF0
0FF0
0FF0
ENDCHAR
STARTCHAR LATIN
ENCODING 565
SWIDTH 1920 0
DWIDTH 20 0
BBX 24 24 0 -4
BITMAP
F0FF00
F0FF00
F0FF00
F0FF00
FF00F0
FF00F0
FF00F0
FF00F0
F000F0
F000F0
F000F0
F000F0
F00FF0
F00FF0
F00FF0
F00FF0
F0FF0F
F0FF0F
F0FF0F
F0FF0F
0000F0
0000F0
0000F0
0000F0
ENDCHAR
STARTCHAR LATIN
ENCODING 566
SWIDTH 1920 0
DWIDTH 20 0
BBX 20 28 4 0
BITMAP
0F0000
0F0000
0F0000
0F0000
0F0000
0F0000
0F0000
0F0000
FFFF00
FFFF00
FFFF00
FFFF00
0F0000
0F0000
0F0000
0F0000
0F0F00
0F0F00
0F0F00
0F0F00
0FF0F0
0FF0F0
0FF0F0
0FF0F0
0FFF00
0FFF00
0FFF00
0FFF00
ENDCHAR
STARTCHAR LATIN
ENCODING 567
SWIDTH 1920 0
DWIDTH 20 0
BBX 12 28 0 -8
BITMAP
0FF0
0FF0
0FF0
0FF0
00F0
00F0
00F0
00F0
00F0
00F0
00F0
00F0
00F0
00F0
00F0
00F0
00F0
00F0
00F0
00F0
00F0
00F0
00F0
00F0
FF00
FF00
FF00
FF00
ENDCHAR
STARTCHAR LATIN
ENCODING 568
SWIDTH 1920 0
DWIDTH 20 0
BBX 20 28 0 0
BITMAP
00F000
00F000
00F000
00F000
00F000
00F000
00F000
00F000
0FFF00
0FFF00
0FFF00
0FFF00
F0F0F0
F0F0F0
F0F0F0
F0F0F0
F0F0F0
F0F0F0
F0F0F0
F0F0F0
F0F0F0
F0F0F0
F0F0F0
F0F0F0
0FFF00
0FFF00
0FFF00
0FFF00
ENDCHAR
STARTCHAR LATIN
ENCODING 569
SWIDTH 1920 0
DWIDTH 20 0
BBX 20 28 0 -8
BITMAP
0FFF00
0FFF00
0FFF00
0FFF00
F0F0F0
F0F0F0
F0F0F0
F0F0F0
F0F0F0
F0F0F0
F0F0F0
F0F0F0
F0F0F0
F0F0F0
F0F0F0
F0F0F0
0FFF00
0FFF00
0FFF00
0FFF00
00F000
00F000
00F000
00F000
00F000
00F000
00F000
00F000
ENDCHAR
STARTCHAR uni0041
ENCODING 570
SWIDTH 1920 0
DWIDTH 20 0
BBX 20 28 0 0
BITMAP
0000F0
0000F0
0000F0
0000F0
00FF00
00FF00
00FF00
00FF00
0F0FF0
0F0FF0
0F0FF0
0F0FF0
0FF0F0
0FF0F0
0FF0F0
0FF0F0
0FFFF0
0FFFF0
0FFFF0
0FFFF0
0F00F0
0F00F0
0F00F0
0F00F0
FF00F0
FF00F0
FF00F0
FF00F0
ENDCHAR
STARTCHAR uni0043
ENCODING 571
SWIDTH 1920 0
DWIDTH 20 0
BBX 20 28 0 0
BITMAP
0000F0
0000F0
0000F0
0000F0
00FFF0
00FFF0
00FFF0
00FFF0
0F0F00
0F0F00
0F0F00
0F0F00
0FF000
0FF000
0FF000
0FF000
0FF000
0FF000
0FF000
0FF000
FF0000
FF0000
FF0000
FF0000
F0FFF0
F0FFF0
F0FFF0
F0FFF0
ENDCHAR
STARTCHAR uni0063
ENCODING 572
SWIDTH 1920 0
DWIDTH 20 0
BBX 20 24 0 0
BITMAP
0000F0
0000F0
0000F0
0000F0
00FFF0
00FFF0
00FFF0
00FFF0
0F0F00
0F0F00
0F0F00
0F0F00
0FF000
0FF000
0FF000
0FF000
0F0000
0F0000
0F0000
0F0000
F0FFF0
F0FFF0
F0FFF0
F0FFF0
ENDCHAR
STARTCHAR LATIN
ENCODING 573
SWIDTH 1920 0
DWIDTH 20 0
BBX 24 28 0 0
BITMAP
0F0000
0F0000
0F0000
0F0000
0F0000
0F0000
0F0000
0F0000
0F0000
0F0000
0F0000
0F0000
FFFF00
FFFF00
FFFF00
FFFF00
0F0000
0F0000
0F0000
0F0000
0F0000
0F0000
0F0000
0F0000
0FFFFF
0FFFFF
0FFFFF
0FFFFF
ENDCHAR
STARTCHAR LATIN
ENCODING 574
SWIDTH 1920 0
DWIDTH 20 0
BBX 20 32 0 0
BITMAP
0000F0
0000F0
0000F0
0000F0
FFFFF0
FFFFF0
FFFFF0
FFFFF0
00FF00
00FF00
00FF00
00FF00
00FF00
00FF00
00FF00
00FF00
0FF000
0FF000
0FF000
0FF000
0FF000
0FF000
0FF000
0FF000
F0F000
F0F000
F0F000
F0F000
F0F000
F0F000
F0F000
F0F000
ENDCHAR
STARTCHAR uni0073
ENCODING 575
SWIDTH 1920 0
DWIDTH 20 0
BBX 20 28 4 -8
BITMAP
0FFF00
0FFF00
0FFF00
0FFF00
F00000
F00000
F00000
F00000
0FF000
0FF000
0FF000
0FF000
000F00
000F00
000F00
000F00
FFF000
FFF000
FFF000
FFF000
0F00F0
0F00F0
0F00F0
0F00F0
00FF00
00FF00
00FF00
00FF00
ENDCHAR
STARTCHAR uni007A
ENCODING 576
SWIDTH 1920 0
DWIDTH 20 0
BBX 16 28 4 -8
BITMAP
FFFF
FFFF
FFFF
FFFF
00F0
00F0
00F0
00F0
0F00
0F00
0F00
0F00
F000
F000
F000
F000
FFFF
FFFF
FFFF
FFFF
0F00
0F00
0F00
0F00
00FF
00FF
00FF
00FF
ENDCHAR
STARTCHAR LATIN
ENCODING 577
SWIDTH 1920 0
DWIDTH 20 0
BBX 20 28 0 4
BITMAP
0FFF00
0FFF00
0FFF00
0FFF00
F000F0
F000F0
F000F0
F000F0
0000F0
0000F0
0000F0
0000F0
000F00
000F00
000F00
000F00
00F000
00F000
00F000
00F000
00F000
00F000
00F000
00F000
00F000
00F000
00F000
00F000
ENDCHAR
STARTCHAR LATIN
ENCODING 578
SWIDTH 1920 0
DWIDTH 20 0
BBX 20 24 0 4
BITMAP
0FFF00
0FFF00
0FFF00
0FFF00
F000F0
F000F0
F000F0
F000F0
0000F0
0000F0
0000F0
0000F0
000F00
000F00
000F00
000F00
00F000
00F000
00F000
00F000
00F000
00F000
00F000
00F000
ENDCHAR
STARTCHAR uni0042
ENCODING 579
SWIDTH 1920 0
DWIDTH 20 0
BBX 24 24 0 0
BITMAP
0FFF00
0FFF00
0FFF00
0FFF00
0F00FF
0F00FF
0F00FF
0F00FF
0FFF00
0FFF00
0FFF00
0FFF00
0FF0F0
0FF0F0
0FF0F0
0FF0F0
FF00F0
FF00F0
FF00F0
FF00F0
0FFF00
0FFF00
0FFF00
0FFF00
ENDCHAR
STARTCHAR uni0041
ENCODING 580
SWIDTH 1920 0
DWIDTH 20 0
BBX 16 24 4 0
BITMAP
F00F
F00F
F00F
F00F
F00F
F00F
F00F
F00F
FFFF
FFFF
FFFF
FFFF
F00F
F00F
F00F
F00F
F00F
F00F
F00F
F00F
0FF0
0FF0
0FF0
0FF0
ENDCHAR
STARTCHAR uni0056
ENCODING 581
SWIDTH 1920 0
DWIDTH 20 0
BBX 16 24 4 0
BITMAP
0FF0
0FF0
0FF0
0FF0
0FF0
0FF0
0FF0
0FF0
0FF0
0FF0
0FF0
0FF0
F00F
F00F
F00F
F00F
F00F
F00F
F00F
F00F
F00F
F00F
F00F
F00F
ENDCHAR
STARTCHAR LATIN
ENCODING 582
SWIDTH 1920 0
DWIDTH 20 0
BBX 20 40 0 -8
BITMAP
0000F0
0000F0
0000F0
0000F0
FFFFF0
FFFFF0
FFFFF0
FFFFF0
F00F00
F00F00
F00F00
F00F00
F00F00
F00F00
F00F00
F00F00
FFFF00
FFFF00
FFFF00
FFFF00
F0F000
F0F000
F0F000
F0F000
FF0000
FF0000
FF0000
FF0000
FFFFF0
FFFFF0
FFFFF0
FFFFF0
F00000
F00000
F00000
F00000
F00000
F00000
F00000
F00000
ENDCHAR
STARTCHAR LATIN
ENCODING 583
SWIDTH 1920 0
DWIDTH 20 0
BBX 20 40 0 -8
BITMAP
0000F0
0000F0
0000F0
0000F0
0000F0
0000F0
0000F0
0000F0
000F00
000F00
000F00
000F00
0FFF00
0FFF00
0FFF00
0FFF00
F0F0F0
F0F0F0
F0F0F0
F0F0F0
FFFFF0
FFFFF0
FFFFF0
FFFFF0
FF0000
FF0000
FF0000
FF0000
0FFF00
0FFF00
0FFF00
0FFF00
F00000
F00000
F00000
F00000
F00000
F00000
F00000
F00000
ENDCHAR
STARTCHAR LATIN
ENCODING 584
SWIDTH 1920 0
DWIDTH 20 0
BBX 24 28 0 0
BITMAP
0000F0
0000F0
0000F0
0000F0
0000F0
0000F0
0000F0
0000F0
0000F0
0000F0
0000F0
0000F0
000FFF
000FFF
000FFF
000FFF
0000F0
0000F0
0000F0
0000F0
F000F0
F000F0
F000F0
F000F0
0FFF00
0FFF00
0FFF00
0FFF00
ENDCHAR
STARTCHAR LATIN
ENCODING 585
SWIDTH 1920 0
DWIDTH 20 0
BBX 16 36 0 -8
BITMAP
00F0
00F0
00F0
00F0
0000
0000
0000
0000
0FF0
0FF0
0FF0
0FF0
00F0
00F0
00F0
00F0
0FFF
0FFF
0FFF
0FFF
00F0
00F0
00F0
00F0
00F0
00F0
00F0
00F0
00F0
00F0
00F0
00F0
FF00
FF00
FF00
FF00
ENDCHAR
STARTCHAR uni0071
ENCODING 586
SWIDTH 1920 0
DWIDTH 20 0
BBX 20 32 4 -8
BITMAP
0FFF00
0FFF00
0FFF00
0FFF00
F00F00
F00F00
F00F00
F00F00
F00F00
F00F00
F00F00
F00F00
F00F00
F00F00
F00F00
F00F00
F00F00
F00F00
F00F00
F00F00
0FFF00
0FFF00
0FFF00
0FFF00
000F00
000F00
000F00
000F00
0000F0
0000F0
0000F0
0000F0
ENDCHAR
STARTCHAR uni0071
ENCODING 587
SWIDTH 1920 0
DWIDTH 20 0
BBX 20 28 4 -8
BITMAP
0FFF00
0FFF00
0FFF00
0FFF00
F00F00
F00F00
F00F00
F00F00
F00F00
F00F00
F00F00
F00F00
F00F00
F00F00
F00F00
F00F00
0FFF00
0FFF00
0FFF00
0FFF00
000F00
000F00
000F00
000F00
0000F0
0000F0
0000F0
0000F0
ENDCHAR
STARTCHAR uni0052
ENCODING 588
SWIDTH 1920 0
DWIDTH 20 0
BBX 20 24 0 0
BITMAP
0FFF00
0FFF00
0FFF00
0FFF00
0F00F0
0F00F0
0F00F0
0F00F0
0F00F0
0F00F0
0F00F0
0F00F0
FFFF00
FFFF00
FFFF00
FFFF00
0F00F0
0F00F0
0F00F0
0F00F0
0F00F0
0F00F0
0F00F0
0F00F0
ENDCHAR
STARTCHAR uni0072
ENCODING 589
SWIDTH 1920 0
DWIDTH 20 0
BBX 20 20 0 0
BITMAP
0F0FF0
0F0FF0
0F0FF0
0F0FF0
FFF000
FFF000
FFF000
FFF000
0F0000
0F0000
0F0000
0F0000
0F0000
0F0000
0F0000
0F0000
0F0000
0F0000
0F0000
0F0000
ENDCHAR
STARTCHAR uni0059
ENCODING 590
SWIDTH 1920 0
DWIDTH 20 0
BBX 20 24 0 0
BITMAP
F000F0
F000F0
F000F0
F000F0
0FFF00
0FFF00
0FFF00
0FFF00
0F0F00
0F0F00
0F0F00
0F0F00
00F000
00F000
00F000
00F000
00F000
00F000
00F000
00F000
00F000
00F000
00F000
00F000
ENDCHAR
STARTCHAR uni0079
ENCODING 591
SWIDTH 1920 0
DWIDTH 20 0
BBX 16 28 4 -8
BITMAP
F00F
F00F
F00F
F00F
FFFF
FFFF
FFFF
FFFF
F00F
F00F
F00F
F00F
F00F
F00F
F00F
F00F
0FFF
0FFF
0FFF
0FFF
000F
000F
000F
000F
0FF0
0FF0
0FF0
0FF0
ENDCHAR
STARTCHAR uni0061
ENCODING 592
SWIDTH 1920 0
DWIDTH 20 0
BBX 16 20 4 0
BITMAP
F0F0
F0F0
F0F0
F0F0
FF0F
FF0F
FF0F
FF0F
F00F
F00F
F00F
F00F
F00F
F00F
F00F
F00F
FFF0
FFF0
FFF0
FFF0
ENDCHAR
STARTCHAR uni0061
ENCODING 593
SWIDTH 1920 0
DWIDTH 20 0
BBX 16 20 4 0
BITMAP
0F0F
0F0F
0F0F
0F0F
F0FF
F0FF
F0FF
F0FF
F00F
F00F
F00F
F00F
F0FF
F0FF
F0FF
F0FF
0F0F
0F0F
0F0F
0F0F
ENDCHAR
STARTCHAR uni0061
ENCODING 594
SWIDTH 1920 0
DWIDTH 20 0
BBX 16 20 4 0
BITMAP
F0F0
F0F0
F0F0
F0F0
FF0F
FF0F
FF0F
FF0F
F00F
F00F
F00F
F00F
FF0F
FF0F
FF0F
FF0F
F0F0
F0F0
F0F0
F0F0
ENDCHAR
STARTCHAR uni0062
ENCODING 595
SWIDTH 1920 0
DWIDTH 20 0
BBX 16 28 4 0
BITMAP
F000
F000
F000
F000
F000
F000
F000
F000
FFF0
FFF0
FFF0
FFF0
F00F
F00F
F00F
F00F
F00F
F00F
F00F
F00F
F00F
F00F
F00F
F00F
FFF0
FFF0
FFF0
FFF0
ENDCHAR
STARTCHAR uni0063
ENCODING 596
SWIDTH 1920 0
DWIDTH 20 0
BBX 16 20 4 0
BITMAP
0FF0
0FF0
0FF0
0FF0
F00F
F00F
F00F
F00F
F000
F000
F000
F000
F00F
F00F
F00F
F00F
0FF0
0FF0
0FF0
0FF0
ENDCHAR
STARTCHAR uni0063
ENCODING 597
SWIDTH 1920 0
DWIDTH 20 0
BBX 16 20 4 0
BITMAP
0FF0
0FF0
0FF0
0FF0
F00F
F00F
F00F
F00F
F000
F000
F000
F000
F0FF
F0FF
F0FF
F0FF
0FF0
0FF0
0FF0
0FF0
ENDCHAR
STARTCHAR uni0064
ENCODING 598
SWIDTH 1920 0
DWIDTH 20 0
BBX 20 32 4 -4
BITMAP
000F00
000F00
000F00
000F00
000F00
000F00
000F00
000F00
0FFF00
0FFF00
0FFF00
0FFF00
F00F00
F00F00
F00F00
F00F00
F00F00
F00F00
F00F00
F00F00
F0FF00
F0FF00
F0FF00
F0FF00
0F0F00
0F0F00
0F0F00
0F0F00
0000F0
0000F0
0000F0
0000F0
ENDCHAR
STARTCHAR uni0064
ENCODING 599
SWIDTH 1920 0
DWIDTH 20 0
BBX 20 32 4 0
BITMAP
0000F0
0000F0
0000F0
0000F0
000F00
000F00
000F00
000F00
000F00
000F00
000F00
000F00
0FFF00
0FFF00
0FFF00
0FFF00
F00F00
F00F00
F00F00
F00F00
F00F00
F00F00
F00F00
F00F00
F0FF00
F0FF00
F0FF00
F0FF00
0F0F00
0F0F00
0F0F00
0F0F00
ENDCHAR
STARTCHAR uni0065
ENCODING 600
SWIDTH 1920 0
DWIDTH 20 0
BBX 16 20 4 0
BITMAP
0FF0
0FF0
0FF0
0FF0
F00F
F00F
F00F
F00F
FFFF
FFFF
FFFF
FFFF
000F
000F
000F
000F
FFF0
FFF0
FFF0
FFF0
ENDCHAR
STARTCHAR uni0065
ENCODING 601
SWIDTH 1920 0
DWIDTH 20 0
BBX 16 20 4 0
BITMAP
FFF0
FFF0
FFF0
FFF0
000F
000F
000F
000F
FFFF
FFFF
FFFF
FFFF
F00F
F00F
F00F
F00F
0FF0
0FF0
0FF0
0FF0
ENDCHAR
STARTCHAR uni0065
ENCODING 602
SWIDTH 1920 0
DWIDTH 20 0
BBX 20 20 4 0
BITMAP
FFF0F0
FFF0F0
FFF0F0
FFF0F0
000F00
000F00
000F00
000F00
FFFF00
FFFF00
FFFF00
FFFF00
F00F00
F00F00
F00F00
F00F00
0FF000
0FF000
0FF000
0FF000
ENDCHAR
STARTCHAR uni0033
ENCODING 603
SWIDTH 1920 0
DWIDTH 20 0
BBX 16 24 4 0
BITMAP
0FFF
0FFF
0FFF
0FFF
F000
F000
F000
F000
0FF0
0FF0
0FF0
0FF0
F000
F000
F000
F000
F000
F000
F000
F000
0FFF
0FFF
0FFF
0FFF
ENDCHAR
STARTCHAR uni0033
ENCODING 604
SWIDTH 1920 0
DWIDTH 20 0
BBX 16 24 4 0
BITMAP
FFF0
FFF0
FFF0
FFF0
000F
000F
000F
000F
0FF0
0FF0
0FF0
0FF0
000F
000F
000F
000F
000F
000F
000F
000F
FFF0
FFF0
FFF0
FFF0
ENDCHAR
STARTCHAR uni0033
ENCODING 605
SWIDTH 1920 0
DWIDTH 20 0
BBX 20 24 4 0
BITMAP
FFF0F0
FFF0F0
FFF0F0
FFF0F0
000F00
000F00
000F00
000F00
0FF000
0FF000
0FF000
0FF000
000F00
000F00
000F00
000F00
000F00
000F00
000F00
000F00
FFF000
FFF000
FFF000
FFF000
ENDCHAR
STARTCHAR char223
ENCODING 606
SWIDTH 1920 0
DWIDTH 20 0
BBX 16 24 4 0
BITMAP
0FF0
0FF0
0FF0
0FF0
F00F
F00F
F00F
F00F
F0F0
F0F0
F0F0
F0F0
F00F
F00F
F00F
F00F
F00F
F00F
F00F
F00F
0FF0
0FF0
0FF0
0FF0
ENDCHAR
STARTCHAR uni006A
ENCODING 607
SWIDTH 1920 0
DWIDTH 20 0
BBX 16 28 4 -8
BITMAP
0FF0
0FF0
0FF0
0FF0
00F0
00F0
00F0
00F0
00FF
00FF
00FF
00FF
0FF0
0FF0
0FF0
0FF0
00F0
00F0
00F0
00F0
00F0
00F0
00F0
00F0
FF00
FF00
FF00
FF00
ENDCHAR
STARTCHAR uni0067
ENCODING 608
SWIDTH 1920 0
DWIDTH 20 0
BBX 20 32 4 -8
BITMAP
0000F0
0000F0
0000F0
0000F0
0FFF00
0FFF00
0FFF00
0FFF00
F00F00
F00F00
F00F00
F00F00
F00F00
F00F00
F00F00
F00F00
F0FF00
F0FF00
F0FF00
F0FF00
0F0F00
0F0F00
0F0F00
0F0F00
000F00
000F00
000F00
000F00
0FF000
0FF000
0FF000
0FF000
ENDCHAR
STARTCHAR uni0067
ENCODING 609
SWIDTH 1920 0
DWIDTH 20 0
BBX 16 28 4 -8
BITMAP
0FFF
0FFF
0FFF
0FFF
F00F
F00F
F00F
F00F
F00F
F00F
F00F
F00F
F0FF
F0FF
F0FF
F0FF
0F0F
0F0F
0F0F
0F0F
000F
000F
000F
000F
0FF0
0FF0
0FF0
0FF0
ENDCHAR
STARTCHAR uni0047
ENCODING 610
SWIDTH 1920 0
DWIDTH 20 0
BBX 16 20 4 0
BITMAP
0FFF
0FFF
0FFF
0FFF
F000
F000
F000
F000
F0FF
F0FF
F0FF
F0FF
F00F
F00F
F00F
F00F
0FFF
0FFF
0FFF
0FFF
ENDCHAR
STARTCHAR uni0076
ENCODING 611
SWIDTH 1920 0
DWIDTH 20 0
BBX 16 28 4 -8
BITMAP
F00F
F00F
F00F
F00F
F00F
F00F
F00F
F00F
F00F
F00F
F00F
F00F
0FF0
0FF0
0FF0
0FF0
0FF0
0FF0
0FF0
0FF0
F00F
F00F
F00F
F00F
0FF0
0FF0
0FF0
0FF0
ENDCHAR
STARTCHAR uni0076
ENCODING 612
SWIDTH 1920 0
DWIDTH 20 0
BBX 24 28 0 -8
BITMAP
F0000F
F0000F
F0000F
F0000F
0F00F0
0F00F0
0F00F0
0F00F0
0F00F0
0F00F0
0F00F0
0F00F0
00FF00
00FF00
00FF00
00FF00
00FF00
00FF00
00FF00
00FF00
0F00F0
0F00F0
0F00F0
0F00F0
00FF00
00FF00
00FF00
00FF00
ENDCHAR
STARTCHAR uni0068
ENCODING 613
SWIDTH 1920 0
DWIDTH 20 0
BBX 16 28 4 0
BITMAP
F00F
F00F
F00F
F00F
F00F
F00F
F00F
F00F
F00F
F00F
F00F
F00F
F00F
F00F
F00F
F00F
0FFF
0FFF
0FFF
0FFF
000F
000F
000F
000F
000F
000F
000F
000F
ENDCHAR
STARTCHAR uni0068
ENCODING 614
SWIDTH 1920 0
DWIDTH 20 0
BBX 16 32 4 0
BITMAP
0FF0
0FF0
0FF0
0FF0
F000
F000
F000
F000
F000
F000
F000
F000
FFF0
FFF0
FFF0
FFF0
F00F
F00F
F00F
F00F
F00F
F00F
F00F
F00F
F00F
F00F
F00F
F00F
F00F
F00F
F00F
F00F
ENDCHAR
STARTCHAR uni0068
ENCODING 615
SWIDTH 1920 0
DWIDTH 20 0
BBX 16 36 4 -4
BITMAP
0FF0
0FF0
0FF0
0FF0
F000
F000
F000
F000
F000
F000
F000
F000
FFF0
FFF0
FFF0
FFF0
F00F
F00F
F00F
F00F
F00F
F00F
F00F
F00F
F00F
F00F
F00F
F00F
F00F
F00F
F00F
F00F
00F0
00F0
00F0
00F0
ENDCHAR
STARTCHAR uni0069
ENCODING 616
SWIDTH 1920 0
DWIDTH 20 0
BBX 12 28 8 0
BITMAP
0F00
0F00
0F00
0F00
0000
0000
0000
0000
FF00
FF00
FF00
FF00
0F00
0F00
0F00
0F00
FFF0
FFF0
FFF0
FFF0
0F00
0F00
0F00
0F00
0F00
0F00
0F00
0F00
ENDCHAR
STARTCHAR uni0069
ENCODING 617
SWIDTH 1920 0
DWIDTH 20 0
BBX 12 24 8 -4
BITMAP
FF00
FF00
FF00
FF00
0F00
0F00
0F00
0F00
0F00
0F00
0F00
0F00
0F00
0F00
0F00
0F00
0F00
0F00
0F00
0F00
00F0
00F0
00F0
00F0
ENDCHAR
STARTCHAR uni0069
ENCODING 618
SWIDTH 1920 0
DWIDTH 20 0
BBX 12 20 4 0
BITMAP
FFF0
FFF0
FFF0
FFF0
0F00
0F00
0F00
0F00
0F00
0F00
0F00
0F00
0F00
0F00
0F00
0F00
FFF0
FFF0
FFF0
FFF0
ENDCHAR
STARTCHAR uni006C
ENCODING 619
SWIDTH 1920 0
DWIDTH 20 0
BBX 20 28 4 0
BITMAP
0FF000
0FF000
0FF000
0FF000
00F000
00F000
00F000
00F000
00F000
00F000
00F000
00F000
0FF0F0
0FF0F0
0FF0F0
0FF0F0
F0FF00
F0FF00
F0FF00
F0FF00
00F000
00F000
00F000
00F000
00F000
00F000
00F000
00F000
ENDCHAR
STARTCHAR uni006C
ENCODING 620
SWIDTH 1920 0
DWIDTH 20 0
BBX 16 28 4 0
BITMAP
0FF0
0FF0
0FF0
0FF0
00F0
00F0
00F0
00F0
0FF0
0FF0
0FF0
0FF0
F0F0
F0F0
F0F0
F0F0
0FFF
0FFF
0FFF
0FFF
00F0
00F0
00F0
00F0
00F0
00F0
00F0
00F0
ENDCHAR
STARTCHAR uni006C
ENCODING 621
SWIDTH 1920 0
DWIDTH 20 0
BBX 12 32 8 -4
BITMAP
FF00
FF00
FF00
FF00
0F00
0F00
0F00
0F00
0F00
0F00
0F00
0F00
0F00
0F00
0F00
0F00
0F00
0F00
0F00
0F00
0F00
0F00
0F00
0F00
0F00
0F00
0F00
0F00
00F0
00F0
00F0
00F0
ENDCHAR
STARTCHAR LATIN
ENCODING 622
SWIDTH 1920 0
DWIDTH 20 0
BBX 20 32 0 -4
BITMAP
F00000
F00000
F00000
F00000
FFFFF0
FFFFF0
FFFFF0
FFFFF0
F000F0
F000F0
F000F0
F000F0
F00F00
F00F00
F00F00
F00F00
F0FF00
F0FF00
F0FF00
F0FF00
F000F0
F000F0
F000F0
F000F0
0F00F0
0F00F0
0F00F0
0F00F0
00FF00
00FF00
00FF00
00FF00
ENDCHAR
STARTCHAR uni006D
ENCODING 623
SWIDTH 1920 0
DWIDTH 20 0
BBX 16 20 4 0
BITMAP
F00F
F00F
F00F
F00F
F00F
F00F
F00F
F00F
F00F
F00F
F00F
F00F
FFFF
FFFF
FFFF
FFFF
F00F
F00F
F00F
F00F
ENDCHAR
STARTCHAR uni006D
ENCODING 624
SWIDTH 1920 0
DWIDTH 20 0
BBX 16 24 4 -4
BITMAP
F00F
F00F
F00F
F00F
F00F
F00F
F00F
F00F
F00F
F00F
F00F
F00F
FFFF
FFFF
FFFF
FFFF
F00F
F00F
F00F
F00F
000F
000F
000F
000F
ENDCHAR
STARTCHAR uni006D
ENCODING 625
SWIDTH 1920 0
DWIDTH 20 0
BBX 16 24 4 -4
BITMAP
F00F
F00F
F00F
F00F
FFFF
FFFF
FFFF
FFFF
F0FF
F0FF
F0FF
F0FF
F00F
F00F
F00F
F00F
F00F
F00F
F00F
F00F
00F0
00F0
00F0
00F0
ENDCHAR
STARTCHAR uni006E
ENCODING 626
SWIDTH 1920 0
DWIDTH 20 0
BBX 20 24 0 -4
BITMAP
0FFF00
0FFF00
0FFF00
0FFF00
0F00F0
0F00F0
0F00F0
0F00F0
0F00F0
0F00F0
0F00F0
0F00F0
0F00F0
0F00F0
0F00F0
0F00F0
0F00F0
0F00F0
0F00F0
0F00F0
F00000
F00000
F00000
F00000
ENDCHAR
STARTCHAR uni006E
ENCODING 627
SWIDTH 1920 0
DWIDTH 20 0
BBX 20 24 4 -4
BITMAP
FFF000
FFF000
FFF000
FFF000
F00F00
F00F00
F00F00
F00F00
F00F00
F00F00
F00F00
F00F00
F00F00
F00F00
F00F00
F00F00
F00F00
F00F00
F00F00
F00F00
0000F0
0000F0
0000F0
0000F0
ENDCHAR
STARTCHAR GREEK
ENCODING 628
SWIDTH 1920 0
DWIDTH 20 0
BBX 16 20 4 0
BITMAP
F00F
F00F
F00F
F00F
FF0F
FF0F
FF0F
FF0F
F0FF
F0FF
F0FF
F0FF
F00F
F00F
F00F
F00F
F00F
F00F
F00F
F00F
ENDCHAR
STARTCHAR LATIN
ENCODING 629
SWIDTH 1920 0
DWIDTH 20 0
BBX 16 20 4 0
BITMAP
0FF0
0FF0
0FF0
0FF0
F00F
F00F
F00F
F00F
FFFF
FFFF
FFFF
FFFF
F00F
F00F
F00F
F00F
0FF0
0FF0
0FF0
0FF0
ENDCHAR
STARTCHAR char230
ENCODING 630
SWIDTH 1920 0
DWIDTH 20 0
BBX 24 20 4 0
BITMAP
0FFFF0
0FFFF0
0FFFF0
0FFFF0
F00F0F
F00F0F
F00F0F
F00F0F
F00FFF
F00FFF
F00FFF
F00FFF
F00F00
F00F00
F00F00
F00F00
0FFFFF
0FFFFF
0FFFFF
0FFFFF
ENDCHAR
STARTCHAR GREEK
ENCODING 631
SWIDTH 1920 0
DWIDTH 20 0
BBX 20 20 0 0
BITMAP
0FFF00
0FFF00
0FFF00
0FFF00
F000F0
F000F0
F000F0
F000F0
F000F0
F000F0
F000F0
F000F0
F0F0F0
F0F0F0
F0F0F0
F0F0F0
FF0FF0
FF0FF0
FF0FF0
FF0FF0
ENDCHAR
STARTCHAR GREEK
ENCODING 632
SWIDTH 1920 0
DWIDTH 20 0
BBX 20 28 0 0
BITMAP
00F000
00F000
00F000
00F000
0FFF00
0FFF00
0FFF00
0FFF00
F0F0F0
F0F0F0
F0F0F0
F0F0F0
F0F0F0
F0F0F0
F0F0F0
F0F0F0
F0F0F0
F0F0F0
F0F0F0
F0F0F0
0FFF00
0FFF00
0FFF00
0FFF00
00F000
00F000
00F000
00F000
ENDCHAR
STARTCHAR uni0072
ENCODING 633
SWIDTH 1920 0
DWIDTH 20 0
BBX 16 20 4 0
BITMAP
000F
000F
000F
000F
000F
000F
000F
000F
000F
000F
000F
000F
00FF
00FF
00FF
00FF
FF0F
FF0F
FF0F
FF0F
ENDCHAR
STARTCHAR uni0072
ENCODING 634
SWIDTH 1920 0
DWIDTH 20 0
BBX 16 24 4 0
BITMAP
000F
000F
000F
000F
000F
000F
000F
000F
000F
000F
000F
000F
000F
000F
000F
000F
00FF
00FF
00FF
00FF
FF0F
FF0F
FF0F
FF0F
ENDCHAR
STARTCHAR uni0072
ENCODING 635
SWIDTH 1920 0
DWIDTH 20 0
BBX 20 24 4 -4
BITMAP
000F00
000F00
000F00
000F00
000F00
000F00
000F00
000F00
000F00
000F00
000F00
000F00
00FF00
00FF00
00FF00
00FF00
FF0F00
FF0F00
FF0F00
FF0F00
0000F0
0000F0
0000F0
0000F0
ENDCHAR
STARTCHAR uni0072
ENCODING 636
SWIDTH 1920 0
DWIDTH 20 0
BBX 16 24 4 0
BITMAP
F0FF
F0FF
F0FF
F0FF
FF00
FF00
FF00
FF00
F000
F000
F000
F000
F000
F000
F000
F000
F000
F000
F000
F000
F000
F000
F000
F000
ENDCHAR
STARTCHAR uni0072
ENCODING 637
SWIDTH 1920 0
DWIDTH 20 0
BBX 16 28 4 -4
BITMAP
F0FF
F0FF
F0FF
F0FF
FF00
FF00
FF00
FF00
F000
F000
F000
F000
F000
F000
F000
F000
F000
F000
F000
F000
F000
F000
F000
F000
0F00
0F00
0F00
0F00
ENDCHAR
STARTCHAR uni0072
ENCODING 638
SWIDTH 1920 0
DWIDTH 20 0
BBX 16 20 4 0
BITMAP
0FF0
0FF0
0FF0
0FF0
F00F
F00F
F00F
F00F
F000
F000
F000
F000
F000
F000
F000
F000
F000
F000
F000
F000
ENDCHAR
STARTCHAR uni0072
ENCODING 639
SWIDTH 1920 0
DWIDTH 20 0
BBX 16 20 4 0
BITMAP
0FF0
0FF0
0FF0
0FF0
F00F
F00F
F00F
F00F
000F
000F
000F
000F
000F
000F
000F
000F
000F
000F
000F
000F
ENDCHAR
STARTCHAR char1071
ENCODING 640
SWIDTH 1920 0
DWIDTH 20 0
BBX 16 24 4 0
BITMAP
0FFF
0FFF
0FFF
0FFF
F00F
F00F
F00F
F00F
F00F
F00F
F00F
F00F
0FFF
0FFF
0FFF
0FFF
F00F
F00F
F00F
F00F
F00F
F00F
F00F
F00F
ENDCHAR
STARTCHAR char1071
ENCODING 641
SWIDTH 1920 0
DWIDTH 20 0
BBX 16 24 4 0
BITMAP
F00F
F00F
F00F
F00F
F00F
F00F
F00F
F00F
FFF0
FFF0
FFF0
FFF0
F00F
F00F
F00F
F00F
F00F
F00F
F00F
F00F
FFF0
FFF0
FFF0
FFF0
ENDCHAR
STARTCHAR uni0073
ENCODING 642
SWIDTH 1920 0
DWIDTH 20 0
BBX 16 28 4 -8
BITMAP
0FFF
0FFF
0FFF
0FFF
F000
F000
F000
F000
0FF0
0FF0
0FF0
0FF0
000F
000F
000F
000F
FFF0
FFF0
FFF0
FFF0
F000
F000
F000
F000
0F00
0F00
0F00
0F00
ENDCHAR
STARTCHAR uni0066
ENCODING 643
SWIDTH 1920 0
DWIDTH 20 0
BBX 20 32 0 -4
BITMAP
000FF0
000FF0
000FF0
000FF0
00F000
00F000
00F000
00F000
00F000
00F000
00F000
00F000
00F000
00F000
00F000
00F000
00F000
00F000
00F000
00F000
00F000
00F000
00F000
00F000
00F000
00F000
00F000
00F000
FF0000
FF0000
FF0000
FF0000
ENDCHAR
STARTCHAR uni0066
ENCODING 644
SWIDTH 1920 0
DWIDTH 20 0
BBX 20 32 0 -4
BITMAP
000FF0
000FF0
000FF0
000FF0
00F000
00F000
00F000
00F000
00F000
00F000
00F000
00F000
0FFF00
0FFF00
0FFF00
0FFF00
00F000
00F000
00F000
00F000
00F000
00F000
00F000
00F000
00F000
00F000
00F000
00F000
FF0000
FF0000
FF0000
FF0000
ENDCHAR
STARTCHAR uni0066
ENCODING 645
SWIDTH 1920 0
DWIDTH 20 0
BBX 12 28 4 -4
BITMAP
F000
F000
F000
F000
0F00
0F00
0F00
0F00
0F00
0F00
0F00
0F00
0F00
0F00
0F00
0F00
0F00
0F00
0F00
0F00
0F00
0F00
0F00
0F00
00F0
00F0
00F0
00F0
ENDCHAR
STARTCHAR uni0066
ENCODING 646
SWIDTH 1920 0
DWIDTH 20 0
BBX 20 32 0 -4
BITMAP
000F00
000F00
000F00
000F00
00F000
00F000
00F000
00F000
00F000
00F000
00F000
00F000
00F000
00F000
00F000
00F000
00F000
00F000
00F000
00F000
0FF000
0FF000
0FF000
0FF000
F0FF00
F0FF00
F0FF00
F0FF00
0F00F0
0F00F0
0F00F0
0F00F0
ENDCHAR
STARTCHAR uni0066
ENCODING 647
SWIDTH 1920 0
DWIDTH 20 0
BBX 16 28 4 0
BITMAP
FF00
FF00
FF00
FF00
00F0
00F0
00F0
00F0
00F0
00F0
00F0
00F0
0FFF
0FFF
0FFF
0FFF
00F0
00F0
00F0
00F0
00F0
00F0
00F0
00F0
00F0
00F0
00F0
00F0
ENDCHAR
STARTCHAR uni0075
ENCODING 648
SWIDTH 1920 0
DWIDTH 20 0
BBX 16 20 4 0
BITMAP
F00F
F00F
F00F
F00F
FFFF
FFFF
FFFF
FFFF
F00F
F00F
F00F
F00F
F00F
F00F
F00F
F00F
0FFF
0FFF
0FFF
0FFF
ENDCHAR
STARTCHAR uni0075
ENCODING 649
SWIDTH 1920 0
DWIDTH 20 0
BBX 16 20 4 0
BITMAP
F00F
F00F
F00F
F00F
0FF0
0FF0
0FF0
0FF0
F00F
F00F
F00F
F00F
F00F
F00F
F00F
F00F
0FFF
0FFF
0FFF
0FFF
ENDCHAR
STARTCHAR uni0076
ENCODING 650
SWIDTH 1920 0
DWIDTH 20 0
BBX 16 20 4 0
BITMAP
F0F0
F0F0
F0F0
F0F0
F00F
F00F
F00F
F00F
F00F
F00F
F00F
F00F
0FF0
0FF0
0FF0
0FF0
0FF0
0FF0
0FF0
0FF0
ENDCHAR
STARTCHAR uni0076
ENCODING 651
SWIDTH 1920 0
DWIDTH 20 0
BBX 16 20 4 0
BITMAP
0FF0
0FF0
0FF0
0FF0
0FF0
0FF0
0FF0
0FF0
F00F
F00F
F00F
F00F
F00F
F00F
F00F
F00F
F00F
F00F
F00F
F00F
ENDCHAR
STARTCHAR uni0076
ENCODING 652
SWIDTH 1920 0
DWIDTH 20 0
BBX 24 20 0 0
BITMAP
00FF00
00FF00
00FF00
00FF00
00FF00
00FF00
00FF00
00FF00
0F00F0
0F00F0
0F00F0
0F00F0
0F00F0
0F00F0
0F00F0
0F00F0
F0000F
F0000F
F0000F
F0000F
ENDCHAR
STARTCHAR uni006D
ENCODING 653
SWIDTH 1920 0
DWIDTH 20 0
BBX 16 20 4 0
BITMAP
F00F
F00F
F00F
F00F
FFFF
FFFF
FFFF
FFFF
F0FF
F0FF
F0FF
F0FF
F00F
F00F
F00F
F00F
F00F
F00F
F00F
F00F
ENDCHAR
STARTCHAR uni0079
ENCODING 654
SWIDTH 1920 0
DWIDTH 20 0
BBX 16 28 4 -8
BITMAP
0FF0
0FF0
0FF0
0FF0
F000
F000
F000
F000
FFF0
FFF0
FFF0
FFF0
F00F
F00F
F00F
F00F
F00F
F00F
F00F
F00F
F00F
F00F
F00F
F00F
F00F
F00F
F00F
F00F
ENDCHAR
STARTCHAR uni0059
ENCODING 655
SWIDTH 1920 0
DWIDTH 20 0
BBX 20 16 0 0
BITMAP
F000F0
F000F0
F000F0
F000F0
0F0F00
0F0F00
0F0F00
0F0F00
00F000
00F000
00F000
00F000
00F000
00F000
00F000
00F000
ENDCHAR
STARTCHAR uni007A
ENCODING 656
SWIDTH 1920 0
DWIDTH 20 0
BBX 16 28 4 -8
BITMAP
FFFF
FFFF
FFFF
FFFF
00F0
00F0
00F0
00F0
0F00
0F00
0F00
0F00
F000
F000
F000
F000
FFFF
FFFF
FFFF
FFFF
000F
000F
000F
000F
00F0
00F0
00F0
00F0
ENDCHAR
STARTCHAR uni007A
ENCODING 657
SWIDTH 1920 0
DWIDTH 20 0
BBX 16 24 4 -4
BITMAP
FFFF
FFFF
FFFF
FFFF
00F0
00F0
00F0
00F0
0F00
0F00
0F00
0F00
F0F0
F0F0
F0F0
F0F0
FFFF
FFFF
FFFF
FFFF
00F0
00F0
00F0
00F0
ENDCHAR
STARTCHAR uni007A
ENCODING 658
SWIDTH 1920 0
DWIDTH 20 0
BBX 16 28 4 -8
BITMAP
FFFF
FFFF
FFFF
FFFF
00F0
00F0
00F0
00F0
0F00
0F00
0F00
0F00
00F0
00F0
00F0
00F0
000F
000F
000F
000F
F00F
F00F
F00F
F00F
0FF0
0FF0
0FF0
0FF0
ENDCHAR
STARTCHAR uni007A
ENCODING 659
SWIDTH 1920 0
DWIDTH 20 0
BBX 16 28 4 -8
BITMAP
FFFF
FFFF
FFFF
FFFF
00F0
00F0
00F0
00F0
0F00
0F00
0F00
0F00
00F0
00F0
00F0
00F0
0F0F
0F0F
0F0F
0F0F
F0FF
F0FF
F0FF
F0FF
0FF0
0FF0
0FF0
0FF0
ENDCHAR
STARTCHAR LATIN
ENCODING 660
SWIDTH 1920 0
DWIDTH 20 0
BBX 20 28 0 0
BITMAP
0FFF00
0FFF00
0FFF00
0FFF00
F000F0
F000F0
F000F0
F000F0
0000F0
0000F0
0000F0
0000F0
000F00
000F00
000F00
000F00
00F000
00F000
00F000
00F000
00F000
00F000
00F000
00F000
00F000
00F000
00F000
00F000
ENDCHAR
STARTCHAR LATIN
ENCODING 661
SWIDTH 1920 0
DWIDTH 20 0
BBX 20 28 0 0
BITMAP
0FFF00
0FFF00
0FFF00
0FFF00
F000F0
F000F0
F000F0
F000F0
F00000
F00000
F00000
F00000
0F0000
0F0000
0F0000
0F0000
00F000
00F000
00F000
00F000
00F000
00F000
00F000
00F000
00F000
00F000
00F000
00F000
ENDCHAR
STARTCHAR LATIN
ENCODING 662
SWIDTH 1920 0
DWIDTH 20 0
BBX 20 28 0 0
BITMAP
00F000
00F000
00F000
00F000
00F000
00F000
00F000
00F000
00F000
00F000
00F000
00F000
000F00
000F00
000F00
000F00
0000F0
0000F0
0000F0
0000F0
F000F0
F000F0
F000F0
F000F0
0FFF00
0FFF00
0FFF00
0FFF00
ENDCHAR
STARTCHAR uni0043
ENCODING 663
SWIDTH 1920 0
DWIDTH 20 0
BBX 16 28 4 -4
BITMAP
0FFF
0FFF
0FFF
0FFF
F000
F000
F000
F000
F000
F000
F000
F000
F000
F000
F000
F000
F000
F000
F000
F000
F000
F000
F000
F000
0FFF
0FFF
0FFF
0FFF
ENDCHAR
STARTCHAR LATIN
ENCODING 664
SWIDTH 1920 0
DWIDTH 20 0
BBX 20 20 0 0
BITMAP
0FFF00
0FFF00
0FFF00
0FFF00
F000F0
F000F0
F000F0
F000F0
F0F0F0
F0F0F0
F0F0F0
F0F0F0
F000F0
F000F0
F000F0
F000F0
0FFF00
0FFF00
0FFF00
0FFF00
ENDCHAR
STARTCHAR LATIN
ENCODING 665
SWIDTH 1920 0
DWIDTH 20 0
BBX 16 20 4 0
BITMAP
FFF0
FFF0
FFF0
FFF0
F00F
F00F
F00F
F00F
FFF0
FFF0
FFF0
FFF0
F00F
F00F
F00F
F00F
FFF0
FFF0
FFF0
FFF0
ENDCHAR
STARTCHAR LATIN
ENCODING 666
SWIDTH 1920 0
DWIDTH 20 0
BBX 16 20 4 0
BITMAP
0FF0
0FF0
0FF0
0FF0
F00F
F00F
F00F
F00F
0FFF
0FFF
0FFF
0FFF
F00F
F00F
F00F
F00F
0FF0
0FF0
0FF0
0FF0
ENDCHAR
STARTCHAR uni0047
ENCODING 667
SWIDTH 1920 0
DWIDTH 20 0
BBX 20 24 4 0
BITMAP
0000F0
0000F0
0000F0
0000F0
0FFF00
0FFF00
0FFF00
0FFF00
F00000
F00000
F00000
F00000
F0FF00
F0FF00
F0FF00
F0FF00
F00F00
F00F00
F00F00
F00F00
0FFF00
0FFF00
0FFF00
0FFF00
ENDCHAR
STARTCHAR uni0048
ENCODING 668
SWIDTH 1920 0
DWIDTH 20 0
BBX 16 20 4 0
BITMAP
F00F
F00F
F00F
F00F
F00F
F00F
F00F
F00F
FFFF
FFFF
FFFF
FFFF
F00F
F00F
F00F
F00F
F00F
F00F
F00F
F00F
ENDCHAR
STARTCHAR uni006A
ENCODING 669
SWIDTH 1920 0
DWIDTH 20 0
BBX 16 36 4 -8
BITMAP
00F0
00F0
00F0
00F0
0000
0000
0000
0000
0FF0
0FF0
0FF0
0FF0
00F0
00F0
00F0
00F0
00F0
00F0
00F0
00F0
00F0
00F0
00F0
00F0
0FFF
0FFF
0FFF
0FFF
F0F0
F0F0
F0F0
F0F0
FF00
FF00
FF00
FF00
ENDCHAR
STARTCHAR uni006B
ENCODING 670
SWIDTH 1920 0
DWIDTH 20 0
BBX 16 28 4 0
BITMAP
F00F
F00F
F00F
F00F
F00F
F00F
F00F
F00F
0FFF
0FFF
0FFF
0FFF
0F0F
0F0F
0F0F
0F0F
F00F
F00F
F00F
F00F
000F
000F
000F
000F
000F
000F
000F
000F
ENDCHAR
STARTCHAR LATIN
ENCODING 671
SWIDTH 1920 0
DWIDTH 20 0
BBX 16 20 4 0
BITMAP
F000
F000
F000
F000
F000
F000
F000
F000
F000
F000
F000
F000
F000
F000
F000
F000
FFFF
FFFF
FFFF
FFFF
ENDCHAR
STARTCHAR uni0071
ENCODING 672
SWIDTH 1920 0
DWIDTH 20 0
BBX 20 32 4 -8
BITMAP
0000F0
0000F0
0000F0
0000F0
0FFF00
0FFF00
0FFF00
0FFF00
F00F00
F00F00
F00F00
F00F00
F00F00
F00F00
F00F00
F00F00
F00F00
F00F00
F00F00
F00F00
0FFF00
0FFF00
0FFF00
0FFF00
000F00
000F00
000F00
000F00
000F00
000F00
000F00
000F00
ENDCHAR
STARTCHAR LATIN
ENCODING 673
SWIDTH 1920 0
DWIDTH 20 0
BBX 20 28 0 0
BITMAP
0FFF00
0FFF00
0FFF00
0FFF00
F000F0
F000F0
F000F0
F000F0
0000F0
0000F0
0000F0
0000F0
000F00
000F00
000F00
000F00
00F000
00F000
00F000
00F000
0FFF00
0FFF00
0FFF00
0FFF00
00F000
00F000
00F000
00F000
ENDCHAR
STARTCHAR LATIN
ENCODING 674
SWIDTH 1920 0
DWIDTH 20 0
BBX 20 28 0 0
BITMAP
0FFF00
0FFF00
0FFF00
0FFF00
F000F0
F000F0
F000F0
F000F0
F00000
F00000
F00000
F00000
0F0000
0F0000
0F0000
0F0000
00F000
00F000
00F000
00F000
0FFF00
0FFF00
0FFF00
0FFF00
00F000
00F000
00F000
00F000
ENDCHAR
STARTCHAR LATIN
ENCODING 675
SWIDTH 1920 0
DWIDTH 20 0
BBX 24 28 0 0
BITMAP
00F000
00F000
00F000
00F000
00F000
00F000
00F000
00F000
0FFFFF
0FFFFF
0FFFFF
0FFFFF
F0F00F
F0F00F
F0F00F
F0F00F
F0F0F0
F0F0F0
F0F0F0
F0F0F0
F0FF00
F0FF00
F0FF00
F0FF00
0FFFFF
0FFFFF
0FFFFF
0FFFFF
ENDCHAR
STARTCHAR LATIN
ENCODING 676
SWIDTH 1920 0
DWIDTH 20 0
BBX 24 32 0 -4
BITMAP
00F000
00F000
00F000
00F000
00F000
00F000
00F000
00F000
0FFFFF
0FFFFF
0FFFFF
0FFFFF
F0F00F
F0F00F
F0F00F
F0F00F
F0F0F0
F0F0F0
F0F0F0
F0F0F0
F0F00F
F0F00F
F0F00F
F0F00F
0FFF0F
0FFF0F
0FFF0F
0FFF0F
0000F0
0000F0
0000F0
0000F0
ENDCHAR
STARTCHAR LATIN
ENCODING 677
SWIDTH 1920 0
DWIDTH 20 0
BBX 24 32 0 -4
BITMAP
00F000
00F000
00F000
00F000
00F000
00F000
00F000
00F000
0FFFFF
0FFFFF
0FFFFF
0FFFFF
F0F00F
F0F00F
F0F00F
F0F00F
F0F0F0
F0F0F0
F0F0F0
F0F0F0
F0FF0F
F0FF0F
F0FF0F
F0FF0F
0FFFFF
0FFFFF
0FFFFF
0FFFFF
000F00
000F00
000F00
000F00
ENDCHAR
STARTCHAR LATIN
ENCODING 678
SWIDTH 1920 0
DWIDTH 20 0
BBX 24 24 0 0
BITMAP
0F0000
0F0000
0F0000
0F0000
FFFFFF
FFFFFF
FFFFFF
FFFFFF
0FF000
0FF000
0FF000
0FF000
0F0FF0
0F0FF0
0F0FF0
0F0FF0
0F000F
0F000F
0F000F
0F000F
00FFF0
00FFF0
00FFF0
00FFF0
ENDCHAR
STARTCHAR LATIN
ENCODING 679
SWIDTH 1920 0
DWIDTH 20 0
BBX 20 36 0 -8
BITMAP
0000F0
0000F0
0000F0
0000F0
0F0F00
0F0F00
0F0F00
0F0F00
FFFF00
FFFF00
FFFF00
FFFF00
0F0F00
0F0F00
0F0F00
0F0F00
0F0F00
0F0F00
0F0F00
0F0F00
0F0F00
0F0F00
0F0F00
0F0F00
00FF00
00FF00
00FF00
00FF00
000F00
000F00
000F00
000F00
00F000
00F000
00F000
00F000
ENDCHAR
STARTCHAR LATIN
ENCODING 680
SWIDTH 1920 0
DWIDTH 20 0
BBX 24 28 0 -4
BITMAP
0F0000
0F0000
0F0000
0F0000
FFF0FF
FFF0FF
FFF0FF
FFF0FF
0F0F00
0F0F00
0F0F00
0F0F00
0F0FF0
0F0FF0
0F0FF0
0F0FF0
0F0F0F
0F0F0F
0F0F0F
0F0F0F
00FFFF
00FFFF
00FFFF
00FFFF
000F00
000F00
000F00
000F00
ENDCHAR
STARTCHAR LATIN
ENCODING 681
SWIDTH 1920 0
DWIDTH 20 0
BBX 24 36 0 -8
BITMAP
00F000
00F000
00F000
00F000
0F0000
0F0000
0F0000
0F0000
0F0000
0F0000
0F0000
0F0000
FFFFF0
FFFFF0
FFFFF0
FFFFF0
0F0F0F
0F0F0F
0F0F0F
0F0F0F
0F0F0F
0F0F0F
0F0F0F
0F0F0F
0F0F0F
0F0F0F
0F0F0F
0F0F0F
0000F0
0000F0
0000F0
0000F0
000F00
000F00
000F00
000F00
ENDCHAR
STARTCHAR LATIN
ENCODING 682
SWIDTH 1920 0
DWIDTH 20 0
BBX 20 28 0 0
BITMAP
F00000
F00000
F00000
F00000
F00000
F00000
F00000
F00000
F0FFF0
F0FFF0
F0FFF0
F0FFF0
FF0000
FF0000
FF0000
FF0000
F0FF00
F0FF00
F0FF00
F0FF00
F000F0
F000F0
F000F0
F000F0
FFFF00
FFFF00
FFFF00
FFFF00
ENDCHAR
STARTCHAR LATIN
ENCODING 683
SWIDTH 1920 0
DWIDTH 20 0
BBX 20 28 0 0
BITMAP
F00000
F00000
F00000
F00000
F00000
F00000
F00000
F00000
FFFFF0
FFFFF0
FFFFF0
FFFFF0
F00F00
F00F00
F00F00
F00F00
F0F000
F0F000
F0F000
F0F000
FF0000
FF0000
FF0000
FF0000
FFFFF0
FFFFF0
FFFFF0
FFFFF0
ENDCHAR
STARTCHAR LATIN
ENCODING 684
SWIDTH 1920 0
DWIDTH 20 0
BBX 20 24 0 0
BITMAP
F0F0F0
F0F0F0
F0F0F0
F0F0F0
F0F0F0
F0F0F0
F0F0F0
F0F0F0
0F0F00
0F0F00
0F0F00
0F0F00
F0F0F0
F0F0F0
F0F0F0
F0F0F0
F0F0F0
F0F0F0
F0F0F0
F0F0F0
0F0F00
0F0F00
0F0F00
0F0F00
ENDCHAR
STARTCHAR LATIN
ENCODING 685
SWIDTH 1920 0
DWIDTH 20 0
BBX 20 20 0 0
BITMAP
FFFFF0
FFFFF0
FFFFF0
FFFFF0
F000F0
F000F0
F000F0
F000F0
000000
000000
000000
000000
FFFFF0
FFFFF0
FFFFF0
FFFFF0
F000F0
F000F0
F000F0
F000F0
ENDCHAR
STARTCHAR uni0068
ENCODING 686
SWIDTH 1920 0
DWIDTH 20 0
BBX 20 28 0 0
BITMAP
F000F0
F000F0
F000F0
F000F0
0F00F0
0F00F0
0F00F0
0F00F0
0F00F0
0F00F0
0F00F0
0F00F0
0F00F0
0F00F0
0F00F0
0F00F0
00FFF0
00FFF0
00FFF0
00FFF0
0000F0
0000F0
0000F0
0000F0
0000F0
0000F0
0000F0
0000F0
ENDCHAR
STARTCHAR uni0068
ENCODING 687
SWIDTH 1920 0
DWIDTH 20 0
BBX 24 32 0 -4
BITMAP
F000F0
F000F0
F000F0
F000F0
0F00F0
0F00F0
0F00F0
0F00F0
0F00F0
0F00F0
0F00F0
0F00F0
0F00F0
0F00F0
0F00F0
0F00F0
00FFF0
00FFF0
00FFF0
00FFF0
0000F0
0000F0
0000F0
0000F0
0000F0
0000F0
0000F0
0000F0
00000F
00000F
00000F
00000F
ENDCHAR
STARTCHAR uni003C
ENCODING 706
SWIDTH 1920 0
DWIDTH 20 0
BBX 12 20 4 0
BITMAP
00F0
00F0
00F0
00F0
0F00
0F00
0F00
0F00
F000
F000
F000
F000
0F00
0F00
0F00
0F00
00F0
00F0
00F0
00F0
ENDCHAR
STARTCHAR uni003C
ENCODING 707
SWIDTH 1920 0
DWIDTH 20 0
BBX 12 20 4 0
BITMAP
F000
F000
F000
F000
0F00
0F00
0F00
0F00
00F0
00F0
00F0
00F0
0F00
0F00
0F00
0F00
F000
F000
F000
F000
ENDCHAR
STARTCHAR uni005E
ENCODING 708
SWIDTH 1920 0
DWIDTH 20 0
BBX 20 12 0 8
BITMAP
F000F0
F000F0
F000F0
F000F0
0F0F00
0F0F00
0F0F00
0F0F00
00F000
00F000
00F000
00F000
ENDCHAR
STARTCHAR uni005E
ENCODING 709
SWIDTH 1920 0
DWIDTH 20 0
BBX 20 12 0 8
BITMAP
00F000
00F000
00F000
00F000
0F0F00
0F0F00
0F0F00
0F0F00
F000F0
F000F0
F000F0
F000F0
ENDCHAR
STARTCHAR MODIFIER
ENCODING 710
SWIDTH 1920 0
DWIDTH 20 0
BBX 20 12 0 20
BITMAP
00F000
00F000
00F000
00F000
0F0F00
0F0F00
0F0F00
0F0F00
F000F0
F000F0
F000F0
F000F0
ENDCHAR
STARTCHAR CARON
ENCODING 711
SWIDTH 1920 0
DWIDTH 20 0
BBX 20 12 0 24
BITMAP
F000F0
F000F0
F000F0
F000F0
0F0F00
0F0F00
0F0F00
0F0F00
00F000
00F000
00F000
00F000
ENDCHAR
STARTCHAR MODIFIER
ENCODING 712
SWIDTH 1920 0
DWIDTH 20 0
BBX 4 8 8 20
BITMAP
F0
F0
F0
F0
F0
F0
F0
F0
ENDCHAR
STARTCHAR MODIFIER
ENCODING 713
SWIDTH 1920 0
DWIDTH 20 0
BBX 8 4 4 24
BITMAP
FF
FF
FF
FF
ENDCHAR
STARTCHAR MODIFIER
ENCODING 714
SWIDTH 1920 0
DWIDTH 20 0
BBX 8 8 8 20
BITMAP
0F
0F
0F
0F
F0
F0
F0
F0
ENDCHAR
STARTCHAR MODIFIER
ENCODING 715
SWIDTH 1920 0
DWIDTH 20 0
BBX 8 8 8 20
BITMAP
F0
F0
F0
F0
0F
0F
0F
0F
ENDCHAR
STARTCHAR MODIFIER
ENCODING 720
SWIDTH 1920 0
DWIDTH 20 0
BBX 12 24 4 0
BITMAP
FFF0
FFF0
FFF0
FFF0
0F00
0F00
0F00
0F00
0000
0000
0000
0000
0000
0000
0000
0000
0F00
0F00
0F00
0F00
FFF0
FFF0
FFF0
FFF0
ENDCHAR
STARTCHAR MODIFIER
ENCODING 721
SWIDTH 1920 0
DWIDTH 20 0
BBX 12 8 4 8
BITMAP
FFF0
FFF0
FFF0
FFF0
0F00
0F00
0F00
0F00
ENDCHAR
STARTCHAR BREVE
ENCODING 728
SWIDTH 1920 0
DWIDTH 20 0
BBX 20 8 4 24
BITMAP
F000F0
F000F0
F000F0
F000F0
0FFF00
0FFF00
0FFF00
0FFF00
ENDCHAR
STARTCHAR DOT
ENCODING 729
SWIDTH 1920 0
DWIDTH 20 0
BBX 8 8 8 28
BITMAP
FF
FF
FF
FF
FF
FF
FF
FF
ENDCHAR
STARTCHAR RING
ENCODING 730
SWIDTH 1920 0
DWIDTH 20 0
BBX 12 12 4 20
BITMAP
0F00
0F00
0F00
0F00
F0F0
F0F0
F0F0
F0F0
0F00
0F00
0F00
0F00
ENDCHAR
STARTCHAR OGONEK
ENCODING 731
SWIDTH 1920 0
DWIDTH 20 0
BBX 8 12 8 -8
BITMAP
0F
0F
0F
0F
F0
F0
F0
F0
0F
0F
0F
0F
ENDCHAR
STARTCHAR SMALL
ENCODING 732
SWIDTH 1920 0
DWIDTH 20 0
BBX 20 8 0 24
BITMAP
0FF0F0
0FF0F0
0FF0F0
0FF0F0
F0FF00
F0FF00
F0FF00
F0FF00
ENDCHAR
STARTCHAR DOUBLE
ENCODING 733
SWIDTH 1920 0
DWIDTH 20 0
BBX 16 12 4 24
BITMAP
0F0F
0F0F
0F0F
0F0F
0F0F
0F0F
0F0F
0F0F
F0F0
F0F0
F0F0
F0F0
ENDCHAR
STARTCHAR MODIFIER
ENCODING 736
SWIDTH 1920 0
DWIDTH 20 0
BBX 20 20 0 4
BITMAP
F000F0
F000F0
F000F0
F000F0
0F0F00
0F0F00
0F0F00
0F0F00
00F000
00F000
00F000
00F000
0F0F00
0F0F00
0F0F00
0F0F00
00F000
00F000
00F000
00F000
ENDCHAR
STARTCHAR MODIFIER
ENCODING 740
SWIDTH 1920 0
DWIDTH 20 0
BBX 12 20 4 12
BITMAP
0FF0
0FF0
0FF0
0FF0
F000
F000
F000
F000
F000
F000
F000
F000
0F00
0F00
0F00
0F00
0F00
0F00
0F00
0F00
ENDCHAR
STARTCHAR MODIFIER
ENCODING 750
SWIDTH 1920 0
DWIDTH 20 0
BBX 20 16 0 12
BITMAP
FF0FF0
FF0FF0
FF0FF0
FF0FF0
FF0FF0
FF0FF0
FF0FF0
FF0FF0
0F00F0
0F00F0
0F00F0
0F00F0
F00F00
F00F00
F00F00
F00F00
ENDCHAR
STARTCHAR COMBINING
ENCODING 768
SWIDTH 1920 0
DWIDTH 20 0
BBX 8 8 4 28
BITMAP
F0
F0
F0
F0
0F
0F
0F
0F
ENDCHAR
STARTCHAR COMBINING
ENCODING 769
SWIDTH 1920 0
DWIDTH 20 0
BBX 8 8 4 28
BITMAP
0F
0F
0F
0F
F0
F0
F0
F0
ENDCHAR
STARTCHAR COMBINING
ENCODING 770
SWIDTH 1920 0
DWIDTH 20 0
BBX 16 8 0 28
BITMAP
0FF0
0FF0
0FF0
0FF0
F00F
F00F
F00F
F00F
ENDCHAR
STARTCHAR COMBINING
ENCODING 771
SWIDTH 1920 0
DWIDTH 20 0
BBX 20 8 0 28
BITMAP
0FF0F0
0FF0F0
0FF0F0
0FF0F0
F0FF00
F0FF00
F0FF00
F0FF00
ENDCHAR
STARTCHAR COMBINING
ENCODING 772
SWIDTH 1920 0
DWIDTH 20 0
BBX 12 4 4 32
BITMAP
FFF0
FFF0
FFF0
FFF0
ENDCHAR
STARTCHAR COMBINING
ENCODING 773
SWIDTH 1920 0
DWIDTH 20 0
BBX 20 4 0 32
BITMAP
FFFFF0
FFFFF0
FFFFF0
FFFFF0
ENDCHAR
STARTCHAR COMBINING
ENCODING 774
SWIDTH 1920 0
DWIDTH 20 0
BBX 16 8 4 28
BITMAP
F00F
F00F
F00F
F00F
0FF0
0FF0
0FF0
0FF0
ENDCHAR
STARTCHAR COMBINING
ENCODING 775
SWIDTH 1920 0
DWIDTH 20 0
BBX 4 4 8 32
BITMAP
F0
F0
F0
F0
ENDCHAR
STARTCHAR COMBINING
ENCODING 776
SWIDTH 1920 0
DWIDTH 20 0
BBX 12 4 4 32
BITMAP
FFF0
FFF0
FFF0
FFF0
ENDCHAR
STARTCHAR COMBINING
ENCODING 777
SWIDTH 1920 0
DWIDTH 20 0
BBX 12 12 4 24
BITMAP
FF00
FF00
FF00
FF00
00F0
00F0
00F0
00F0
0F00
0F00
0F00
0F00
ENDCHAR
STARTCHAR COMBINING
ENCODING 778
SWIDTH 1920 0
DWIDTH 20 0
BBX 12 12 8 24
BITMAP
0F00
0F00
0F00
0F00
F0F0
F0F0
F0F0
F0F0
0F00
0F00
0F00
0F00
ENDCHAR
STARTCHAR COMBINING
ENCODING 779
SWIDTH 1920 0
DWIDTH 20 0
BBX 20 8 0 28
BITMAP
0F00F0
0F00F0
0F00F0
0F00F0
F00F00
F00F00
F00F00
F00F00
ENDCHAR
STARTCHAR COMBINING
ENCODING 780
SWIDTH 1920 0
DWIDTH 20 0
BBX 12 8 4 28
BITMAP
F0F0
F0F0
F0F0
F0F0
0F00
0F00
0F00
0F00
ENDCHAR
STARTCHAR COMBINING
ENCODING 781
SWIDTH 1920 0
DWIDTH 20 0
BBX 4 8 8 28
BITMAP
F0
F0
F0
F0
F0
F0
F0
F0
ENDCHAR
STARTCHAR COMBINING
ENCODING 782
SWIDTH 1920 0
DWIDTH 20 0
BBX 12 8 4 28
BITMAP
F0F0
F0F0
F0F0
F0F0
F0F0
F0F0
F0F0
F0F0
ENDCHAR
STARTCHAR COMBINING
ENCODING 784
SWIDTH 1920 0
DWIDTH 20 0
BBX 20 12 0 24
BITMAP
00F000
00F000
00F000
00F000
F000F0
F000F0
F000F0
F000F0
0FFF00
0FFF00
0FFF00
0FFF00
ENDCHAR
STARTCHAR COMBINING
ENCODING 785
SWIDTH 1920 0
DWIDTH 20 0
BBX 20 8 0 28
BITMAP
0FFF00
0FFF00
0FFF00
0FFF00
F000F0
F000F0
F000F0
F000F0
ENDCHAR
STARTCHAR COMBINING
ENCODING 786
SWIDTH 1920 0
DWIDTH 20 0
BBX 8 12 4 24
BITMAP
0F
0F
0F
0F
F0
F0
F0
F0
FF
FF
FF
FF
ENDCHAR
STARTCHAR COMBINING
ENCODING 787
SWIDTH 1920 0
DWIDTH 20 0
BBX 8 12 4 24
BITMAP
FF
FF
FF
FF
0F
0F
0F
0F
F0
F0
F0
F0
ENDCHAR
STARTCHAR COMBINING
ENCODING 788
SWIDTH 1920 0
DWIDTH 20 0
BBX 8 12 4 24
BITMAP
FF
FF
FF
FF
F0
F0
F0
F0
0F
0F
0F
0F
ENDCHAR
STARTCHAR COMBINING
ENCODING 789
SWIDTH 1920 0
DWIDTH 20 0
BBX 8 12 4 24
BITMAP
FF
FF
FF
FF
0F
0F
0F
0F
F0
F0
F0
F0
ENDCHAR
STARTCHAR COMBINING
ENCODING 794
SWIDTH 1920 0
DWIDTH 20 0
BBX 16 12 4 24
BITMAP
FFFF
FFFF
FFFF
FFFF
000F
000F
000F
000F
000F
000F
000F
000F
ENDCHAR
STARTCHAR COMBINING
ENCODING 796
SWIDTH 1920 0
DWIDTH 20 0
BBX 8 12 4 -12
BITMAP
0F
0F
0F
0F
F0
F0
F0
F0
0F
0F
0F
0F
ENDCHAR
STARTCHAR COMBINING
ENCODING 799
SWIDTH 1920 0
DWIDTH 20 0
BBX 12 12 4 -12
BITMAP
0F00
0F00
0F00
0F00
FFF0
FFF0
FFF0
FFF0
0F00
0F00
0F00
0F00
ENDCHAR
STARTCHAR COMBINING
ENCODING 800
SWIDTH 1920 0
DWIDTH 20 0
BBX 12 4 4 -8
BITMAP
FFF0
FFF0
FFF0
FFF0
ENDCHAR
STARTCHAR COMBINING
ENCODING 804
SWIDTH 1920 0
DWIDTH 20 0
BBX 12 4 4 -8
BITMAP
F0F0
F0F0
F0F0
F0F0
ENDCHAR
STARTCHAR COMBINING
ENCODING 805
SWIDTH 1920 0
DWIDTH 20 0
BBX 12 12 4 -12
BITMAP
0F00
0F00
0F00
0F00
F0F0
F0F0
F0F0
F0F0
0F00
0F00
0F00
0F00
ENDCHAR
STARTCHAR COMBINING
ENCODING 810
SWIDTH 1920 0
DWIDTH 20 0
BBX 12 8 4 -8
BITMAP
FFF0
FFF0
FFF0
FFF0
F0F0
F0F0
F0F0
F0F0
ENDCHAR
STARTCHAR COMBINING
ENCODING 812
SWIDTH 1920 0
DWIDTH 20 0
BBX 12 8 4 -8
BITMAP
F0F0
F0F0
F0F0
F0F0
0F00
0F00
0F00
0F00
ENDCHAR
STARTCHAR COMBINING
ENCODING 816
SWIDTH 1920 0
DWIDTH 20 0
BBX 16 8 4 -12
BITMAP
0F0F
0F0F
0F0F
0F0F
F0F0
F0F0
F0F0
F0F0
ENDCHAR
STARTCHAR COMBINING
ENCODING 825
SWIDTH 1920 0
DWIDTH 20 0
BBX 8 12 8 -12
BITMAP
F0
F0
F0
F0
0F
0F
0F
0F
F0
F0
F0
F0
ENDCHAR
STARTCHAR COMBINING
ENCODING 826
SWIDTH 1920 0
DWIDTH 20 0
BBX 12 8 4 -12
BITMAP
F0F0
F0F0
F0F0
F0F0
FFF0
FFF0
FFF0
FFF0
ENDCHAR
STARTCHAR COMBINING
ENCODING 827
SWIDTH 1920 0
DWIDTH 20 0
BBX 12 12 4 -12
BITMAP
FFF0
FFF0
FFF0
FFF0
F0F0
F0F0
F0F0
F0F0
FFF0
FFF0
FFF0
FFF0
ENDCHAR
STARTCHAR COMBINING
ENCODING 828
SWIDTH 1920 0
DWIDTH 20 0
BBX 20 8 0 -12
BITMAP
0F0F00
0F0F00
0F0F00
0F0F00
F0F0F0
F0F0F0
F0F0F0
F0F0F0
ENDCHAR
STARTCHAR COMBINING
ENCODING 835
SWIDTH 1920 0
DWIDTH 20 0
BBX 8 16 4 12
BITMAP
FF
FF
FF
FF
FF
FF
FF
FF
0F
0F
0F
0F
F0
F0
F0
F0
ENDCHAR
STARTCHAR COMBINING
ENCODING 836
SWIDTH 1920 0
DWIDTH 20 0
BBX 12 8 4 8
BITMAP
FFF0
FFF0
FFF0
FFF0
0F00
0F00
0F00
0F00
ENDCHAR
STARTCHAR COMBINING
ENCODING 860
SWIDTH 1920 0
DWIDTH 20 0
BBX 20 8 0 -4
BITMAP
F000F0
F000F0
F000F0
F000F0
0FFF00
0FFF00
0FFF00
0FFF00
ENDCHAR
STARTCHAR COMBINING
ENCODING 865
SWIDTH 1920 0
DWIDTH 20 0
BBX 20 8 0 28
BITMAP
0FFF00
0FFF00
0FFF00
0FFF00
F000F0
F000F0
F000F0
F000F0
ENDCHAR
STARTCHAR GREEK
ENCODING 880
SWIDTH 1920 0
DWIDTH 20 0
BBX 16 28 0 0
BITMAP
F000
F000
F000
F000
F000
F000
F000
F000
F000
F000
F000
F000
FFFF
FFFF
FFFF
FFFF
F000
F000
F000
F000
F000
F000
F000
F000
F000
F000
F000
F000
ENDCHAR
STARTCHAR GREEK
ENCODING 881
SWIDTH 1920 0
DWIDTH 20 0
BBX 20 24 0 0
BITMAP
F00000
F00000
F00000
F00000
0F0000
0F0000
0F0000
0F0000
0F0000
0F0000
0F0000
0F0000
0FFFF0
0FFFF0
0FFFF0
0FFFF0
0F0000
0F0000
0F0000
0F0000
0F0000
0F0000
0F0000
0F0000
ENDCHAR
STARTCHAR GREEK
ENCODING 882
SWIDTH 1920 0
DWIDTH 20 0
BBX 20 24 0 0
BITMAP
FFFFF0
FFFFF0
FFFFF0
FFFFF0
F0F0F0
F0F0F0
F0F0F0
F0F0F0
00F000
00F000
00F000
00F000
00F000
00F000
00F000
00F000
00F000
00F000
00F000
00F000
00F000
00F000
00F000
00F000
ENDCHAR
STARTCHAR GREEK
ENCODING 883
SWIDTH 1920 0
DWIDTH 20 0
BBX 20 20 0 0
BITMAP
FFFFF0
FFFFF0
FFFFF0
FFFFF0
F0F0F0
F0F0F0
F0F0F0
F0F0F0
00F000
00F000
00F000
00F000
00F000
00F000
00F000
00F000
00F000
00F000
00F000
00F000
ENDCHAR
STARTCHAR GREEK
ENCODING 884
SWIDTH 1920 0
DWIDTH 20 0
BBX 12 8 4 24
BITMAP
0FF0
0FF0
0FF0
0FF0
FF00
FF00
FF00
FF00
ENDCHAR
STARTCHAR GREEK
ENCODING 885
SWIDTH 1920 0
DWIDTH 20 0
BBX 16 12 0 -4
BITMAP
00FF
00FF
00FF
00FF
0FF0
0FF0
0FF0
0FF0
FF00
FF00
FF00
FF00
ENDCHAR
STARTCHAR uni004E
ENCODING 886
SWIDTH 1920 0
DWIDTH 20 0
BBX 16 24 4 0
BITMAP
F00F
F00F
F00F
F00F
F0FF
F0FF
F0FF
F0FF
F0FF
F0FF
F0FF
F0FF
FF0F
FF0F
FF0F
FF0F
FF0F
FF0F
FF0F
FF0F
F00F
F00F
F00F
F00F
ENDCHAR
STARTCHAR GREEK
ENCODING 887
SWIDTH 1920 0
DWIDTH 20 0
BBX 20 24 4 -4
BITMAP
F00F00
F00F00
F00F00
F00F00
F0FF00
F0FF00
F0FF00
F0FF00
FF0F00
FF0F00
FF0F00
FF0F00
F00F00
F00F00
F00F00
F00F00
F00F00
F00F00
F00F00
F00F00
0000F0
0000F0
0000F0
0000F0
ENDCHAR
STARTCHAR GREEK
ENCODING 890
SWIDTH 1920 0
DWIDTH 20 0
BBX 8 8 4 -8
BITMAP
F0
F0
F0
F0
FF
FF
FF
FF
ENDCHAR
STARTCHAR GREEK
ENCODING 891
SWIDTH 1920 0
DWIDTH 20 0
BBX 20 20 0 0
BITMAP
0FFF00
0FFF00
0FFF00
0FFF00
F000F0
F000F0
F000F0
F000F0
0000F0
0000F0
0000F0
0000F0
F000F0
F000F0
F000F0
F000F0
0FFF00
0FFF00
0FFF00
0FFF00
ENDCHAR
STARTCHAR GREEK
ENCODING 892
SWIDTH 1920 0
DWIDTH 20 0
BBX 20 20 0 0
BITMAP
0FFF00
0FFF00
0FFF00
0FFF00
F000F0
F000F0
F000F0
F000F0
F0F000
F0F000
F0F000
F0F000
F000F0
F000F0
F000F0
F000F0
0FFF00
0FFF00
0FFF00
0FFF00
ENDCHAR
STARTCHAR GREEK
ENCODING 893
SWIDTH 1920 0
DWIDTH 20 0
BBX 20 20 0 0
BITMAP
0FFF00
0FFF00
0FFF00
0FFF00
F000F0
F000F0
F000F0
F000F0
00F0F0
00F0F0
00F0F0
00F0F0
F000F0
F000F0
F000F0
F000F0
0FFF00
0FFF00
0FFF00
0FFF00
ENDCHAR
STARTCHAR uni003B
ENCODING 894
SWIDTH 1920 0
DWIDTH 20 0
BBX 8 24 4 -4
BITMAP
0F
0F
0F
0F
0F
0F
0F
0F
00
00
00
00
0F
0F
0F
0F
0F
0F
0F
0F
F0
F0
F0
F0
ENDCHAR
STARTCHAR uni037F
ENCODING 895
SWIDTH 1920 0
DWIDTH 20 0
BBX 24 12 0 4
BITMAP
FFFFFF
FFFFFF
FFFFFF
FFFFFF
FFFFFF
FFFFFF
FFFFFF
FFFFFF
FFFFFF
FFFFFF
FFFFFF
FFFFFF
ENDCHAR
STARTCHAR uni037F
ENCODING 896
SWIDTH 1920 0
DWIDTH 20 0
BBX 20 12 0 0
BITMAP
FFFFF0
FFFFF0
FFFFF0
FFFFF0
FFFFF0
FFFFF0
FFFFF0
FFFFF0
FFFFF0
FFFFF0
FFFFF0
FFFFF0
ENDCHAR
STARTCHAR uni0380
ENCODING 897
SWIDTH 1920 0
DWIDTH 20 0
BBX 20 12 0 0
BITMAP
F0F0F0
F0F0F0
F0F0F0
F0F0F0
0F0F00
0F0F00
0F0F00
0F0F00
F0F0F0
F0F0F0
F0F0F0
F0F0F0
ENDCHAR
STARTCHAR GREEK
ENCODING 900
SWIDTH 1920 0
DWIDTH 20 0
BBX 8 12 8 20
BITMAP
0F
0F
0F
0F
FF
FF
FF
FF
F0
F0
F0
F0
ENDCHAR
STARTCHAR GREEK
ENCODING 901
SWIDTH 1920 0
DWIDTH 20 0
BBX 24 12 0 20
BITMAP
000F00
000F00
000F00
000F00
F0FF0F
F0FF0F
F0FF0F
F0FF0F
00F000
00F000
00F000
00F000
ENDCHAR
STARTCHAR GREEK
ENCODING 902
SWIDTH 1920 0
DWIDTH 20 0
BBX 16 36 4 0
BITMAP
00F0
00F0
00F0
00F0
0F00
0F00
0F00
0F00
0000
0000
0000
0000
0FF0
0FF0
0FF0
0FF0
F00F
F00F
F00F
F00F
F00F
F00F
F00F
F00F
FFFF
FFFF
FFFF
FFFF
F00F
F00F
F00F
F00F
F00F
F00F
F00F
F00F
ENDCHAR
STARTCHAR GREEK
ENCODING 903
SWIDTH 1920 0
DWIDTH 20 0
BBX 8 8 8 12
BITMAP
FF
FF
FF
FF
FF
FF
FF
FF
ENDCHAR
STARTCHAR char201
ENCODING 904
SWIDTH 1920 0
DWIDTH 20 0
BBX 16 32 4 0
BITMAP
00F0
00F0
00F0
00F0
0F00
0F00
0F00
0F00
FFFF
FFFF
FFFF
FFFF
F000
F000
F000
F000
FFF0
FFF0
FFF0
FFF0
F000
F000
F000
F000
F000
F000
F000
F000
FFFF
FFFF
FFFF
FFFF
ENDCHAR
STARTCHAR GREEK
ENCODING 905
SWIDTH 1920 0
DWIDTH 20 0
BBX 20 28 0 0
BITMAP
00F000
00F000
00F000
00F000
0F00F0
0F00F0
0F00F0
0F00F0
FF00F0
FF00F0
FF00F0
FF00F0
0FFFF0
0FFFF0
0FFFF0
0FFFF0
0F00F0
0F00F0
0F00F0
0F00F0
0F00F0
0F00F0
0F00F0
0F00F0
0F00F0
0F00F0
0F00F0
0F00F0
ENDCHAR
STARTCHAR GREEK
ENCODING 906
SWIDTH 1920 0
DWIDTH 20 0
BBX 16 28 0 0
BITMAP
00F0
00F0
00F0
00F0
0FFF
0FFF
0FFF
0FFF
F0F0
F0F0
F0F0
F0F0
00F0
00F0
00F0
00F0
00F0
00F0
00F0
00F0
00F0
00F0
00F0
00F0
0FFF
0FFF
0FFF
0FFF
ENDCHAR
STARTCHAR GREEK
ENCODING 908
SWIDTH 1920 0
DWIDTH 20 0
BBX 20 32 0 0
BITMAP
0F0000
0F0000
0F0000
0F0000
F00000
F00000
F00000
F00000
00FF00
00FF00
00FF00
00FF00
0F00F0
0F00F0
0F00F0
0F00F0
0F00F0
0F00F0
0F00F0
0F00F0
0F00F0
0F00F0
0F00F0
0F00F0
0F00F0
0F00F0
0F00F0
0F00F0
00FF00
00FF00
00FF00
00FF00
ENDCHAR
STARTCHAR GREEK
ENCODING 910
SWIDTH 1920 0
DWIDTH 20 0
BBX 20 28 0 0
BITMAP
0F0000
0F0000
0F0000
0F0000
F0F0F0
F0F0F0
F0F0F0
F0F0F0
00F0F0
00F0F0
00F0F0
00F0F0
00F0F0
00F0F0
00F0F0
00F0F0
000F00
000F00
000F00
000F00
000F00
000F00
000F00
000F00
000F00
000F00
000F00
000F00
ENDCHAR
STARTCHAR GREEK
ENCODING 911
SWIDTH 1920 0
DWIDTH 20 0
BBX 20 32 0 0
BITMAP
0F0000
0F0000
0F0000
0F0000
F00000
F00000
F00000
F00000
0FFF00
0FFF00
0FFF00
0FFF00
F000F0
F000F0
F000F0
F000F0
F000F0
F000F0
F000F0
F000F0
F000F0
F000F0
F000F0
F000F0
0F0F00
0F0F00
0F0F00
0F0F00
FF0FF0
FF0FF0
FF0FF0
FF0FF0
ENDCHAR
STARTCHAR GREEK
ENCODING 912
SWIDTH 1920 0
DWIDTH 20 0
BBX 24 36 0 0
BITMAP
000F00
000F00
000F00
000F00
F0FF0F
F0FF0F
F0FF0F
F0FF0F
00F000
00F000
00F000
00F000
000000
000000
000000
000000
00F000
00F000
00F000
00F000
00F000
00F000
00F000
00F000
00F000
00F000
00F000
00F000
00F000
00F000
00F000
00F000
00F000
00F000
00F000
00F000
ENDCHAR
STARTCHAR GREEK
ENCODING 913
SWIDTH 1920 0
DWIDTH 20 0
BBX 16 24 4 0
BITMAP
0FF0
0FF0
0FF0
0FF0
F00F
F00F
F00F
F00F
F00F
F00F
F00F
F00F
FFFF
FFFF
FFFF
FFFF
F00F
F00F
F00F
F00F
F00F
F00F
F00F
F00F
ENDCHAR
STARTCHAR uni0042
ENCODING 914
SWIDTH 1920 0
DWIDTH 20 0
BBX 16 24 4 0
BITMAP
FFF0
FFF0
FFF0
FFF0
F00F
F00F
F00F
F00F
FFF0
FFF0
FFF0
FFF0
F00F
F00F
F00F
F00F
F00F
F00F
F00F
F00F
FFF0
FFF0
FFF0
FFF0
ENDCHAR
STARTCHAR GREEK
ENCODING 915
SWIDTH 1920 0
DWIDTH 20 0
BBX 16 20 4 0
BITMAP
FFFF
FFFF
FFFF
FFFF
F000
F000
F000
F000
F000
F000
F000
F000
F000
F000
F000
F000
F000
F000
F000
F000
ENDCHAR
STARTCHAR GREEK
ENCODING 916
SWIDTH 1920 0
DWIDTH 20 0
BBX 20 24 0 0
BITMAP
00F000
00F000
00F000
00F000
00F000
00F000
00F000
00F000
0F0F00
0F0F00
0F0F00
0F0F00
0F0F00
0F0F00
0F0F00
0F0F00
F000F0
F000F0
F000F0
F000F0
FFFFF0
FFFFF0
FFFFF0
FFFFF0
ENDCHAR
STARTCHAR uni0045
ENCODING 917
SWIDTH 1920 0
DWIDTH 20 0
BBX 16 24 4 0
BITMAP
FFFF
FFFF
FFFF
FFFF
F000
F000
F000
F000
FFF0
FFF0
FFF0
FFF0
F000
F000
F000
F000
F000
F000
F000
F000
FFFF
FFFF
FFFF
FFFF
ENDCHAR
STARTCHAR uni005A
ENCODING 918
SWIDTH 1920 0
DWIDTH 20 0
BBX 16 24 4 0
BITMAP
FFFF
FFFF
FFFF
FFFF
000F
000F
000F
000F
00F0
00F0
00F0
00F0
0F00
0F00
0F00
0F00
F000
F000
F000
F000
FFFF
FFFF
FFFF
FFFF
ENDCHAR
STARTCHAR uni0048
ENCODING 919
SWIDTH 1920 0
DWIDTH 20 0
BBX 16 24 4 0
BITMAP
F00F
F00F
F00F
F00F
F00F
F00F
F00F
F00F
FFFF
FFFF
FFFF
FFFF
F00F
F00F
F00F
F00F
F00F
F00F
F00F
F00F
F00F
F00F
F00F
F00F
ENDCHAR
STARTCHAR GREEK
ENCODING 920
SWIDTH 1920 0
DWIDTH 20 0
BBX 16 24 4 0
BITMAP
0FF0
0FF0
0FF0
0FF0
F00F
F00F
F00F
F00F
F0FF
F0FF
F0FF
F0FF
FF0F
FF0F
FF0F
FF0F
F00F
F00F
F00F
F00F
0FF0
0FF0
0FF0
0FF0
ENDCHAR
STARTCHAR GREEK
ENCODING 921
SWIDTH 1920 0
DWIDTH 20 0
BBX 12 24 4 0
BITMAP
FFF0
FFF0
FFF0
FFF0
0F00
0F00
0F00
0F00
0F00
0F00
0F00
0F00
0F00
0F00
0F00
0F00
0F00
0F00
0F00
0F00
FFF0
FFF0
FFF0
FFF0
ENDCHAR
STARTCHAR uni004B
ENCODING 922
SWIDTH 1920 0
DWIDTH 20 0
BBX 16 24 4 0
BITMAP
F00F
F00F
F00F
F00F
F0F0
F0F0
F0F0
F0F0
FF00
FF00
FF00
FF00
F0F0
F0F0
F0F0
F0F0
F00F
F00F
F00F
F00F
F00F
F00F
F00F
F00F
ENDCHAR
STARTCHAR GREEK
ENCODING 923
SWIDTH 1920 0
DWIDTH 20 0
BBX 20 24 0 0
BITMAP
00F000
00F000
00F000
00F000
00F000
00F000
00F000
00F000
0F0F00
0F0F00
0F0F00
0F0F00
0F0F00
0F0F00
0F0F00
0F0F00
F000F0
F000F0
F000F0
F000F0
F000F0
F000F0
F000F0
F000F0
ENDCHAR
STARTCHAR uni004D
ENCODING 924
SWIDTH 1920 0
DWIDTH 20 0
BBX 16 24 4 0
BITMAP
F00F
F00F
F00F
F00F
FFFF
FFFF
FFFF
FFFF
F0FF
F0FF
F0FF
F0FF
F00F
F00F
F00F
F00F
F00F
F00F
F00F
F00F
F00F
F00F
F00F
F00F
ENDCHAR
STARTCHAR uni004E
ENCODING 925
SWIDTH 1920 0
DWIDTH 20 0
BBX 16 24 4 0
BITMAP
F00F
F00F
F00F
F00F
FF0F
FF0F
FF0F
FF0F
FF0F
FF0F
FF0F
FF0F
F0FF
F0FF
F0FF
F0FF
F0FF
F0FF
F0FF
F0FF
F00F
F00F
F00F
F00F
ENDCHAR
STARTCHAR GREEK
ENCODING 926
SWIDTH 1920 0
DWIDTH 20 0
BBX 20 20 0 0
BITMAP
FFFFF0
FFFFF0
FFFFF0
FFFFF0
000000
000000
000000
000000
0FFF00
0FFF00
0FFF00
0FFF00
000000
000000
000000
000000
FFFFF0
FFFFF0
FFFFF0
FFFFF0
ENDCHAR
STARTCHAR GREEK
ENCODING 927
SWIDTH 1920 0
DWIDTH 20 0
BBX 16 24 4 0
BITMAP
0FF0
0FF0
0FF0
0FF0
F00F
F00F
F00F
F00F
F00F
F00F
F00F
F00F
F00F
F00F
F00F
F00F
F00F
F00F
F00F
F00F
0FF0
0FF0
0FF0
0FF0
ENDCHAR
STARTCHAR char1055
ENCODING 928
SWIDTH 1920 0
DWIDTH 20 0
BBX 16 24 4 0
BITMAP
FFFF
FFFF
FFFF
FFFF
F00F
F00F
F00F
F00F
F00F
F00F
F00F
F00F
F00F
F00F
F00F
F00F
F00F
F00F
F00F
F00F
F00F
F00F
F00F
F00F
ENDCHAR
STARTCHAR uni0050
ENCODING 929
SWIDTH 1920 0
DWIDTH 20 0
BBX 16 24 4 0
BITMAP
FFF0
FFF0
FFF0
FFF0
F00F
F00F
F00F
F00F
F00F
F00F
F00F
F00F
FFF0
FFF0
FFF0
FFF0
F000
F000
F000
F000
F000
F000
F000
F000
ENDCHAR
STARTCHAR GREEK
ENCODING 931
SWIDTH 1920 0
DWIDTH 20 0
BBX 20 24 0 0
BITMAP
FFFFF0
FFFFF0
FFFFF0
FFFFF0
0F0000
0F0000
0F0000
0F0000
00F000
00F000
00F000
00F000
0F0000
0F0000
0F0000
0F0000
F00000
F00000
F00000
F00000
FFFFF0
FFFFF0
FFFFF0
FFFFF0
ENDCHAR
STARTCHAR GREEK
ENCODING 932
SWIDTH 1920 0
DWIDTH 20 0
BBX 20 24 0 0
BITMAP
FFFFF0
FFFFF0
FFFFF0
FFFFF0
00F000
00F000
00F000
00F000
00F000
00F000
00F000
00F000
00F000
00F000
00F000
00F000
00F000
00F000
00F000
00F000
00F000
00F000
00F000
00F000
ENDCHAR
STARTCHAR uni0059
ENCODING 933
SWIDTH 1920 0
DWIDTH 20 0
BBX 20 24 0 0
BITMAP
F000F0
F000F0
F000F0
F000F0
F000F0
F000F0
F000F0
F000F0
0F0F00
0F0F00
0F0F00
0F0F00
00F000
00F000
00F000
00F000
00F000
00F000
00F000
00F000
00F000
00F000
00F000
00F000
ENDCHAR
STARTCHAR GREEK
ENCODING 934
SWIDTH 1920 0
DWIDTH 20 0
BBX 20 28 0 0
BITMAP
00F000
00F000
00F000
00F000
0FFF00
0FFF00
0FFF00
0FFF00
F0F0F0
F0F0F0
F0F0F0
F0F0F0
F0F0F0
F0F0F0
F0F0F0
F0F0F0
F0F0F0
F0F0F0
F0F0F0
F0F0F0
0FFF00
0FFF00
0FFF00
0FFF00
00F000
00F000
00F000
00F000
ENDCHAR
STARTCHAR uni0058
ENCODING 935
SWIDTH 1920 0
DWIDTH 20 0
BBX 16 24 4 0
BITMAP
F00F
F00F
F00F
F00F
F00F
F00F
F00F
F00F
0FF0
0FF0
0FF0
0FF0
F00F
F00F
F00F
F00F
F00F
F00F
F00F
F00F
F00F
F00F
F00F
F00F
ENDCHAR
STARTCHAR GREEK
ENCODING 936
SWIDTH 1920 0
DWIDTH 20 0
BBX 20 24 0 0
BITMAP
F0F0F0
F0F0F0
F0F0F0
F0F0F0
F0F0F0
F0F0F0
F0F0F0
F0F0F0
F0F0F0
F0F0F0
F0F0F0
F0F0F0
0FFF00
0FFF00
0FFF00
0FFF00
00F000
00F000
00F000
00F000
00F000
00F000
00F000
00F000
ENDCHAR
STARTCHAR GREEK
ENCODING 937
SWIDTH 1920 0
DWIDTH 20 0
BBX 20 24 0 0
BITMAP
0FFF00
0FFF00
0FFF00
0FFF00
F000F0
F000F0
F000F0
F000F0
F000F0
F000F0
F000F0
F000F0
F000F0
F000F0
F000F0
F000F0
0F0F00
0F0F00
0F0F00
0F0F00
FF0FF0
FF0FF0
FF0FF0
FF0FF0
ENDCHAR
STARTCHAR GREEK
ENCODING 938
SWIDTH 1920 0
DWIDTH 20 0
BBX 12 28 4 0
BITMAP
F0F0
F0F0
F0F0
F0F0
0000
0000
0000
0000
0F00
0F00
0F00
0F00
0F00
0F00
0F00
0F00
0F00
0F00
0F00
0F00
0F00
0F00
0F00
0F00
0F00
0F00
0F00
0F00
ENDCHAR
STARTCHAR GREEK
ENCODING 939
SWIDTH 1920 0
DWIDTH 20 0
BBX 20 32 0 0
BITMAP
0F0F00
0F0F00
0F0F00
0F0F00
000000
000000
000000
000000
F000F0
F000F0
F000F0
F000F0
F000F0
F000F0
F000F0
F000F0
0F0F00
0F0F00
0F0F00
0F0F00
00F000
00F000
00F000
00F000
00F000
00F000
00F000
00F000
00F000
00F000
00F000
00F000
ENDCHAR
STARTCHAR char225
ENCODING 940
SWIDTH 1920 0
DWIDTH 20 0
BBX 16 32 4 0
BITMAP
00F0
00F0
00F0
00F0
0F00
0F00
0F00
0F00
0000
0000
0000
0000
0FFF
0FFF
0FFF
0FFF
F00F
F00F
F00F
F00F
F00F
F00F
F00F
F00F
F0FF
F0FF
F0FF
F0FF
0F0F
0F0F
0F0F
0F0F
ENDCHAR
STARTCHAR GREEK
ENCODING 941
SWIDTH 1920 0
DWIDTH 20 0
BBX 16 32 4 0
BITMAP
00F0
00F0
00F0
00F0
0F00
0F00
0F00
0F00
0000
0000
0000
0000
0FFF
0FFF
0FFF
0FFF
F000
F000
F000
F000
FFF0
FFF0
FFF0
FFF0
F000
F000
F000
F000
0FFF
0FFF
0FFF
0FFF
ENDCHAR
STARTCHAR uni006E
ENCODING 942
SWIDTH 1920 0
DWIDTH 20 0
BBX 16 36 4 -4
BITMAP
00F0
00F0
00F0
00F0
0F00
0F00
0F00
0F00
0000
0000
0000
0000
FFF0
FFF0
FFF0
FFF0
F00F
F00F
F00F
F00F
F00F
F00F
F00F
F00F
F00F
F00F
F00F
F00F
F00F
F00F
F00F
F00F
000F
000F
000F
000F
ENDCHAR
STARTCHAR GREEK
ENCODING 943
SWIDTH 1920 0
DWIDTH 20 0
BBX 12 32 4 0
BITMAP
00F0
00F0
00F0
00F0
0F00
0F00
0F00
0F00
0000
0000
0000
0000
FF00
FF00
FF00
FF00
0F00
0F00
0F00
0F00
0F00
0F00
0F00
0F00
0F00
0F00
0F00
0F00
0F00
0F00
0F00
0F00
ENDCHAR
STARTCHAR GREEK
ENCODING 944
SWIDTH 1920 0
DWIDTH 20 0
BBX 24 32 0 0
BITMAP
000F00
000F00
000F00
000F00
F0FF0F
F0FF0F
F0FF0F
F0FF0F
00F000
00F000
00F000
00F000
0F00F0
0F00F0
0F00F0
0F00F0
0F00F0
0F00F0
0F00F0
0F00F0
0F00F0
0F00F0
0F00F0
0F00F0
0F00F0
0F00F0
0F00F0
0F00F0
00FFF0
00FFF0
00FFF0
00FFF0
ENDCHAR
STARTCHAR uni0061
ENCODING 945
SWIDTH 1920 0
DWIDTH 20 0
BBX 16 20 4 0
BITMAP
0FFF
0FFF
0FFF
0FFF
F00F
F00F
F00F
F00F
F00F
F00F
F00F
F00F
F0FF
F0FF
F0FF
F0FF
0F0F
0F0F
0F0F
0F0F
ENDCHAR
STARTCHAR char223
ENCODING 946
SWIDTH 1920 0
DWIDTH 20 0
BBX 16 28 4 -4
BITMAP
0FF0
0FF0
0FF0
0FF0
F00F
F00F
F00F
F00F
F0F0
F0F0
F0F0
F0F0
F00F
F00F
F00F
F00F
F00F
F00F
F00F
F00F
F0F0
F0F0
F0F0
F0F0
F000
F000
F000
F000
ENDCHAR
STARTCHAR uni0076
ENCODING 947
SWIDTH 1920 0
DWIDTH 20 0
BBX 16 28 4 -8
BITMAP
F00F
F00F
F00F
F00F
F00F
F00F
F00F
F00F
0F0F
0F0F
0F0F
0F0F
0FF0
0FF0
0FF0
0FF0
0F0F
0F0F
0F0F
0F0F
0F0F
0F0F
0F0F
0F0F
00F0
00F0
00F0
00F0
ENDCHAR
STARTCHAR GREEK
ENCODING 948
SWIDTH 1920 0
DWIDTH 20 0
BBX 16 28 4 0
BITMAP
FFFF
FFFF
FFFF
FFFF
F000
F000
F000
F000
0FF0
0FF0
0FF0
0FF0
F00F
F00F
F00F
F00F
F00F
F00F
F00F
F00F
F00F
F00F
F00F
F00F
0FF0
0FF0
0FF0
0FF0
ENDCHAR
STARTCHAR GREEK
ENCODING 949
SWIDTH 1920 0
DWIDTH 20 0
BBX 16 20 4 0
BITMAP
0FFF
0FFF
0FFF
0FFF
F000
F000
F000
F000
FFF0
FFF0
FFF0
FFF0
F000
F000
F000
F000
0FFF
0FFF
0FFF
0FFF
ENDCHAR
STARTCHAR GREEK
ENCODING 950
SWIDTH 1920 0
DWIDTH 20 0
BBX 16 28 4 -4
BITMAP
FFFF
FFFF
FFFF
FFFF
00F0
00F0
00F0
00F0
0F00
0F00
0F00
0F00
F000
F000
F000
F000
F000
F000
F000
F000
0FFF
0FFF
0FFF
0FFF
00F0
00F0
00F0
00F0
ENDCHAR
STARTCHAR GREEK
ENCODING 951
SWIDTH 1920 0
DWIDTH 20 0
BBX 16 24 4 -4
BITMAP
FFF0
FFF0
FFF0
FFF0
F00F
F00F
F00F
F00F
F00F
F00F
F00F
F00F
F00F
F00F
F00F
F00F
F00F
F00F
F00F
F00F
000F
000F
000F
000F
ENDCHAR
STARTCHAR GREEK
ENCODING 952
SWIDTH 1920 0
DWIDTH 20 0
BBX 16 20 4 0
BITMAP
0FF0
0FF0
0FF0
0FF0
F00F
F00F
F00F
F00F
FFFF
FFFF
FFFF
FFFF
F00F
F00F
F00F
F00F
0FF0
0FF0
0FF0
0FF0
ENDCHAR
STARTCHAR GREEK
ENCODING 953
SWIDTH 1920 0
DWIDTH 20 0
BBX 8 20 8 0
BITMAP
FF
FF
FF
FF
0F
0F
0F
0F
0F
0F
0F
0F
0F
0F
0F
0F
0F
0F
0F
0F
ENDCHAR
STARTCHAR uni006B
ENCODING 954
SWIDTH 1920 0
DWIDTH 20 0
BBX 16 20 4 0
BITMAP
F00F
F00F
F00F
F00F
F0F0
F0F0
F0F0
F0F0
FFF0
FFF0
FFF0
FFF0
F00F
F00F
F00F
F00F
F00F
F00F
F00F
F00F
ENDCHAR
STARTCHAR GREEK
ENCODING 955
SWIDTH 1920 0
DWIDTH 20 0
BBX 16 28 4 0
BITMAP
F000
F000
F000
F000
F000
F000
F000
F000
0F00
0F00
0F00
0F00
0FF0
0FF0
0FF0
0FF0
0FF0
0FF0
0FF0
0FF0
F00F
F00F
F00F
F00F
F00F
F00F
F00F
F00F
ENDCHAR
STARTCHAR uni0075
ENCODING 956
SWIDTH 1920 0
DWIDTH 20 0
BBX 16 24 4 -4
BITMAP
F00F
F00F
F00F
F00F
F00F
F00F
F00F
F00F
F00F
F00F
F00F
F00F
F00F
F00F
F00F
F00F
FFF0
FFF0
FFF0
FFF0
F000
F000
F000
F000
ENDCHAR
STARTCHAR uni0076
ENCODING 957
SWIDTH 1920 0
DWIDTH 20 0
BBX 16 20 4 0
BITMAP
F00F
F00F
F00F
F00F
F00F
F00F
F00F
F00F
F00F
F00F
F00F
F00F
0FF0
0FF0
0FF0
0FF0
0FF0
0FF0
0FF0
0FF0
ENDCHAR
STARTCHAR GREEK
ENCODING 958
SWIDTH 1920 0
DWIDTH 20 0
BBX 16 32 4 -8
BITMAP
0FF0
0FF0
0FF0
0FF0
F00F
F00F
F00F
F00F
0F00
0F00
0F00
0F00
F000
F000
F000
F000
F000
F000
F000
F000
0FF0
0FF0
0FF0
0FF0
000F
000F
000F
000F
00F0
00F0
00F0
00F0
ENDCHAR
STARTCHAR GREEK
ENCODING 959
SWIDTH 1920 0
DWIDTH 20 0
BBX 16 20 4 0
BITMAP
0FF0
0FF0
0FF0
0FF0
F00F
F00F
F00F
F00F
F00F
F00F
F00F
F00F
F00F
F00F
F00F
F00F
0FF0
0FF0
0FF0
0FF0
ENDCHAR
STARTCHAR char960
ENCODING 960
SWIDTH 1920 0
DWIDTH 20 0
BBX 20 20 4 0
BITMAP
FFFFF0
FFFFF0
FFFFF0
FFFFF0
0F0F00
0F0F00
0F0F00
0F0F00
0F0F00
0F0F00
0F0F00
0F0F00
0F0F00
0F0F00
0F0F00
0F0F00
0F0F00
0F0F00
0F0F00
0F0F00
ENDCHAR
STARTCHAR uni0070
ENCODING 961
SWIDTH 1920 0
DWIDTH 20 0
BBX 16 32 4 -12
BITMAP
0FF0
0FF0
0FF0
0FF0
F00F
F00F
F00F
F00F
F00F
F00F
F00F
F00F
F00F
F00F
F00F
F00F
FFF0
FFF0
FFF0
FFF0
F000
F000
F000
F000
F000
F000
F000
F000
F000
F000
F000
F000
ENDCHAR
STARTCHAR char231
ENCODING 962
SWIDTH 1920 0
DWIDTH 20 0
BBX 16 28 4 -8
BITMAP
0FFF
0FFF
0FFF
0FFF
F000
F000
F000
F000
F000
F000
F000
F000
F000
F000
F000
F000
0FFF
0FFF
0FFF
0FFF
00F0
00F0
00F0
00F0
0F00
0F00
0F00
0F00
ENDCHAR
STARTCHAR char240
ENCODING 963
SWIDTH 1920 0
DWIDTH 20 0
BBX 20 20 4 0
BITMAP
0FFFF0
0FFFF0
0FFFF0
0FFFF0
F00F00
F00F00
F00F00
F00F00
F00F00
F00F00
F00F00
F00F00
F00F00
F00F00
F00F00
F00F00
0FF000
0FF000
0FF000
0FF000
ENDCHAR
STARTCHAR GREEK
ENCODING 964
SWIDTH 1920 0
DWIDTH 20 0
BBX 16 20 4 0
BITMAP
FFFF
FFFF
FFFF
FFFF
0F00
0F00
0F00
0F00
0F00
0F00
0F00
0F00
0F00
0F00
0F00
0F00
00F0
00F0
00F0
00F0
ENDCHAR
STARTCHAR uni0075
ENCODING 965
SWIDTH 1920 0
DWIDTH 20 0
BBX 16 20 4 0
BITMAP
F0F0
F0F0
F0F0
F0F0
F00F
F00F
F00F
F00F
F00F
F00F
F00F
F00F
F00F
F00F
F00F
F00F
0FF0
0FF0
0FF0
0FF0
ENDCHAR
STARTCHAR GREEK
ENCODING 966
SWIDTH 1920 0
DWIDTH 20 0
BBX 20 28 4 -8
BITMAP
F0FF00
F0FF00
F0FF00
F0FF00
F0F0F0
F0F0F0
F0F0F0
F0F0F0
F0F0F0
F0F0F0
F0F0F0
F0F0F0
F0F0F0
F0F0F0
F0F0F0
F0F0F0
0FFF00
0FFF00
0FFF00
0FFF00
00F000
00F000
00F000
00F000
00F000
00F000
00F000
00F000
ENDCHAR
STARTCHAR uni0078
ENCODING 967
SWIDTH 1920 0
DWIDTH 20 0
BBX 16 20 4 0
BITMAP
F00F
F00F
F00F
F00F
F00F
F00F
F00F
F00F
0FF0
0FF0
0FF0
0FF0
F00F
F00F
F00F
F00F
F00F
F00F
F00F
F00F
ENDCHAR
STARTCHAR GREEK
ENCODING 968
SWIDTH 1920 0
DWIDTH 20 0
BBX 20 28 4 -8
BITMAP
F0F0F0
F0F0F0
F0F0F0
F0F0F0
F0F0F0
F0F0F0
F0F0F0
F0F0F0
F0F0F0
F0F0F0
F0F0F0
F0F0F0
0FFF00
0FFF00
0FFF00
0FFF00
00F000
00F000
00F000
00F000
00F000
00F000
00F000
00F000
00F000
00F000
00F000
00F000
ENDCHAR
STARTCHAR GREEK
ENCODING 969
SWIDTH 1920 0
DWIDTH 20 0
BBX 20 20 4 0
BITMAP
0F0F00
0F0F00
0F0F00
0F0F00
F000F0
F000F0
F000F0
F000F0
F0F0F0
F0F0F0
F0F0F0
F0F0F0
F0F0F0
F0F0F0
F0F0F0
F0F0F0
0F0F00
0F0F00
0F0F00
0F0F00
ENDCHAR
STARTCHAR GREEK
ENCODING 970
SWIDTH 1920 0
DWIDTH 20 0
BBX 12 28 8 0
BITMAP
F0F0
F0F0
F0F0
F0F0
0000
0000
0000
0000
FF00
FF00
FF00
FF00
0F00
0F00
0F00
0F00
0F00
0F00
0F00
0F00
0F00
0F00
0F00
0F00
0F00
0F00
0F00
0F00
ENDCHAR
STARTCHAR char252
ENCODING 971
SWIDTH 1920 0
DWIDTH 20 0
BBX 16 28 4 0
BITMAP
F0F0
F0F0
F0F0
F0F0
0000
0000
0000
0000
F00F
F00F
F00F
F00F
F00F
F00F
F00F
F00F
F00F
F00F
F00F
F00F
F00F
F00F
F00F
F00F
0FFF
0FFF
0FFF
0FFF
ENDCHAR
STARTCHAR char243
ENCODING 972
SWIDTH 1920 0
DWIDTH 20 0
BBX 16 32 4 0
BITMAP
000F
000F
000F
000F
00F0
00F0
00F0
00F0
0000
0000
0000
0000
0FF0
0FF0
0FF0
0FF0
F00F
F00F
F00F
F00F
F00F
F00F
F00F
F00F
F00F
F00F
F00F
F00F
0FF0
0FF0
0FF0
0FF0
ENDCHAR
STARTCHAR char250
ENCODING 973
SWIDTH 1920 0
DWIDTH 20 0
BBX 16 32 4 0
BITMAP
00F0
00F0
00F0
00F0
0F00
0F00
0F00
0F00
0000
0000
0000
0000
F00F
F00F
F00F
F00F
F00F
F00F
F00F
F00F
F00F
F00F
F00F
F00F
F00F
F00F
F00F
F00F
0FFF
0FFF
0FFF
0FFF
ENDCHAR
STARTCHAR GREEK
ENCODING 974
SWIDTH 1920 0
DWIDTH 20 0
BBX 20 32 4 0
BITMAP
00F000
00F000
00F000
00F000
0F0000
0F0000
0F0000
0F0000
000000
000000
000000
000000
0F0F00
0F0F00
0F0F00
0F0F00
F000F0
F000F0
F000F0
F000F0
F0F0F0
F0F0F0
F0F0F0
F0F0F0
FF0FF0
FF0FF0
FF0FF0
FF0FF0
F000F0
F000F0
F000F0
F000F0
ENDCHAR
STARTCHAR uni004B
ENCODING 975
SWIDTH 1920 0
DWIDTH 20 0
BBX 16 28 4 -4
BITMAP
F00F
F00F
F00F
F00F
F0F0
F0F0
F0F0
F0F0
FF00
FF00
FF00
FF00
F0F0
F0F0
F0F0
F0F0
F00F
F00F
F00F
F00F
F00F
F00F
F00F
F00F
00F0
00F0
00F0
00F0
ENDCHAR
STARTCHAR GREEK
ENCODING 976
SWIDTH 1920 0
DWIDTH 20 0
BBX 16 24 4 0
BITMAP
0FF0
0FF0
0FF0
0FF0
F00F
F00F
F00F
F00F
FFF0
FFF0
FFF0
FFF0
F00F
F00F
F00F
F00F
F00F
F00F
F00F
F00F
0FF0
0FF0
0FF0
0FF0
ENDCHAR
STARTCHAR GREEK
ENCODING 977
SWIDTH 1920 0
DWIDTH 20 0
BBX 24 24 0 0
BITMAP
00FF00
00FF00
00FF00
00FF00
0F00F0
0F00F0
0F00F0
0F00F0
0F0FFF
0F0FFF
0F0FFF
0F0FFF
FFF0F0
FFF0F0
FFF0F0
FFF0F0
0F00F0
0F00F0
0F00F0
0F00F0
00FF00
00FF00
00FF00
00FF00
ENDCHAR
STARTCHAR uni0059
ENCODING 978
SWIDTH 1920 0
DWIDTH 20 0
BBX 24 24 0 0
BITMAP
F000F0
F000F0
F000F0
F000F0
F000FF
F000FF
F000FF
F000FF
0F0F00
0F0F00
0F0F00
0F0F00
00F000
00F000
00F000
00F000
00F000
00F000
00F000
00F000
00F000
00F000
00F000
00F000
ENDCHAR
STARTCHAR uni0059
ENCODING 979
SWIDTH 1920 0
DWIDTH 20 0
BBX 24 28 0 0
BITMAP
0F0000
0F0000
0F0000
0F0000
F000F0
F000F0
F000F0
F000F0
F000FF
F000FF
F000FF
F000FF
0F0F00
0F0F00
0F0F00
0F0F00
00F000
00F000
00F000
00F000
00F000
00F000
00F000
00F000
00F000
00F000
00F000
00F000
ENDCHAR
STARTCHAR uni0059
ENCODING 980
SWIDTH 1920 0
DWIDTH 20 0
BBX 24 32 0 0
BITMAP
0F0F00
0F0F00
0F0F00
0F0F00
000000
000000
000000
000000
F000F0
F000F0
F000F0
F000F0
F000FF
F000FF
F000FF
F000FF
0F0F00
0F0F00
0F0F00
0F0F00
00F000
00F000
00F000
00F000
00F000
00F000
00F000
00F000
00F000
00F000
00F000
00F000
ENDCHAR
STARTCHAR GREEK
ENCODING 981
SWIDTH 1920 0
DWIDTH 20 0
BBX 20 36 4 -8
BITMAP
00F000
00F000
00F000
00F000
00F000
00F000
00F000
00F000
0FFF00
0FFF00
0FFF00
0FFF00
F0F0F0
F0F0F0
F0F0F0
F0F0F0
F0F0F0
F0F0F0
F0F0F0
F0F0F0
F0F0F0
F0F0F0
F0F0F0
F0F0F0
0FFF00
0FFF00
0FFF00
0FFF00
00F000
00F000
00F000
00F000
00F000
00F000
00F000
00F000
ENDCHAR
STARTCHAR GREEK
ENCODING 982
SWIDTH 1920 0
DWIDTH 20 0
BBX 20 20 4 0
BITMAP
FFFFF0
FFFFF0
FFFFF0
FFFFF0
F000F0
F000F0
F000F0
F000F0
F0F0F0
F0F0F0
F0F0F0
F0F0F0
FF0FF0
FF0FF0
FF0FF0
FF0FF0
F000F0
F000F0
F000F0
F000F0
ENDCHAR
STARTCHAR uni0078
ENCODING 983
SWIDTH 1920 0
DWIDTH 20 0
BBX 20 24 4 -4
BITMAP
F00F00
F00F00
F00F00
F00F00
F00F00
F00F00
F00F00
F00F00
0FF000
0FF000
0FF000
0FF000
F00F00
F00F00
F00F00
F00F00
F00FF0
F00FF0
F00FF0
F00FF0
00F000
00F000
00F000
00F000
ENDCHAR
STARTCHAR GREEK
ENCODING 984
SWIDTH 1920 0
DWIDTH 20 0
BBX 20 32 0 -8
BITMAP
0FFF00
0FFF00
0FFF00
0FFF00
F000F0
F000F0
F000F0
F000F0
F000F0
F000F0
F000F0
F000F0
F000F0
F000F0
F000F0
F000F0
F000F0
F000F0
F000F0
F000F0
0FFF00
0FFF00
0FFF00
0FFF00
00F000
00F000
00F000
00F000
00F000
00F000
00F000
00F000
ENDCHAR
STARTCHAR GREEK
ENCODING 985
SWIDTH 1920 0
DWIDTH 20 0
BBX 20 28 0 -8
BITMAP
0FFF00
0FFF00
0FFF00
0FFF00
F000F0
F000F0
F000F0
F000F0
F000F0
F000F0
F000F0
F000F0
F000F0
F000F0
F000F0
F000F0
0FFF00
0FFF00
0FFF00
0FFF00
00F000
00F000
00F000
00F000
00F000
00F000
00F000
00F000
ENDCHAR
STARTCHAR GREEK
ENCODING 986
SWIDTH 1920 0
DWIDTH 20 0
BBX 20 32 4 -8
BITMAP
0FFF00
0FFF00
0FFF00
0FFF00
F00000
F00000
F00000
F00000
F00000
F00000
F00000
F00000
F00000
F00000
F00000
F00000
F00000
F00000
F00000
F00000
0FFF00
0FFF00
0FFF00
0FFF00
0000F0
0000F0
0000F0
0000F0
00FF00
00FF00
00FF00
00FF00
ENDCHAR
STARTCHAR GREEK
ENCODING 987
SWIDTH 1920 0
DWIDTH 20 0
BBX 20 28 4 -8
BITMAP
0FFF00
0FFF00
0FFF00
0FFF00
F00000
F00000
F00000
F00000
F00000
F00000
F00000
F00000
F00000
F00000
F00000
F00000
0FFF00
0FFF00
0FFF00
0FFF00
0000F0
0000F0
0000F0
0000F0
00FF00
00FF00
00FF00
00FF00
ENDCHAR
STARTCHAR uni0046
ENCODING 988
SWIDTH 1920 0
DWIDTH 20 0
BBX 16 24 4 0
BITMAP
FFFF
FFFF
FFFF
FFFF
F000
F000
F000
F000
FFFF
FFFF
FFFF
FFFF
F00F
F00F
F00F
F00F
F000
F000
F000
F000
F000
F000
F000
F000
ENDCHAR
STARTCHAR uni0046
ENCODING 989
SWIDTH 1920 0
DWIDTH 20 0
BBX 16 24 4 -4
BITMAP
FFFF
FFFF
FFFF
FFFF
F000
F000
F000
F000
FFF0
FFF0
FFF0
FFF0
F0F0
F0F0
F0F0
F0F0
F000
F000
F000
F000
F000
F000
F000
F000
ENDCHAR
STARTCHAR GREEK
ENCODING 990
SWIDTH 1920 0
DWIDTH 20 0
BBX 24 24 0 -4
BITMAP
F00000
F00000
F00000
F00000
0F00F0
0F00F0
0F00F0
0F00F0
0F0FF0
0F0FF0
0F0FF0
0F0FF0
0FF0F0
0FF0F0
0FF0F0
0FF0F0
0F00F0
0F00F0
0F00F0
0F00F0
00000F
00000F
00000F
00000F
ENDCHAR
STARTCHAR GREEK
ENCODING 991
SWIDTH 1920 0
DWIDTH 20 0
BBX 12 28 4 -4
BITMAP
00F0
00F0
00F0
00F0
0F00
0F00
0F00
0F00
F000
F000
F000
F000
FFF0
FFF0
FFF0
FFF0
00F0
00F0
00F0
00F0
0F00
0F00
0F00
0F00
F000
F000
F000
F000
ENDCHAR
STARTCHAR GREEK
ENCODING 992
SWIDTH 1920 0
DWIDTH 20 0
BBX 16 28 4 -4
BITMAP
0F00
0F00
0F00
0F00
00F0
00F0
00F0
00F0
0FF0
0FF0
0FF0
0FF0
F00F
F00F
F00F
F00F
00FF
00FF
00FF
00FF
0F0F
0F0F
0F0F
0F0F
000F
000F
000F
000F
ENDCHAR
STARTCHAR GREEK
ENCODING 993
SWIDTH 1920 0
DWIDTH 20 0
BBX 16 28 4 -4
BITMAP
0F00
0F00
0F00
0F00
00F0
00F0
00F0
00F0
0FF0
0FF0
0FF0
0FF0
F00F
F00F
F00F
F00F
00FF
00FF
00FF
00FF
0F0F
0F0F
0F0F
0F0F
000F
000F
000F
000F
ENDCHAR
STARTCHAR COPTIC
ENCODING 994
SWIDTH 1920 0
DWIDTH 20 0
BBX 20 28 4 -4
BITMAP
F0F0F0
F0F0F0
F0F0F0
F0F0F0
F0F0F0
F0F0F0
F0F0F0
F0F0F0
F0F0F0
F0F0F0
F0F0F0
F0F0F0
F0F0F0
F0F0F0
F0F0F0
F0F0F0
0F0FF0
0F0FF0
0F0FF0
0F0FF0
0000F0
0000F0
0000F0
0000F0
FFFF00
FFFF00
FFFF00
FFFF00
ENDCHAR
STARTCHAR COPTIC
ENCODING 995
SWIDTH 1920 0
DWIDTH 20 0
BBX 20 24 4 -8
BITMAP
F0F0F0
F0F0F0
F0F0F0
F0F0F0
F0F0F0
F0F0F0
F0F0F0
F0F0F0
F0F0F0
F0F0F0
F0F0F0
F0F0F0
0F0FF0
0F0FF0
0F0FF0
0F0FF0
0000F0
0000F0
0000F0
0000F0
FFFF00
FFFF00
FFFF00
FFFF00
ENDCHAR
STARTCHAR COPTIC
ENCODING 996
SWIDTH 1920 0
DWIDTH 20 0
BBX 16 28 4 0
BITMAP
0F0F
0F0F
0F0F
0F0F
F00F
F00F
F00F
F00F
F00F
F00F
F00F
F00F
0FFF
0FFF
0FFF
0FFF
000F
000F
000F
000F
000F
000F
000F
000F
000F
000F
000F
000F
ENDCHAR
STARTCHAR COPTIC
ENCODING 997
SWIDTH 1920 0
DWIDTH 20 0
BBX 16 24 4 0
BITMAP
0F0F
0F0F
0F0F
0F0F
F00F
F00F
F00F
F00F
F00F
F00F
F00F
F00F
0FFF
0FFF
0FFF
0FFF
000F
000F
000F
000F
000F
000F
000F
000F
ENDCHAR
STARTCHAR COPTIC
ENCODING 998
SWIDTH 1920 0
DWIDTH 20 0
BBX 16 36 4 -8
BITMAP
F000
F000
F000
F000
F000
F000
F000
F000
F000
F000
F000
F000
FFF0
FFF0
FFF0
FFF0
F00F
F00F
F00F
F00F
F00F
F00F
F00F
F00F
F00F
F00F
F00F
F00F
000F
000F
000F
000F
FFF0
FFF0
FFF0
FFF0
ENDCHAR
STARTCHAR COPTIC
ENCODING 999
SWIDTH 1920 0
DWIDTH 20 0
BBX 20 28 4 -4
BITMAP
000F00
000F00
000F00
000F00
0FFF00
0FFF00
0FFF00
0FFF00
F0F0F0
F0F0F0
F0F0F0
F0F0F0
0F00F0
0F00F0
0F00F0
0F00F0
0000F0
0000F0
0000F0
0000F0
0FFF00
0FFF00
0FFF00
0FFF00
F00000
F00000
F00000
F00000
ENDCHAR
STARTCHAR uni0053
ENCODING 1000
SWIDTH 1920 0
DWIDTH 20 0
BBX 16 24 4 0
BITMAP
FFF0
FFF0
FFF0
FFF0
000F
000F
000F
000F
0FF0
0FF0
0FF0
0FF0
F000
F000
F000
F000
F00F
F00F
F00F
F00F
0FF0
0FF0
0FF0
0FF0
ENDCHAR
STARTCHAR uni0053
ENCODING 1001
SWIDTH 1920 0
DWIDTH 20 0
BBX 16 24 4 0
BITMAP
FFF0
FFF0
FFF0
FFF0
000F
000F
000F
000F
0FF0
0FF0
0FF0
0FF0
F000
F000
F000
F000
F000
F000
F000
F000
0FFF
0FFF
0FFF
0FFF
ENDCHAR
STARTCHAR COPTIC
ENCODING 1002
SWIDTH 1920 0
DWIDTH 20 0
BBX 20 28 4 0
BITMAP
0F0F00
0F0F00
0F0F00
0F0F00
F0F0F0
F0F0F0
F0F0F0
F0F0F0
00F000
00F000
00F000
00F000
0F0F00
0F0F00
0F0F00
0F0F00
0F0F00
0F0F00
0F0F00
0F0F00
F000F0
F000F0
F000F0
F000F0
FFFFF0
FFFFF0
FFFFF0
FFFFF0
ENDCHAR
STARTCHAR COPTIC
ENCODING 1003
SWIDTH 1920 0
DWIDTH 20 0
BBX 20 20 0 0
BITMAP
0F0F00
0F0F00
0F0F00
0F0F00
F0F0F0
F0F0F0
F0F0F0
F0F0F0
00F000
00F000
00F000
00F000
0F0F00
0F0F00
0F0F00
0F0F00
0FFF00
0FFF00
0FFF00
0FFF00
ENDCHAR
STARTCHAR COPTIC
ENCODING 1004
SWIDTH 1920 0
DWIDTH 20 0
BBX 16 28 4 0
BITMAP
0FFF
0FFF
0FFF
0FFF
F000
F000
F000
F000
FFF0
FFF0
FFF0
FFF0
F00F
F00F
F00F
F00F
F00F
F00F
F00F
F00F
F00F
F00F
F00F
F00F
0FF0
0FF0
0FF0
0FF0
ENDCHAR
STARTCHAR COPTIC
ENCODING 1005
SWIDTH 1920 0
DWIDTH 20 0
BBX 16 24 4 0
BITMAP
0FF0
0FF0
0FF0
0FF0
F000
F000
F000
F000
F0F0
F0F0
F0F0
F0F0
F00F
F00F
F00F
F00F
F00F
F00F
F00F
F00F
0FF0
0FF0
0FF0
0FF0
ENDCHAR
STARTCHAR COPTIC
ENCODING 1006
SWIDTH 1920 0
DWIDTH 20 0
BBX 20 24 0 0
BITMAP
00F000
00F000
00F000
00F000
0FFF00
0FFF00
0FFF00
0FFF00
F0F0F0
F0F0F0
F0F0F0
F0F0F0
00F000
00F000
00F000
00F000
00F000
00F000
00F000
00F000
00F000
00F000
00F000
00F000
ENDCHAR
STARTCHAR COPTIC
ENCODING 1007
SWIDTH 1920 0
DWIDTH 20 0
BBX 20 24 0 0
BITMAP
00FF00
00FF00
00FF00
00FF00
00F000
00F000
00F000
00F000
FFFFF0
FFFFF0
FFFFF0
FFFFF0
F0F000
F0F000
F0F000
F0F000
00F000
00F000
00F000
00F000
0FF000
0FF000
0FF000
0FF000
ENDCHAR
STARTCHAR uni0078
ENCODING 1008
SWIDTH 1920 0
DWIDTH 20 0
BBX 16 20 8 0
BITMAP
F00F
F00F
F00F
F00F
F0F0
F0F0
F0F0
F0F0
0FF0
0FF0
0FF0
0FF0
0F0F
0F0F
0F0F
0F0F
F00F
F00F
F00F
F00F
ENDCHAR
STARTCHAR GREEK
ENCODING 1009
SWIDTH 1920 0
DWIDTH 20 0
BBX 16 32 4 -12
BITMAP
0FF0
0FF0
0FF0
0FF0
F00F
F00F
F00F
F00F
F00F
F00F
F00F
F00F
F00F
F00F
F00F
F00F
FFF0
FFF0
FFF0
FFF0
F000
F000
F000
F000
0FF0
0FF0
0FF0
0FF0
000F
000F
000F
000F
ENDCHAR
STARTCHAR uni0063
ENCODING 1010
SWIDTH 1920 0
DWIDTH 20 0
BBX 16 20 4 0
BITMAP
0FFF
0FFF
0FFF
0FFF
F000
F000
F000
F000
F000
F000
F000
F000
F000
F000
F000
F000
0FFF
0FFF
0FFF
0FFF
ENDCHAR
STARTCHAR uni006A
ENCODING 1011
SWIDTH 1920 0
DWIDTH 20 0
BBX 12 36 4 -8
BITMAP
00F0
00F0
00F0
00F0
0000
0000
0000
0000
0FF0
0FF0
0FF0
0FF0
00F0
00F0
00F0
00F0
00F0
00F0
00F0
00F0
00F0
00F0
00F0
00F0
00F0
00F0
00F0
00F0
00F0
00F0
00F0
00F0
FF00
FF00
FF00
FF00
ENDCHAR
STARTCHAR GREEK
ENCODING 1012
SWIDTH 1920 0
DWIDTH 20 0
BBX 16 24 4 0
BITMAP
0FF0
0FF0
0FF0
0FF0
F00F
F00F
F00F
F00F
F0FF
F0FF
F0FF
F0FF
FF0F
FF0F
FF0F
FF0F
F00F
F00F
F00F
F00F
0FF0
0FF0
0FF0
0FF0
ENDCHAR
STARTCHAR GREEK
ENCODING 1013
SWIDTH 1920 0
DWIDTH 20 0
BBX 16 20 4 0
BITMAP
0FFF
0FFF
0FFF
0FFF
F000
F000
F000
F000
FFF0
FFF0
FFF0
FFF0
F000
F000
F000
F000
0FFF
0FFF
0FFF
0FFF
ENDCHAR
STARTCHAR GREEK
ENCODING 1014
SWIDTH 1920 0
DWIDTH 20 0
BBX 16 20 4 0
BITMAP
FFF0
FFF0
FFF0
FFF0
000F
000F
000F
000F
0FFF
0FFF
0FFF
0FFF
000F
000F
000F
000F
FFF0
FFF0
FFF0
FFF0
ENDCHAR
STARTCHAR GREEK
ENCODING 1015
SWIDTH 1920 0
DWIDTH 20 0
BBX 16 24 4 0
BITMAP
F000
F000
F000
F000
FFF0
FFF0
FFF0
FFF0
F00F
F00F
F00F
F00F
F00F
F00F
F00F
F00F
FFF0
FFF0
FFF0
FFF0
F000
F000
F000
F000
ENDCHAR
STARTCHAR GREEK
ENCODING 1016
SWIDTH 1920 0
DWIDTH 20 0
BBX 16 28 4 -4
BITMAP
F000
F000
F000
F000
FFF0
FFF0
FFF0
FFF0
F00F
F00F
F00F
F00F
F00F
F00F
F00F
F00F
FFF0
FFF0
FFF0
FFF0
F000
F000
F000
F000
F000
F000
F000
F000
ENDCHAR
STARTCHAR uni0043
ENCODING 1017
SWIDTH 1920 0
DWIDTH 20 0
BBX 16 24 4 0
BITMAP
0FFF
0FFF
0FFF
0FFF
F000
F000
F000
F000
F000
F000
F000
F000
F000
F000
F000
F000
F000
F000
F000
F000
0FFF
0FFF
0FFF
0FFF
ENDCHAR
STARTCHAR uni004D
ENCODING 1018
SWIDTH 1920 0
DWIDTH 20 0
BBX 16 24 4 0
BITMAP
F00F
F00F
F00F
F00F
FFFF
FFFF
FFFF
FFFF
F0FF
F0FF
F0FF
F0FF
F00F
F00F
F00F
F00F
F00F
F00F
F00F
F00F
F00F
F00F
F00F
F00F
ENDCHAR
STARTCHAR GREEK
ENCODING 1019
SWIDTH 1920 0
DWIDTH 20 0
BBX 16 24 4 -8
BITMAP
F00F
F00F
F00F
F00F
FFFF
FFFF
FFFF
FFFF
F0FF
F0FF
F0FF
F0FF
F00F
F00F
F00F
F00F
F000
F000
F000
F000
F000
F000
F000
F000
ENDCHAR
STARTCHAR uni0070
ENCODING 1020
SWIDTH 1920 0
DWIDTH 20 0
BBX 16 32 4 -12
BITMAP
0FF0
0FF0
0FF0
0FF0
F00F
F00F
F00F
F00F
F00F
F00F
F00F
F00F
F00F
F00F
F00F
F00F
FFF0
FFF0
FFF0
FFF0
F000
F000
F000
F000
FF00
FF00
FF00
FF00
F000
F000
F000
F000
ENDCHAR
STARTCHAR uni0043
ENCODING 1021
SWIDTH 1920 0
DWIDTH 20 0
BBX 20 24 4 0
BITMAP
0FFF00
0FFF00
0FFF00
0FFF00
F000F0
F000F0
F000F0
F000F0
0000F0
0000F0
0000F0
0000F0
0000F0
0000F0
0000F0
0000F0
F000F0
F000F0
F000F0
F000F0
0FFF00
0FFF00
0FFF00
0FFF00
ENDCHAR
STARTCHAR uni0043
ENCODING 1022
SWIDTH 1920 0
DWIDTH 20 0
BBX 16 24 4 0
BITMAP
0FFF
0FFF
0FFF
0FFF
F000
F000
F000
F000
F0F0
F0F0
F0F0
F0F0
F000
F000
F000
F000
F000
F000
F000
F000
0FFF
0FFF
0FFF
0FFF
ENDCHAR
STARTCHAR uni0043
ENCODING 1023
SWIDTH 1920 0
DWIDTH 20 0
BBX 16 24 4 0
BITMAP
FFF0
FFF0
FFF0
FFF0
000F
000F
000F
000F
0F0F
0F0F
0F0F
0F0F
000F
000F
000F
000F
000F
000F
000F
000F
FFF0
FFF0
FFF0
FFF0
ENDCHAR
STARTCHAR char203
ENCODING 1024
SWIDTH 1920 0
DWIDTH 20 0
BBX 16 32 4 0
BITMAP
0F00
0F00
0F00
0F00
00F0
00F0
00F0
00F0
FFFF
FFFF
FFFF
FFFF
F000
F000
F000
F000
FFF0
FFF0
FFF0
FFF0
F000
F000
F000
F000
F000
F000
F000
F000
FFFF
FFFF
FFFF
FFFF
ENDCHAR
STARTCHAR char203
ENCODING 1025
SWIDTH 1920 0
DWIDTH 20 0
BBX 16 32 4 0
BITMAP
F0F0
F0F0
F0F0
F0F0
0000
0000
0000
0000
FFFF
FFFF
FFFF
FFFF
F000
F000
F000
F000
FFF0
FFF0
FFF0
FFF0
F000
F000
F000
F000
F000
F000
F000
F000
FFFF
FFFF
FFFF
FFFF
ENDCHAR
STARTCHAR char1026
ENCODING 1026
SWIDTH 1920 0
DWIDTH 20 0
BBX 20 32 0 -4
BITMAP
FFF000
FFF000
FFF000
FFF000
0F0000
0F0000
0F0000
0F0000
0FFF00
0FFF00
0FFF00
0FFF00
0F00F0
0F00F0
0F00F0
0F00F0
0F00F0
0F00F0
0F00F0
0F00F0
0F00F0
0F00F0
0F00F0
0F00F0
0F00F0
0F00F0
0F00F0
0F00F0
000F00
000F00
000F00
000F00
ENDCHAR
STARTCHAR char1027
ENCODING 1027
SWIDTH 1920 0
DWIDTH 20 0
BBX 16 32 4 0
BITMAP
00F0
00F0
00F0
00F0
0F00
0F00
0F00
0F00
FFFF
FFFF
FFFF
FFFF
F000
F000
F000
F000
F000
F000
F000
F000
F000
F000
F000
F000
F000
F000
F000
F000
F000
F000
F000
F000
ENDCHAR
STARTCHAR char1028
ENCODING 1028
SWIDTH 1920 0
DWIDTH 20 0
BBX 16 24 4 0
BITMAP
0FF0
0FF0
0FF0
0FF0
F00F
F00F
F00F
F00F
FF00
FF00
FF00
FF00
F000
F000
F000
F000
F00F
F00F
F00F
F00F
0FF0
0FF0
0FF0
0FF0
ENDCHAR
STARTCHAR char1029
ENCODING 1029
SWIDTH 1920 0
DWIDTH 20 0
BBX 16 24 4 0
BITMAP
0FFF
0FFF
0FFF
0FFF
F000
F000
F000
F000
0FF0
0FF0
0FF0
0FF0
000F
000F
000F
000F
000F
000F
000F
000F
FFF0
FFF0
FFF0
FFF0
ENDCHAR
STARTCHAR char1030
ENCODING 1030
SWIDTH 1920 0
DWIDTH 20 0
BBX 4 24 8 0
BITMAP
F0
F0
F0
F0
F0
F0
F0
F0
F0
F0
F0
F0
F0
F0
F0
F0
F0
F0
F0
F0
F0
F0
F0
F0
ENDCHAR
STARTCHAR char1031
ENCODING 1031
SWIDTH 1920 0
DWIDTH 20 0
BBX 12 28 4 0
BITMAP
F0F0
F0F0
F0F0
F0F0
0F00
0F00
0F00
0F00
0F00
0F00
0F00
0F00
0F00
0F00
0F00
0F00
0F00
0F00
0F00
0F00
0F00
0F00
0F00
0F00
0F00
0F00
0F00
0F00
ENDCHAR
STARTCHAR char1032
ENCODING 1032
SWIDTH 1920 0
DWIDTH 20 0
BBX 16 24 4 0
BITMAP
0FFF
0FFF
0FFF
0FFF
000F
000F
000F
000F
000F
000F
000F
000F
000F
000F
000F
000F
F00F
F00F
F00F
F00F
0FF0
0FF0
0FF0
0FF0
ENDCHAR
STARTCHAR char1033
ENCODING 1033
SWIDTH 1920 0
DWIDTH 20 0
BBX 24 24 0 0
BITMAP
00FF00
00FF00
00FF00
00FF00
0F0F00
0F0F00
0F0F00
0F0F00
0F0FF0
0F0FF0
0F0FF0
0F0FF0
0F0F0F
0F0F0F
0F0F0F
0F0F0F
0F0F0F
0F0F0F
0F0F0F
0F0F0F
F00FF0
F00FF0
F00FF0
F00FF0
ENDCHAR
STARTCHAR char1034
ENCODING 1034
SWIDTH 1920 0
DWIDTH 20 0
BBX 20 24 4 0
BITMAP
F0F000
F0F000
F0F000
F0F000
F0F000
F0F000
F0F000
F0F000
FFFF00
FFFF00
FFFF00
FFFF00
F0F0F0
F0F0F0
F0F0F0
F0F0F0
F0F0F0
F0F0F0
F0F0F0
F0F0F0
F0FF00
F0FF00
F0FF00
F0FF00
ENDCHAR
STARTCHAR char1035
ENCODING 1035
SWIDTH 1920 0
DWIDTH 20 0
BBX 20 28 0 0
BITMAP
FFFF00
FFFF00
FFFF00
FFFF00
0F0000
0F0000
0F0000
0F0000
0FFF00
0FFF00
0FFF00
0FFF00
0F00F0
0F00F0
0F00F0
0F00F0
0F00F0
0F00F0
0F00F0
0F00F0
0F00F0
0F00F0
0F00F0
0F00F0
0F00F0
0F00F0
0F00F0
0F00F0
ENDCHAR
STARTCHAR char1036
ENCODING 1036
SWIDTH 1920 0
DWIDTH 20 0
BBX 16 28 4 0
BITMAP
00F0
00F0
00F0
00F0
FF0F
FF0F
FF0F
FF0F
F0F0
F0F0
F0F0
F0F0
FF00
FF00
FF00
FF00
F0F0
F0F0
F0F0
F0F0
F00F
F00F
F00F
F00F
F00F
F00F
F00F
F00F
ENDCHAR
STARTCHAR char1080
ENCODING 1037
SWIDTH 1920 0
DWIDTH 20 0
BBX 16 32 4 0
BITMAP
0F00
0F00
0F00
0F00
00F0
00F0
00F0
00F0
F00F
F00F
F00F
F00F
F0FF
F0FF
F0FF
F0FF
F0FF
F0FF
F0FF
F0FF
FF0F
FF0F
FF0F
FF0F
FF0F
FF0F
FF0F
FF0F
F00F
F00F
F00F
F00F
ENDCHAR
STARTCHAR char1038
ENCODING 1038
SWIDTH 1920 0
DWIDTH 20 0
BBX 16 32 4 0
BITMAP
0F0F
0F0F
0F0F
0F0F
00F0
00F0
00F0
00F0
F00F
F00F
F00F
F00F
F00F
F00F
F00F
F00F
F00F
F00F
F00F
F00F
0FFF
0FFF
0FFF
0FFF
000F
000F
000F
000F
0FF0
0FF0
0FF0
0FF0
ENDCHAR
STARTCHAR char1039
ENCODING 1039
SWIDTH 1920 0
DWIDTH 20 0
BBX 20 28 0 -4
BITMAP
F000F0
F000F0
F000F0
F000F0
F000F0
F000F0
F000F0
F000F0
F000F0
F000F0
F000F0
F000F0
F000F0
F000F0
F000F0
F000F0
FFFFF0
FFFFF0
FFFFF0
FFFFF0
00F000
00F000
00F000
00F000
00F000
00F000
00F000
00F000
ENDCHAR
STARTCHAR char1040
ENCODING 1040
SWIDTH 1920 0
DWIDTH 20 0
BBX 16 24 4 0
BITMAP
0FF0
0FF0
0FF0
0FF0
F00F
F00F
F00F
F00F
F00F
F00F
F00F
F00F
FFFF
FFFF
FFFF
FFFF
F00F
F00F
F00F
F00F
F00F
F00F
F00F
F00F
ENDCHAR
STARTCHAR char1041
ENCODING 1041
SWIDTH 1920 0
DWIDTH 20 0
BBX 16 28 4 0
BITMAP
FFF0
FFF0
FFF0
FFF0
F000
F000
F000
F000
FFF0
FFF0
FFF0
FFF0
F00F
F00F
F00F
F00F
F00F
F00F
F00F
F00F
F00F
F00F
F00F
F00F
FFF0
FFF0
FFF0
FFF0
ENDCHAR
STARTCHAR char1042
ENCODING 1042
SWIDTH 1920 0
DWIDTH 20 0
BBX 16 24 4 0
BITMAP
FFF0
FFF0
FFF0
FFF0
F00F
F00F
F00F
F00F
FFF0
FFF0
FFF0
FFF0
F00F
F00F
F00F
F00F
F00F
F00F
F00F
F00F
FFF0
FFF0
FFF0
FFF0
ENDCHAR
STARTCHAR char1043
ENCODING 1043
SWIDTH 1920 0
DWIDTH 20 0
BBX 16 24 4 0
BITMAP
FFFF
FFFF
FFFF
FFFF
F000
F000
F000
F000
F000
F000
F000
F000
F000
F000
F000
F000
F000
F000
F000
F000
F000
F000
F000
F000
ENDCHAR
STARTCHAR char1044
ENCODING 1044
SWIDTH 1920 0
DWIDTH 20 0
BBX 20 28 0 -4
BITMAP
00FF00
00FF00
00FF00
00FF00
0F0F00
0F0F00
0F0F00
0F0F00
0F0F00
0F0F00
0F0F00
0F0F00
0F0F00
0F0F00
0F0F00
0F0F00
0F0F00
0F0F00
0F0F00
0F0F00
FFFFF0
FFFFF0
FFFFF0
FFFFF0
F000F0
F000F0
F000F0
F000F0
ENDCHAR
STARTCHAR uni0045
ENCODING 1045
SWIDTH 1920 0
DWIDTH 20 0
BBX 16 24 4 0
BITMAP
FFFF
FFFF
FFFF
FFFF
F000
F000
F000
F000
FFF0
FFF0
FFF0
FFF0
F000
F000
F000
F000
F000
F000
F000
F000
FFFF
FFFF
FFFF
FFFF
ENDCHAR
STARTCHAR uni0058
ENCODING 1046
SWIDTH 1920 0
DWIDTH 20 0
BBX 20 24 0 0
BITMAP
F0F0F0
F0F0F0
F0F0F0
F0F0F0
F0F0F0
F0F0F0
F0F0F0
F0F0F0
0FFF00
0FFF00
0FFF00
0FFF00
F0F0F0
F0F0F0
F0F0F0
F0F0F0
F0F0F0
F0F0F0
F0F0F0
F0F0F0
F0F0F0
F0F0F0
F0F0F0
F0F0F0
ENDCHAR
STARTCHAR uni0033
ENCODING 1047
SWIDTH 1920 0
DWIDTH 20 0
BBX 16 24 4 0
BITMAP
0FF0
0FF0
0FF0
0FF0
F00F
F00F
F00F
F00F
00F0
00F0
00F0
00F0
000F
000F
000F
000F
F00F
F00F
F00F
F00F
0FF0
0FF0
0FF0
0FF0
ENDCHAR
STARTCHAR char1080
ENCODING 1048
SWIDTH 1920 0
DWIDTH 20 0
BBX 16 24 4 0
BITMAP
F00F
F00F
F00F
F00F
F0FF
F0FF
F0FF
F0FF
F0FF
F0FF
F0FF
F0FF
FF0F
FF0F
FF0F
FF0F
FF0F
FF0F
FF0F
FF0F
F00F
F00F
F00F
F00F
ENDCHAR
STARTCHAR char1080
ENCODING 1049
SWIDTH 1920 0
DWIDTH 20 0
BBX 16 32 4 0
BITMAP
0F0F
0F0F
0F0F
0F0F
00F0
00F0
00F0
00F0
F00F
F00F
F00F
F00F
F0FF
F0FF
F0FF
F0FF
F0FF
F0FF
F0FF
F0FF
FF0F
FF0F
FF0F
FF0F
FF0F
FF0F
FF0F
FF0F
F00F
F00F
F00F
F00F
ENDCHAR
STARTCHAR uni004B
ENCODING 1050
SWIDTH 1920 0
DWIDTH 20 0
BBX 16 24 4 0
BITMAP
F00F
F00F
F00F
F00F
F0F0
F0F0
F0F0
F0F0
FF00
FF00
FF00
FF00
F0F0
F0F0
F0F0
F0F0
F00F
F00F
F00F
F00F
F00F
F00F
F00F
F00F
ENDCHAR
STARTCHAR char1051
ENCODING 1051
SWIDTH 1920 0
DWIDTH 20 0
BBX 16 24 4 0
BITMAP
0FFF
0FFF
0FFF
0FFF
0F0F
0F0F
0F0F
0F0F
0F0F
0F0F
0F0F
0F0F
0F0F
0F0F
0F0F
0F0F
0F0F
0F0F
0F0F
0F0F
F00F
F00F
F00F
F00F
ENDCHAR
STARTCHAR uni004D
ENCODING 1052
SWIDTH 1920 0
DWIDTH 20 0
BBX 16 24 4 0
BITMAP
F00F
F00F
F00F
F00F
FFFF
FFFF
FFFF
FFFF
F0FF
F0FF
F0FF
F0FF
F00F
F00F
F00F
F00F
F00F
F00F
F00F
F00F
F00F
F00F
F00F
F00F
ENDCHAR
STARTCHAR uni0048
ENCODING 1053
SWIDTH 1920 0
DWIDTH 20 0
BBX 16 24 4 0
BITMAP
F00F
F00F
F00F
F00F
F00F
F00F
F00F
F00F
FFFF
FFFF
FFFF
FFFF
F00F
F00F
F00F
F00F
F00F
F00F
F00F
F00F
F00F
F00F
F00F
F00F
ENDCHAR
STARTCHAR uni004F
ENCODING 1054
SWIDTH 1920 0
DWIDTH 20 0
BBX 16 24 4 0
BITMAP
0FF0
0FF0
0FF0
0FF0
F00F
F00F
F00F
F00F
F00F
F00F
F00F
F00F
F00F
F00F
F00F
F00F
F00F
F00F
F00F
F00F
0FF0
0FF0
0FF0
0FF0
ENDCHAR
STARTCHAR char1055
ENCODING 1055
SWIDTH 1920 0
DWIDTH 20 0
BBX 16 24 4 0
BITMAP
FFFF
FFFF
FFFF
FFFF
F00F
F00F
F00F
F00F
F00F
F00F
F00F
F00F
F00F
F00F
F00F
F00F
F00F
F00F
F00F
F00F
F00F
F00F
F00F
F00F
ENDCHAR
STARTCHAR char1104
ENCODING 1056
SWIDTH 1920 0
DWIDTH 20 0
BBX 16 24 4 0
BITMAP
FFF0
FFF0
FFF0
FFF0
F00F
F00F
F00F
F00F
F00F
F00F
F00F
F00F
FFF0
FFF0
FFF0
FFF0
F000
F000
F000
F000
F000
F000
F000
F000
ENDCHAR
STARTCHAR uni0043
ENCODING 1057
SWIDTH 1920 0
DWIDTH 20 0
BBX 16 24 4 0
BITMAP
0FFF
0FFF
0FFF
0FFF
F000
F000
F000
F000
F000
F000
F000
F000
F000
F000
F000
F000
F000
F000
F000
F000
0FFF
0FFF
0FFF
0FFF
ENDCHAR
STARTCHAR uni0054
ENCODING 1058
SWIDTH 1920 0
DWIDTH 20 0
BBX 12 24 8 0
BITMAP
FFF0
FFF0
FFF0
FFF0
0F00
0F00
0F00
0F00
0F00
0F00
0F00
0F00
0F00
0F00
0F00
0F00
0F00
0F00
0F00
0F00
0F00
0F00
0F00
0F00
ENDCHAR
STARTCHAR uni0079
ENCODING 1059
SWIDTH 1920 0
DWIDTH 20 0
BBX 16 24 4 0
BITMAP
F00F
F00F
F00F
F00F
F00F
F00F
F00F
F00F
F00F
F00F
F00F
F00F
0FF0
0FF0
0FF0
0FF0
00F0
00F0
00F0
00F0
FF00
FF00
FF00
FF00
ENDCHAR
STARTCHAR char1060
ENCODING 1060
SWIDTH 1920 0
DWIDTH 20 0
BBX 20 32 0 -4
BITMAP
00F000
00F000
00F000
00F000
0FFF00
0FFF00
0FFF00
0FFF00
F0F0F0
F0F0F0
F0F0F0
F0F0F0
F0F0F0
F0F0F0
F0F0F0
F0F0F0
F0F0F0
F0F0F0
F0F0F0
F0F0F0
F0F0F0
F0F0F0
F0F0F0
F0F0F0
0FFF00
0FFF00
0FFF00
0FFF00
00F000
00F000
00F000
00F000
ENDCHAR
STARTCHAR uni0058
ENCODING 1061
SWIDTH 1920 0
DWIDTH 20 0
BBX 16 24 4 0
BITMAP
F00F
F00F
F00F
F00F
F00F
F00F
F00F
F00F
0FF0
0FF0
0FF0
0FF0
F00F
F00F
F00F
F00F
F00F
F00F
F00F
F00F
F00F
F00F
F00F
F00F
ENDCHAR
STARTCHAR char1062
ENCODING 1062
SWIDTH 1920 0
DWIDTH 20 0
BBX 16 28 4 -4
BITMAP
F0F0
F0F0
F0F0
F0F0
F0F0
F0F0
F0F0
F0F0
F0F0
F0F0
F0F0
F0F0
F0F0
F0F0
F0F0
F0F0
F0F0
F0F0
F0F0
F0F0
FFFF
FFFF
FFFF
FFFF
000F
000F
000F
000F
ENDCHAR
STARTCHAR char1063
ENCODING 1063
SWIDTH 1920 0
DWIDTH 20 0
BBX 16 24 0 0
BITMAP
F00F
F00F
F00F
F00F
F00F
F00F
F00F
F00F
0FFF
0FFF
0FFF
0FFF
000F
000F
000F
000F
000F
000F
000F
000F
000F
000F
000F
000F
ENDCHAR
STARTCHAR char1064
ENCODING 1064
SWIDTH 1920 0
DWIDTH 20 0
BBX 20 24 0 0
BITMAP
F0F0F0
F0F0F0
F0F0F0
F0F0F0
F0F0F0
F0F0F0
F0F0F0
F0F0F0
F0F0F0
F0F0F0
F0F0F0
F0F0F0
F0F0F0
F0F0F0
F0F0F0
F0F0F0
F0F0F0
F0F0F0
F0F0F0
F0F0F0
FFFF00
FFFF00
FFFF00
FFFF00
ENDCHAR
STARTCHAR char1065
ENCODING 1065
SWIDTH 1920 0
DWIDTH 20 0
BBX 24 28 0 -4
BITMAP
F0F0F0
F0F0F0
F0F0F0
F0F0F0
F0F0F0
F0F0F0
F0F0F0
F0F0F0
F0F0F0
F0F0F0
F0F0F0
F0F0F0
F0F0F0
F0F0F0
F0F0F0
F0F0F0
F0F0F0
F0F0F0
F0F0F0
F0F0F0
0FFFFF
0FFFFF
0FFFFF
0FFFFF
00000F
00000F
00000F
00000F
ENDCHAR
STARTCHAR char1066
ENCODING 1066
SWIDTH 1920 0
DWIDTH 20 0
BBX 16 24 0 0
BITMAP
FF00
FF00
FF00
FF00
0F00
0F00
0F00
0F00
0F00
0F00
0F00
0F00
0FF0
0FF0
0FF0
0FF0
0F0F
0F0F
0F0F
0F0F
0FF0
0FF0
0FF0
0FF0
ENDCHAR
STARTCHAR char1067
ENCODING 1067
SWIDTH 1920 0
DWIDTH 20 0
BBX 16 24 4 0
BITMAP
F00F
F00F
F00F
F00F
F00F
F00F
F00F
F00F
F00F
F00F
F00F
F00F
FF0F
FF0F
FF0F
FF0F
F0FF
F0FF
F0FF
F0FF
FF0F
FF0F
FF0F
FF0F
ENDCHAR
STARTCHAR char1068
ENCODING 1068
SWIDTH 1920 0
DWIDTH 20 0
BBX 16 24 4 0
BITMAP
F000
F000
F000
F000
F000
F000
F000
F000
F000
F000
F000
F000
FFF0
FFF0
FFF0
FFF0
F00F
F00F
F00F
F00F
FFF0
FFF0
FFF0
FFF0
ENDCHAR
ENDFONT
